<svg width="257" height="114" viewBox="0 0 257 114" fill="none" xmlns="http://www.w3.org/2000/svg">
<g filter="url(#filter0_dd_416_5160)">
<g clip-path="url(#clip0_416_5160)">
<path d="M9 54C9 42.8403 9 37.2605 10.2267 32.6825C13.5555 20.2592 23.2592 10.5555 35.6825 7.22667C40.2605 6 45.8403 6 57 6C68.1597 6 73.7395 6 78.3175 7.22667C90.7408 10.5555 100.445 20.2592 103.773 32.6825C105 37.2605 105 42.8403 105 54C105 65.1597 105 70.7395 103.773 75.3175C100.445 87.7408 90.7408 97.4445 78.3175 100.773C73.7395 102 68.1597 102 57 102C45.8403 102 40.2605 102 35.6825 100.773C23.2592 97.4445 13.5555 87.7408 10.2267 75.3175C9 70.7395 9 65.1597 9 54Z" fill="white"/>
<path d="M9 54C9 42.8403 9 37.2605 10.2267 32.6825C13.5555 20.2592 23.2592 10.5555 35.6825 7.22667C40.2605 6 45.8403 6 57 6C68.1597 6 73.7395 6 78.3175 7.22667C90.7408 10.5555 100.445 20.2592 103.773 32.6825C105 37.2605 105 42.8403 105 54C105 65.1597 105 70.7395 103.773 75.3175C100.445 87.7408 90.7408 97.4445 78.3175 100.773C73.7395 102 68.1597 102 57 102C45.8403 102 40.2605 102 35.6825 100.773C23.2592 97.4445 13.5555 87.7408 10.2267 75.3175C9 70.7395 9 65.1597 9 54Z" fill="url(#paint0_linear_416_5160)"/>
<path fill-rule="evenodd" clip-rule="evenodd" d="M56.9993 12.1166C33.8677 12.1166 15.1158 30.8684 15.1158 54.0001C15.1158 77.1317 33.8677 95.8836 56.9993 95.8836C80.1309 95.8836 98.8828 77.1317 98.8828 54.0001C98.8828 30.8684 80.1309 12.1166 56.9993 12.1166ZM14.8828 54.0001C14.8828 30.7397 33.739 11.8835 56.9993 11.8835C80.2596 11.8835 99.1158 30.7397 99.1158 54.0001C99.1158 77.2604 80.2596 96.1166 56.9993 96.1166C33.739 96.1166 14.8828 77.2604 14.8828 54.0001Z" fill="#D0D5DD"/>
<path fill-rule="evenodd" clip-rule="evenodd" d="M57 42.2337C50.5013 42.2337 45.233 47.502 45.233 54.0007C45.233 60.4995 50.5013 65.7677 57 65.7677C63.4987 65.7677 68.767 60.4995 68.767 54.0007C68.767 47.502 63.4987 42.2337 57 42.2337ZM45 54.0007C45 47.3733 50.3726 42.0007 57 42.0007C63.6274 42.0007 69 47.3733 69 54.0007C69 60.6281 63.6274 66.0007 57 66.0007C50.3726 66.0007 45 60.6281 45 54.0007Z" fill="#D0D5DD"/>
<path fill-rule="evenodd" clip-rule="evenodd" d="M57.0004 45.9603C52.5606 45.9603 48.9615 49.5594 48.9615 53.9991C48.9615 58.4389 52.5606 62.038 57.0004 62.038C61.4401 62.038 65.0392 58.4389 65.0392 53.9991C65.0392 49.5594 61.4401 45.9603 57.0004 45.9603ZM48.7285 53.9991C48.7285 49.4307 52.4319 45.7273 57.0004 45.7273C61.5688 45.7273 65.2722 49.4307 65.2722 53.9991C65.2722 58.5676 61.5688 62.271 57.0004 62.271C52.4319 62.271 48.7285 58.5676 48.7285 53.9991Z" fill="#D0D5DD"/>
<path d="M56.8828 6H57.1158V102H56.8828V6Z" fill="#D0D5DD"/>
<path d="M105 53.8828L105 54.1158L9 54.1158L9 53.8828L105 53.8828Z" fill="#D0D5DD"/>
<path d="M88.8066 6H89.0397V102H88.8066V6Z" fill="#D0D5DD"/>
<path d="M40.9219 6H41.1549V102H40.9219V6Z" fill="#D0D5DD"/>
<path d="M72.8457 6H73.0787V102H72.8457V6Z" fill="#D0D5DD"/>
<path d="M24.9609 6H25.1939V102H24.9609V6Z" fill="#D0D5DD"/>
<path d="M105 85.8047L105 86.0377L9 86.0377L9 85.8047L105 85.8047Z" fill="#D0D5DD"/>
<path d="M105 37.9219L105 38.1549L9 38.1549L9 37.9219L105 37.9219Z" fill="#D0D5DD"/>
<path d="M105 69.8438L105 70.0768L9 70.0768L9 69.8437L105 69.8438Z" fill="#D0D5DD"/>
<path d="M105 21.9609L105 22.1939L9 22.1939L9 21.9609L105 21.9609Z" fill="#D0D5DD"/>
<g filter="url(#filter1_dd_416_5160)">
<circle cx="57" cy="54" r="24" fill="url(#paint1_linear_416_5160)"/>
</g>
<path d="M9 54H105C105 65.1597 105 70.7395 103.773 75.3175C100.445 87.7408 90.7408 97.4445 78.3175 100.773C73.7395 102 68.1597 102 57 102C45.8403 102 40.2605 102 35.6825 100.773C23.2592 97.4445 13.5555 87.7408 10.2267 75.3175C9 70.7395 9 65.1597 9 54Z" fill="white" fill-opacity="0.2"/>
</g>
<path d="M57 6.2998C68.179 6.2998 73.71 6.30273 78.2402 7.5166C90.5597 10.8177 100.182 20.4403 103.483 32.7598C104.697 37.29 104.7 42.821 104.7 54C104.7 65.179 104.697 70.71 103.483 75.2402C100.182 87.5597 90.5597 97.1823 78.2402 100.483C73.71 101.697 68.179 101.7 57 101.7C45.821 101.7 40.29 101.697 35.7598 100.483C23.4403 97.1823 13.8177 87.5597 10.5166 75.2402C9.30273 70.71 9.2998 65.179 9.2998 54C9.2998 42.821 9.30273 37.29 10.5166 32.7598C13.8177 20.4403 23.4403 10.8177 35.7598 7.5166C40.29 6.30273 45.821 6.2998 57 6.2998Z" stroke="#D0D5DD" stroke-width="0.6"/>
</g>
<path d="M150.455 83H130.739V24.8182H150.852C156.629 24.8182 161.591 25.983 165.739 28.3125C169.905 30.6231 173.106 33.947 175.341 38.2841C177.576 42.6212 178.693 47.8106 178.693 53.8523C178.693 59.9129 177.566 65.1212 175.312 69.4773C173.078 73.8333 169.848 77.1761 165.625 79.5057C161.42 81.8352 156.364 83 150.455 83ZM141.278 73.8807H149.943C153.996 73.8807 157.377 73.142 160.085 71.6648C162.794 70.1686 164.83 67.9432 166.193 64.9886C167.557 62.0152 168.239 58.303 168.239 53.8523C168.239 49.4015 167.557 45.7083 166.193 42.7727C164.83 39.8182 162.813 37.6117 160.142 36.1534C157.491 34.6761 154.195 33.9375 150.256 33.9375H141.278V73.8807ZM205.639 83.8523C201.662 83.8523 198.243 83.1326 195.384 81.6932C192.524 80.2538 190.317 78.3125 188.764 75.8693C187.23 73.4072 186.463 70.6326 186.463 67.5455C186.463 65.2159 186.937 63.1515 187.884 61.3523C188.849 59.553 190.175 57.8864 191.861 56.3523C193.565 54.8182 195.535 53.2936 197.77 51.7784L208.082 44.7614C209.598 43.7765 210.743 42.7348 211.52 41.6364C212.315 40.5379 212.713 39.25 212.713 37.7727C212.713 36.5227 212.183 35.339 211.122 34.2216C210.08 33.1042 208.641 32.5455 206.804 32.5455C205.573 32.5455 204.484 32.839 203.537 33.4261C202.609 33.9943 201.88 34.7424 201.349 35.6705C200.838 36.5985 200.582 37.5833 200.582 38.625C200.582 39.8939 200.933 41.1818 201.634 42.4886C202.353 43.7955 203.281 45.1496 204.418 46.5511C205.573 47.9527 206.804 49.4394 208.111 51.0114L235.412 83H224.276L201.605 57.0341C199.92 55.0644 198.291 53.1231 196.719 51.2102C195.166 49.2973 193.887 47.3087 192.884 45.2443C191.899 43.161 191.406 40.9072 191.406 38.483C191.406 35.7367 192.041 33.2841 193.31 31.125C194.579 28.947 196.349 27.233 198.622 25.983C200.914 24.733 203.594 24.108 206.662 24.108C209.73 24.108 212.363 24.714 214.56 25.9261C216.757 27.1383 218.452 28.7481 219.645 30.7557C220.838 32.7633 221.435 34.9508 221.435 37.3182C221.435 40.0644 220.753 42.5265 219.389 44.7045C218.026 46.8636 216.132 48.8239 213.707 50.5852L201.946 59.1932C200.014 60.5947 198.632 62.0152 197.798 63.4545C196.965 64.875 196.548 66.0871 196.548 67.0909C196.548 68.625 196.937 70.017 197.713 71.267C198.49 72.517 199.579 73.5208 200.98 74.2784C202.401 75.017 204.058 75.3864 205.952 75.3864C208.035 75.3864 210.09 74.9223 212.116 73.9943C214.143 73.0473 215.99 71.7027 217.656 69.9602C219.323 68.2178 220.649 66.1345 221.634 63.7102C222.618 61.267 223.111 58.5587 223.111 55.5852H231.946C231.946 59.2595 231.539 62.4602 230.724 65.1875C229.91 67.8958 228.859 70.1875 227.571 72.0625C226.283 73.9186 224.92 75.4053 223.48 76.5227C223.026 76.8447 222.59 77.1667 222.173 77.4886C221.757 77.8106 221.321 78.1326 220.866 78.4545C218.821 80.3106 216.425 81.6742 213.679 82.5455C210.952 83.4167 208.272 83.8523 205.639 83.8523ZM252.294 24.8182V83H241.754V24.8182H252.294Z" fill="#281010"/>
<defs>
<filter id="filter0_dd_416_5160" x="0" y="0" width="114" height="114" filterUnits="userSpaceOnUse" color-interpolation-filters="sRGB">
<feFlood flood-opacity="0" result="BackgroundImageFix"/>
<feColorMatrix in="SourceAlpha" type="matrix" values="0 0 0 0 0 0 0 0 0 0 0 0 0 0 0 0 0 0 127 0" result="hardAlpha"/>
<feOffset dy="3"/>
<feGaussianBlur stdDeviation="3"/>
<feColorMatrix type="matrix" values="0 0 0 0 0.0627451 0 0 0 0 0.0941176 0 0 0 0 0.156863 0 0 0 0.06 0"/>
<feBlend mode="normal" in2="BackgroundImageFix" result="effect1_dropShadow_416_5160"/>
<feColorMatrix in="SourceAlpha" type="matrix" values="0 0 0 0 0 0 0 0 0 0 0 0 0 0 0 0 0 0 127 0" result="hardAlpha"/>
<feOffset dy="3"/>
<feGaussianBlur stdDeviation="4.5"/>
<feColorMatrix type="matrix" values="0 0 0 0 0.0627451 0 0 0 0 0.0941176 0 0 0 0 0.156863 0 0 0 0.1 0"/>
<feBlend mode="normal" in2="effect1_dropShadow_416_5160" result="effect2_dropShadow_416_5160"/>
<feBlend mode="normal" in="SourceGraphic" in2="effect2_dropShadow_416_5160" result="shape"/>
</filter>
<filter id="filter1_dd_416_5160" x="24" y="24" width="66" height="66" filterUnits="userSpaceOnUse" color-interpolation-filters="sRGB">
<feFlood flood-opacity="0" result="BackgroundImageFix"/>
<feColorMatrix in="SourceAlpha" type="matrix" values="0 0 0 0 0 0 0 0 0 0 0 0 0 0 0 0 0 0 127 0" result="hardAlpha"/>
<feOffset dy="3"/>
<feGaussianBlur stdDeviation="3"/>
<feColorMatrix type="matrix" values="0 0 0 0 0.0627451 0 0 0 0 0.0941176 0 0 0 0 0.156863 0 0 0 0.06 0"/>
<feBlend mode="normal" in2="BackgroundImageFix" result="effect1_dropShadow_416_5160"/>
<feColorMatrix in="SourceAlpha" type="matrix" values="0 0 0 0 0 0 0 0 0 0 0 0 0 0 0 0 0 0 127 0" result="hardAlpha"/>
<feOffset dy="3"/>
<feGaussianBlur stdDeviation="4.5"/>
<feColorMatrix type="matrix" values="0 0 0 0 0.0627451 0 0 0 0 0.0941176 0 0 0 0 0.156863 0 0 0 0.1 0"/>
<feBlend mode="normal" in2="effect1_dropShadow_416_5160" result="effect2_dropShadow_416_5160"/>
<feBlend mode="normal" in="SourceGraphic" in2="effect2_dropShadow_416_5160" result="shape"/>
</filter>
<linearGradient id="paint0_linear_416_5160" x1="57" y1="6" x2="57" y2="102" gradientUnits="userSpaceOnUse">
<stop stop-color="white"/>
<stop offset="1" stop-color="#D0D5DD"/>
</linearGradient>
<linearGradient id="paint1_linear_416_5160" x1="45" y1="78" x2="69" y2="30" gradientUnits="userSpaceOnUse">
<stop stop-color="#450606"/>
<stop offset="1" stop-color="#951313"/>
</linearGradient>
<clipPath id="clip0_416_5160">
<path d="M9 54C9 42.8403 9 37.2605 10.2267 32.6825C13.5555 20.2592 23.2592 10.5555 35.6825 7.22667C40.2605 6 45.8403 6 57 6C68.1597 6 73.7395 6 78.3175 7.22667C90.7408 10.5555 100.445 20.2592 103.773 32.6825C105 37.2605 105 42.8403 105 54C105 65.1597 105 70.7395 103.773 75.3175C100.445 87.7408 90.7408 97.4445 78.3175 100.773C73.7395 102 68.1597 102 57 102C45.8403 102 40.2605 102 35.6825 100.773C23.2592 97.4445 13.5555 87.7408 10.2267 75.3175C9 70.7395 9 65.1597 9 54Z" fill="white"/>
</clipPath>
</defs>
</svg>
