<svg width="600" height="392" viewBox="0 0 600 392" fill="none" xmlns="http://www.w3.org/2000/svg">
<path d="M557.713 116.904C557.58 117.368 557.369 117.807 557.089 118.2C556.452 119.133 555.559 119.862 554.517 120.299C553.475 120.736 552.33 120.863 551.218 120.664C550.166 120.478 549.185 120.011 548.377 119.312C547.941 118.94 547.563 118.503 547.257 118.016C546.93 117.526 546.684 116.986 546.529 116.416C546.19 115.19 546.254 113.887 546.712 112.7C547.17 111.513 547.998 110.505 549.074 109.824C549.565 109.499 550.105 109.253 550.674 109.096C551.464 108.88 552.291 108.831 553.102 108.95C553.914 109.07 554.691 109.357 555.385 109.792C556.344 110.391 557.109 111.254 557.589 112.277C558.069 113.301 558.243 114.441 558.089 115.56C558.031 116.039 557.894 116.504 557.681 116.936C557.681 116.936 557.857 116.448 557.961 115.544C558.093 114.257 557.792 112.962 557.105 111.864C556.602 111.06 555.905 110.394 555.077 109.928C554.25 109.463 553.319 109.213 552.37 109.2C551.829 109.188 551.289 109.258 550.77 109.408C550.222 109.556 549.701 109.788 549.226 110.096C548.215 110.745 547.437 111.699 547.006 112.82C546.574 113.94 546.511 115.169 546.826 116.328C546.972 116.879 547.204 117.402 547.513 117.88C547.797 118.343 548.15 118.759 548.561 119.112C549.276 119.738 550.135 120.176 551.061 120.385C551.988 120.595 552.951 120.57 553.866 120.312C555.109 119.962 556.199 119.204 556.961 118.16C557.513 117.384 557.673 116.888 557.713 116.904Z" fill="#E0E0E0"/>
<path d="M563.2 122.398H563.4L564.016 122.478L566.416 122.798L566.36 122.838C566.848 121.534 567.496 119.83 568.272 117.766V117.87L565.552 116.054H565.504V115.998C565.63 114.831 565.598 113.652 565.408 112.494V112.43L565.456 112.39L568.08 110.422V110.566L565.872 105.622L566.016 105.694L562.816 106.334H562.736L562.68 106.27C561.944 105.362 561.091 104.555 560.144 103.87L560.072 103.822V103.734C560.216 102.734 560.376 101.622 560.536 100.534L560.632 100.694L555.576 98.7497L555.76 98.6937L553.936 101.414L553.888 101.494H553.792C552.63 101.368 551.457 101.398 550.304 101.582H550.208L550.144 101.502L548.192 98.8777L548.384 98.9337L543.432 101.134L543.528 100.95L544.16 104.15V104.254L544.08 104.318C543.169 105.045 542.362 105.893 541.68 106.838L541.52 106.91H541.416H541.312H541.112L540.704 106.854L539.904 106.734L538.304 106.494L538.48 106.39C537.824 108.102 537.168 109.79 536.528 111.446L536.472 111.254L539.184 113.078L539.272 113.134V113.23C539.145 114.391 539.174 115.564 539.36 116.718V116.814L539.28 116.87L536.656 118.83L536.704 118.638C537.456 120.326 538.184 121.982 538.896 123.59L538.728 123.502L541.928 122.87H542.024L542.08 122.942C542.811 123.849 543.658 124.655 544.6 125.342L544.672 125.39V125.478C544.504 126.59 544.344 127.662 544.192 128.678L544.104 128.534L549.152 130.494L549 130.542L550.832 127.822L550.872 127.766H550.944C552.11 127.893 553.288 127.866 554.448 127.686H554.512L554.552 127.734L556.496 130.366H556.384L561.344 128.19L561.296 128.27C561.056 126.982 560.856 125.934 560.688 125.07C561.384 124.521 562.025 123.904 562.6 123.23L563.016 122.726C563.058 122.607 563.12 122.496 563.2 122.398L563.08 122.582C563 122.702 562.864 122.878 562.68 123.102C562.122 123.798 561.492 124.434 560.8 124.998V124.942C560.976 125.822 561.192 126.87 561.456 128.142V128.206H561.4L556.464 130.422H556.392L556.344 130.358L554.4 127.838H554.504C553.327 128.031 552.13 128.066 550.944 127.942L551.056 127.886L549.24 130.614L549.184 130.694H549.088L544 128.798H543.904V128.686C544.056 127.638 544.208 126.558 544.368 125.486L544.424 125.622C543.457 124.919 542.588 124.09 541.84 123.158L541.984 123.214L538.784 123.854H538.664L538.616 123.742L536.416 118.79L536.36 118.67L536.464 118.598L539.088 116.638L539.024 116.79C538.834 115.61 538.805 114.41 538.936 113.222L539.008 113.374L536.288 111.55L536.176 111.478L536.224 111.35C536.864 109.691 537.512 108.006 538.168 106.294L538.216 106.174H538.352L539.952 106.414L540.752 106.534L541.16 106.59H541.36H541.464H541.6L541.44 106.662C542.141 105.691 542.97 104.819 543.904 104.07L543.848 104.23L543.216 101.03V100.894L543.336 100.846L548.296 98.6457L548.416 98.5977L548.488 98.7017L550.448 101.326L550.288 101.262C551.471 101.076 552.674 101.049 553.864 101.182L553.712 101.246L555.544 98.5337L555.608 98.4297L555.728 98.4697L560.776 100.43L560.888 100.47V100.59C560.72 101.718 560.56 102.822 560.408 103.79L560.352 103.654C561.32 104.358 562.189 105.19 562.936 106.126L562.8 106.07L566 105.446H566.104V105.542L568.288 110.502V110.59L568.216 110.646L565.6 112.582L565.64 112.478C565.821 113.653 565.848 114.847 565.72 116.03L565.672 115.942L568.384 117.774L568.44 117.814V117.878C567.64 119.934 566.968 121.63 566.464 122.918H566.4L564 122.534L563.384 122.43L563.2 122.398Z" fill="#E0E0E0"/>
<path fill-rule="evenodd" clip-rule="evenodd" d="M530.977 90.2786C529.878 91.7749 528.587 93.1198 527.137 94.2786L528.137 99.3426L520.321 102.815L517.241 98.6706C515.389 98.9663 513.505 99.0121 511.641 98.8066L508.801 103.135L500.801 100.055L501.545 94.9506C500.047 93.8511 498.702 92.5571 497.545 91.1026L492.473 92.1026L489.009 84.2946L493.153 81.2066C492.859 79.3544 492.81 77.4714 493.009 75.6066L488.705 72.7986L491.777 64.7986L496.889 65.5426C497.988 64.0464 499.279 62.7015 500.729 61.5426L499.729 56.4706L507.545 53.0066L510.633 57.1506C512.485 56.8541 514.369 56.8083 516.233 57.0146L519.113 52.7266L527.113 55.7986L526.361 60.9026C527.857 62.0045 529.202 63.2982 530.361 64.7506L535.425 63.7506L538.889 71.5586L534.753 74.6466C535.05 76.4987 535.095 78.3822 534.889 80.2466L539.177 83.1266L536.105 91.1266L530.993 90.3826L530.977 90.2786ZM522.353 81.5986C523.004 79.9064 523.138 78.0594 522.739 76.291C522.34 74.5226 521.426 72.9121 520.112 71.6632C518.798 70.4143 517.143 69.583 515.356 69.2744C513.57 68.9658 511.732 69.1937 510.075 69.9293C508.418 70.665 507.017 71.8753 506.048 73.4074C505.079 74.9395 504.585 76.7245 504.631 78.5368C504.676 80.3491 505.257 82.1073 506.301 83.5893C507.346 85.0712 508.806 86.2103 510.497 86.8626C511.621 87.296 512.82 87.5037 514.024 87.4737C515.228 87.4437 516.415 87.1767 517.516 86.6878C518.617 86.1989 519.611 85.4978 520.441 84.6246C521.271 83.7513 521.921 82.7231 522.353 81.5986Z" fill="#EBEBEB"/>
<path fill-rule="evenodd" clip-rule="evenodd" d="M521.329 168.465C519.573 170.889 517.498 173.066 515.161 174.937L516.761 183.073L504.225 188.673L499.265 182.017C496.311 182.494 493.305 182.572 490.329 182.249L485.713 189.129L472.913 184.193L474.113 176.001C471.691 174.242 469.514 172.168 467.641 169.833L459.505 171.433L453.905 158.897L460.553 153.937C460.078 150.981 460.003 147.976 460.329 145.001L453.441 140.385L458.377 127.585L466.577 128.785C468.334 126.358 470.408 124.178 472.745 122.305L471.145 114.169L483.689 108.609L488.641 115.257C491.6 114.785 494.607 114.71 497.585 115.033L502.201 108.145L515.001 113.081L513.801 121.281C516.224 123.039 518.4 125.113 520.273 127.449L528.409 125.849L534.009 138.385L527.353 143.337C527.827 146.294 527.905 149.302 527.585 152.281L534.465 156.897L529.529 169.697L521.329 168.497V168.465ZM507.481 154.481C508.529 151.764 508.748 148.798 508.109 145.957C507.471 143.116 506.004 140.528 503.895 138.521C501.786 136.514 499.129 135.177 496.26 134.68C493.391 134.183 490.439 134.548 487.778 135.729C485.116 136.909 482.865 138.853 481.308 141.313C479.751 143.774 478.959 146.641 479.032 149.552C479.105 152.462 480.039 155.286 481.717 157.666C483.394 160.046 485.74 161.874 488.457 162.921C492.099 164.323 496.149 164.222 499.717 162.639C503.284 161.056 506.077 158.122 507.481 154.481Z" fill="#EBEBEB"/>
<path d="M173.682 55.495C174.536 61.2814 173.654 67.1912 171.148 72.4763C168.642 77.7614 164.625 82.1843 159.604 85.185C154.583 88.1858 148.785 89.6295 142.943 89.3336C137.102 89.0376 131.479 87.0153 126.787 83.5225C122.095 80.0297 118.545 75.2235 116.586 69.7122C114.627 64.2009 114.347 58.2322 115.782 52.5617C117.216 46.8912 120.301 41.7737 124.645 37.8571C128.989 33.9404 134.398 31.4005 140.186 30.559C144.023 29.9959 147.933 30.1942 151.693 31.1428C155.453 32.0913 158.99 33.7714 162.1 36.0871C165.211 38.4028 167.835 41.3087 169.822 44.6388C171.809 47.9689 173.121 51.6579 173.682 55.495Z" fill="#F5F5F5"/>
<path d="M166.72 56.5034C167.372 60.9134 166.701 65.4175 164.791 69.4458C162.882 73.474 159.821 76.8453 155.994 79.1328C152.168 81.4203 147.749 82.5212 143.297 82.2962C138.845 82.0712 134.56 80.5304 130.984 77.8688C127.408 75.2072 124.702 71.5445 123.208 67.3443C121.715 63.1441 121.501 58.5952 122.594 54.2734C123.687 49.9517 126.037 46.0513 129.348 43.0661C132.659 40.0809 136.781 38.145 141.192 37.5034C147.097 36.6383 153.103 38.154 157.891 41.7171C162.678 45.2802 165.854 50.5989 166.72 56.5034Z" fill="#EBEBEB"/>
<path d="M166.609 55.8045C166.473 55.8045 166.241 54.8685 165.633 53.2125C164.784 50.8866 163.58 48.7062 162.065 46.7485C159.826 43.8737 156.921 41.5867 153.601 40.0845C152.65 39.653 151.669 39.292 150.665 39.0045C149.618 38.6931 148.548 38.4657 147.465 38.3245C146.349 38.1728 145.223 38.1059 144.097 38.1245C142.939 38.1575 141.784 38.2697 140.641 38.4605C139.499 38.6725 138.373 38.9666 137.273 39.3405C136.208 39.7082 135.173 40.1576 134.177 40.6845C133.218 41.1805 132.3 41.7531 131.433 42.3965C130.584 43.0104 129.781 43.687 129.033 44.4205C127.652 45.7792 126.45 47.309 125.457 48.9725C124.607 50.4351 123.917 51.9855 123.401 53.5965C122.652 55.9532 122.275 58.4118 122.281 60.8845C122.281 62.6445 122.393 63.6285 122.281 63.6525C122.169 63.6765 121.841 62.7245 121.633 60.9165C121.361 58.3457 121.57 55.7469 122.249 53.2525C123.264 49.502 125.225 46.0751 127.945 43.3005C129.546 41.6681 131.382 40.2848 133.393 39.1965C134.463 38.6195 135.576 38.1248 136.721 37.7165C139.09 36.8849 141.578 36.4445 144.089 36.4125C145.304 36.3952 146.519 36.4754 147.721 36.6525C148.882 36.8253 150.027 37.0929 151.145 37.4525C152.219 37.7792 153.267 38.1857 154.281 38.6685C156.148 39.5665 157.888 40.7071 159.457 42.0605C160.808 43.2471 162.014 44.5898 163.049 46.0605C164.54 48.1696 165.625 50.538 166.249 53.0445C166.697 54.7805 166.713 55.7885 166.609 55.8045Z" fill="#E0E0E0"/>
<path d="M148.882 72.6712L149.506 76.5513L146.042 77.1032L145.442 73.3352C141.986 73.6712 138.522 73.1273 136.386 71.9433L137.602 67.4152C139.811 68.4891 142.263 68.9662 144.714 68.7992L143.786 63.0232C139.786 62.7032 135.306 62.1112 134.514 57.1672C133.93 53.4952 136.114 49.9672 141.45 48.4232L140.834 44.5832L144.298 44.0312L144.898 47.7992C147.395 47.5389 149.919 47.879 152.258 48.7912L151.202 53.3193C149.417 52.6332 147.513 52.3096 145.602 52.3672L146.538 58.2472C150.538 58.5352 154.946 59.1352 155.73 64.0152C156.338 67.6152 154.21 71.1512 148.882 72.6712ZM142.978 57.9352L142.178 53.0232C140.41 53.7352 139.85 54.8552 140.034 55.9992C140.218 57.1432 141.378 57.6952 142.978 57.9352ZM150.258 65.3193C150.066 64.1112 148.962 63.6152 147.386 63.3352L148.186 68.1352C149.818 67.4472 150.402 66.3993 150.258 65.3193Z" fill="#EBEBEB"/>
<path d="M164.537 159.818C166.022 169.863 164.494 180.122 160.146 189.298C155.797 198.474 148.824 206.154 140.109 211.365C131.394 216.576 121.329 219.084 111.187 218.571C101.046 218.059 91.2849 214.549 83.1394 208.486C74.9939 202.423 68.8304 194.08 65.4291 184.512C62.0278 174.945 61.5417 164.583 64.0323 154.739C66.5228 144.895 71.8781 136.011 79.4202 129.212C86.9623 122.414 96.352 118.005 106.401 116.546C119.848 114.575 133.528 118.027 144.43 126.142C155.333 134.257 162.565 146.37 164.537 159.818Z" fill="#F5F5F5"/>
<path d="M152.456 161.599C153.587 169.254 152.421 177.072 149.106 184.064C145.791 191.056 140.477 196.908 133.834 200.878C127.192 204.848 119.522 206.758 111.794 206.367C104.065 205.975 96.6271 203.3 90.4203 198.679C84.2134 194.058 79.5171 187.699 76.9258 180.408C74.3345 173.116 73.9647 165.22 75.8632 157.719C77.7617 150.217 81.8432 143.447 87.591 138.266C93.3388 133.086 100.494 129.727 108.152 128.615C118.401 127.116 128.825 129.748 137.134 135.933C145.442 142.119 150.953 151.35 152.456 161.599Z" fill="#EBEBEB"/>
<path d="M152.273 160.366C152.041 160.366 151.625 158.766 150.569 155.854C149.098 151.824 147.012 148.045 144.385 144.654C142.57 142.352 140.51 140.254 138.241 138.398C135.629 136.282 132.757 134.508 129.697 133.118C128.048 132.363 126.345 131.734 124.601 131.238C122.789 130.703 120.938 130.309 119.065 130.062C117.127 129.794 115.172 129.679 113.217 129.718C111.203 129.767 109.195 129.962 107.209 130.302C105.227 130.665 103.275 131.173 101.369 131.822C99.5188 132.457 97.7214 133.235 95.9927 134.15C94.3175 135.03 92.7127 136.039 91.1926 137.166C89.7277 138.234 88.3451 139.411 87.0567 140.686C84.6601 143.041 82.5764 145.695 80.8567 148.582C79.3659 151.109 78.1561 153.792 77.2487 156.582C75.9538 160.673 75.2981 164.939 75.3046 169.23C75.3046 172.294 75.4966 174.03 75.3046 174.03C75.1126 174.03 74.5047 172.43 74.1847 169.278C73.6983 164.827 74.0428 160.324 75.2007 155.998C76.9552 149.488 80.3611 143.541 85.0887 138.734C86.4438 137.333 87.907 136.041 89.4647 134.87C91.0791 133.632 92.7914 132.527 94.5847 131.566C96.4428 130.561 98.3767 129.702 100.369 128.998C104.485 127.557 108.808 126.793 113.169 126.734C115.28 126.706 117.391 126.845 119.481 127.15C123.427 127.731 127.264 128.898 130.865 130.614C136.948 133.502 142.183 137.911 146.065 143.414C148.67 147.073 150.569 151.186 151.665 155.542C152.425 158.582 152.441 160.334 152.273 160.366Z" fill="#E0E0E0"/>
<path d="M121.488 189.639L122.568 196.367L116.568 197.327L115.52 190.783C109.512 191.375 103.52 190.431 99.8002 188.383L101.928 180.527C105.759 182.383 110.008 183.21 114.256 182.927L112.656 172.895C105.736 172.343 97.9362 171.295 96.5602 162.727C95.5362 156.327 99.2882 150.159 108.6 147.527L107.536 140.863L113.544 139.895L114.584 146.447C119.152 146.087 123.72 146.583 127.384 148.151L125.568 156.023C122.468 154.84 119.164 154.288 115.848 154.399L117.448 164.607C124.368 165.103 132.048 166.151 133.4 174.615C134.4 180.855 130.736 186.991 121.488 189.639ZM111.24 164.039L109.872 155.511C106.808 156.743 105.824 158.711 106.144 160.671C106.464 162.631 108.464 163.647 111.24 164.063V164.039ZM123.888 176.839C123.544 174.735 121.624 173.879 118.896 173.391L120.224 181.671C123.12 180.575 124.192 178.799 123.888 176.879V176.839Z" fill="#EBEBEB"/>
<path d="M52.6009 108.462C48.8812 105.441 46.1415 101.384 44.7286 96.8045C43.3158 92.2253 43.2934 87.3299 44.6643 82.7379C46.0352 78.146 48.7376 74.0641 52.4296 71.0089C56.1216 67.9536 60.6371 66.0625 65.4044 65.5749C70.1717 65.0873 74.9765 66.0251 79.2105 68.2697C83.4446 70.5142 86.9174 73.9646 89.1895 78.1839C91.4616 82.4032 92.4307 87.2018 91.9742 91.9722C91.5177 96.7426 89.656 101.27 86.6249 104.982C84.62 107.446 82.1493 109.49 79.3541 110.998C76.5588 112.506 73.4937 113.449 70.334 113.772C67.1743 114.095 63.9818 113.793 60.9391 112.881C57.8964 111.97 55.063 110.469 52.6009 108.462Z" fill="#F5F5F5"/>
<path d="M56.2408 104C53.4069 101.697 51.32 98.6044 50.2444 95.1143C49.1688 91.6243 49.1528 87.8935 50.1984 84.3944C51.2441 80.8952 53.3044 77.785 56.1185 75.4572C58.9326 73.1295 62.374 71.6891 66.0072 71.3181C69.6404 70.9472 73.3019 71.6625 76.5284 73.3735C79.7548 75.0844 82.4012 77.7142 84.1324 80.9298C85.8636 84.1455 86.6019 87.8024 86.2537 91.4379C85.9056 95.0733 84.4868 98.5237 82.1768 101.352C80.6505 103.233 78.7678 104.794 76.6368 105.945C74.5058 107.097 72.1684 107.816 69.7587 108.062C67.349 108.308 64.9145 108.076 62.5948 107.379C60.275 106.682 58.1158 105.534 56.2408 104Z" fill="#EBEBEB"/>
<path d="M56.6883 104.367C56.7603 104.271 57.4403 104.727 58.7204 105.391C60.5196 106.323 62.4515 106.973 64.4483 107.319C67.3917 107.813 70.4108 107.588 73.2483 106.663C74.9066 106.109 76.4792 105.325 77.9204 104.335C78.6796 103.811 79.3965 103.228 80.0644 102.591C80.7504 101.932 81.3868 101.223 81.9683 100.471C82.5432 99.7095 83.0619 98.9074 83.5203 98.0709C83.9592 97.2588 84.3337 96.4135 84.6404 95.5429C84.9462 94.7046 85.1843 93.8432 85.3524 92.9669C85.5222 92.1283 85.6266 91.2777 85.6644 90.4229C85.7481 88.8406 85.6271 87.2541 85.3043 85.7029C85.0175 84.3439 84.5802 83.021 84.0003 81.7589C83.1464 79.9227 82.0159 78.2284 80.6483 76.7349C79.6723 75.6709 79.0484 75.1349 79.1284 75.0469C79.8479 75.3387 80.497 75.7805 81.0324 76.3429C82.6184 77.747 83.9288 79.4345 84.8964 81.3189C85.5753 82.6258 86.0963 84.0088 86.4483 85.4389C87.0651 87.9866 87.1441 90.6349 86.6803 93.2149C86.5102 94.1603 86.2668 95.0911 85.9524 95.9989C85.6275 96.942 85.2261 97.8571 84.7523 98.7349C84.2658 99.6382 83.7094 100.502 83.0883 101.319C82.4624 102.13 81.7751 102.893 81.0324 103.599C80.3052 104.281 79.527 104.907 78.7043 105.471C77.9113 106.011 77.0767 106.487 76.2084 106.895C75.3799 107.295 74.5213 107.629 73.6404 107.895C70.5986 108.832 67.3668 108.97 64.2563 108.295C62.186 107.861 60.2139 107.048 58.4404 105.895C57.2084 105.031 56.6403 104.431 56.6883 104.367Z" fill="#E0E0E0"/>
<path d="M58.0649 84.358L55.5449 82.398L57.3289 80.15L59.7849 82.094C61.4297 80.1452 63.5892 78.6982 66.0169 77.918L67.7849 81.326C65.8598 81.9066 64.1179 82.976 62.7289 84.43L66.4809 87.406C69.0729 85.39 72.0809 83.262 75.3289 85.806C77.7289 87.702 78.3849 91.054 75.9769 94.926L78.4729 96.91L76.6889 99.158L74.2409 97.214C72.8741 98.7507 71.1637 99.9431 69.2489 100.694L67.3689 97.374C68.8225 96.801 70.1491 95.9474 71.2729 94.862L67.4489 91.83C64.8809 93.862 61.8489 95.942 58.7049 93.43C56.3609 91.542 55.6969 88.23 58.0649 84.358ZM69.7929 89.958L72.9929 92.494C73.6649 91.086 73.3849 90.094 72.6489 89.51C71.9129 88.926 70.8889 89.254 69.7929 89.99V89.958ZM61.3049 89.598C62.1049 90.222 63.0329 89.91 64.1369 89.206L61.0329 86.75C60.3929 88.038 60.5849 88.998 61.3049 89.598Z" fill="#EBEBEB"/>
<path d="M549.176 358.673C549.176 358.785 435.816 358.881 296.016 358.881C156.216 358.881 42.8242 358.785 42.8242 358.673C42.8242 358.561 156.16 358.465 296.016 358.465C435.872 358.465 549.176 358.561 549.176 358.673Z" fill="#263238"/>
<path d="M69.2878 337.121C69.3264 336.993 69.3773 336.87 69.4398 336.753C69.5598 336.489 69.7278 336.145 69.9358 335.697C70.5361 334.331 71.0231 332.918 71.3918 331.473C72.3518 327.713 72.6878 321.977 71.2638 315.153C70.4951 311.437 69.485 307.776 68.2398 304.193C66.9598 300.305 65.4718 296.193 64.2398 291.713C62.8665 287.057 62.203 282.222 62.2718 277.369C62.4558 272.289 63.9598 267.225 65.6078 262.169C67.2558 257.113 68.9678 252.177 69.4718 247.209C70.0412 242.433 69.0834 237.599 66.7358 233.401C64.5438 229.401 61.7918 225.929 59.7358 222.353C57.813 219.043 56.3947 215.465 55.5278 211.737C54.287 206.333 54.1971 200.729 55.2638 195.289C55.6411 193.298 56.2146 191.35 56.9758 189.473C56.9604 189.607 56.9282 189.739 56.8798 189.865C56.7918 190.137 56.6798 190.505 56.5278 190.977C56.0937 192.407 55.7385 193.86 55.4638 195.329C54.4805 200.743 54.6249 206.301 55.8878 211.657C56.7698 215.34 58.1933 218.871 60.1118 222.137C62.1678 225.665 64.9118 229.097 67.1598 233.177C69.5771 237.458 70.5716 242.397 69.9998 247.281C69.4878 252.329 67.7678 257.297 66.1278 262.345C64.4878 267.393 62.9838 272.393 62.7998 277.385C62.727 282.187 63.3742 286.974 64.7198 291.585C65.9118 296.025 67.3838 300.153 68.6478 304.057C69.8824 307.662 70.8792 311.345 71.6318 315.081C73.0158 321.953 72.6158 327.753 71.5838 331.521C71.1942 332.972 70.6747 334.386 70.0318 335.745C69.7998 336.177 69.6238 336.545 69.4878 336.777C69.431 336.897 69.3641 337.012 69.2878 337.121Z" fill="#263238"/>
<path d="M62.5508 225.899C62.5508 225.899 58.3988 212.523 65.8708 204.691C65.9292 204.626 66.0044 204.58 66.0879 204.556C66.1713 204.533 66.2597 204.533 66.343 204.557C66.4263 204.582 66.5012 204.629 66.5591 204.693C66.617 204.758 66.6557 204.837 66.6708 204.923C67.0628 207.131 67.5668 213.859 62.5508 225.899Z" fill="#860808"/>
<path d="M65.0551 209.145C65.0461 209.976 64.9522 210.804 64.7751 211.617C64.4951 213.313 64.1751 215.313 63.8151 217.513C63.4551 219.713 63.1511 221.713 62.8791 223.409C62.8127 224.234 62.6653 225.052 62.4391 225.849C62.364 225.022 62.3882 224.189 62.5111 223.369C62.6551 221.841 62.9191 219.737 63.3111 217.425C63.7031 215.113 64.1111 213.041 64.4151 211.545C64.5393 210.723 64.754 209.919 65.0551 209.145Z" fill="#263238"/>
<path d="M67.4629 257.431C67.4629 257.431 70.0149 243.655 80.3109 240.239C80.3918 240.212 80.4787 240.207 80.562 240.226C80.6453 240.245 80.7218 240.287 80.783 240.346C80.8442 240.406 80.8878 240.481 80.9089 240.564C80.9301 240.647 80.928 240.734 80.9029 240.815C80.2229 242.959 77.5189 249.135 67.4629 257.431Z" fill="#860808"/>
<path d="M77.5028 243.801C77.1081 244.53 76.639 245.216 76.1028 245.849L72.5028 250.649L68.9188 255.449C68.4678 256.145 67.9536 256.799 67.3828 257.401C67.7038 256.633 68.1175 255.908 68.6148 255.241C69.4148 253.953 70.6708 252.217 72.0868 250.361C73.5028 248.505 74.8228 246.849 75.8148 245.681C76.3022 244.99 76.8687 244.359 77.5028 243.801Z" fill="#263238"/>
<path d="M64.6785 291.999C64.6785 291.999 63.1265 278.063 71.9985 271.807C72.0683 271.756 72.1508 271.726 72.2368 271.72C72.3227 271.714 72.4088 271.732 72.4852 271.771C72.5616 271.811 72.6254 271.872 72.6694 271.946C72.7135 272.02 72.736 272.105 72.7345 272.191C72.6865 274.399 71.8945 281.127 64.6785 291.999Z" fill="#860808"/>
<path d="M70.334 276C70.1634 276.823 69.9115 277.627 69.582 278.4L67.526 284L65.478 289.6C65.2483 290.396 64.9485 291.169 64.582 291.912C64.6623 291.092 64.8451 290.286 65.126 289.512C65.55 288.04 66.222 286.024 67.03 283.832C67.838 281.64 68.63 279.68 69.238 278.272C69.5117 277.474 69.8796 276.711 70.334 276Z" fill="#263238"/>
<path d="M72.4303 326.755C72.4303 326.755 71.3743 312.779 80.4303 306.851C80.5012 306.804 80.5836 306.777 80.6685 306.774C80.7534 306.77 80.8376 306.791 80.9119 306.832C80.9862 306.873 81.0477 306.934 81.0897 307.008C81.1318 307.082 81.1528 307.166 81.1503 307.251C81.0703 309.491 80.0383 316.155 72.4303 326.755Z" fill="#860808"/>
<path d="M78.6552 311C78.4664 311.806 78.1984 312.591 77.8552 313.344C77.1992 314.944 76.4392 316.808 75.5912 318.872L73.3512 324.408C73.092 325.193 72.7627 325.954 72.3672 326.68C72.484 325.858 72.6961 325.053 72.9992 324.28C73.4792 322.824 74.2152 320.832 75.1112 318.68C76.0072 316.528 76.8552 314.584 77.5112 313.2C77.8111 312.427 78.1947 311.689 78.6552 311Z" fill="#263238"/>
<path d="M56.5351 214.145C56.5351 214.145 44.1191 207.657 43.8791 196.801C43.8767 196.716 43.8977 196.632 43.9397 196.559C43.9818 196.485 44.0433 196.424 44.1176 196.383C44.1919 196.341 44.276 196.321 44.361 196.325C44.4459 196.328 44.5282 196.354 44.5991 196.401C46.4471 197.697 51.5591 202.089 56.5351 214.145Z" fill="#860808"/>
<path d="M46.4551 200.543C47.0341 201.137 47.5514 201.788 47.9991 202.487L51.5031 207.327L55.0151 212.127C55.5487 212.762 56.0227 213.445 56.4311 214.167C55.7919 213.636 55.2197 213.028 54.7271 212.359C53.7431 211.183 52.4471 209.503 51.0791 207.607C49.7111 205.711 48.5271 203.959 47.6951 202.671C47.2042 202.01 46.7883 201.296 46.4551 200.543Z" fill="#263238"/>
<path d="M69.8713 242.863C69.8713 242.863 57.0713 237.143 56.1833 226.335C56.1761 226.251 56.1923 226.166 56.2301 226.089C56.268 226.013 56.3259 225.949 56.3977 225.904C56.4695 225.858 56.5524 225.834 56.6373 225.832C56.7222 225.831 56.8059 225.852 56.8793 225.895C58.7993 227.055 64.1753 231.135 69.8713 242.863Z" fill="#860808"/>
<path d="M58.9824 229.898C59.5943 230.46 60.1514 231.079 60.6464 231.746L64.4304 236.362C65.8544 238.082 67.1424 239.642 68.2304 240.97C68.8056 241.569 69.3201 242.223 69.7664 242.922C69.1158 242.422 68.5228 241.85 67.9984 241.218C66.9424 240.098 65.5424 238.506 64.0704 236.698C62.5984 234.89 61.2944 233.21 60.3904 231.97C59.8434 231.336 59.371 230.641 58.9824 229.898Z" fill="#263238"/>
<path d="M62.5115 274.897C62.5115 274.897 53.7115 263.977 57.8555 253.953C57.889 253.879 57.9414 253.815 58.0076 253.767C58.0737 253.719 58.1513 253.69 58.2324 253.682C58.3135 253.674 58.3953 253.687 58.4696 253.721C58.5438 253.754 58.608 253.807 58.6555 253.873C59.8555 255.785 62.7835 261.857 62.5115 274.897Z" fill="#860808"/>
<path d="M58.7266 258.402C59.0158 259.18 59.2301 259.984 59.3666 260.802C59.7266 262.482 60.1666 264.458 60.6306 266.642C61.0946 268.826 61.5426 270.794 61.9186 272.474C62.1489 273.259 62.3095 274.062 62.3986 274.874C62.0388 274.128 61.7702 273.341 61.5986 272.53C61.1666 271.058 60.6466 269.002 60.1586 266.722C59.6706 264.442 59.2786 262.354 59.0386 260.842C58.8449 260.043 58.7403 259.225 58.7266 258.402Z" fill="#263238"/>
<path d="M71.1991 312.593C71.1991 312.593 58.5031 306.657 57.7831 295.841C57.7754 295.755 57.7921 295.668 57.8312 295.59C57.8704 295.513 57.9304 295.448 58.0046 295.403C58.0787 295.358 58.1639 295.335 58.2506 295.336C58.3373 295.337 58.422 295.362 58.4951 295.409C60.4071 296.601 65.7111 300.801 71.1991 312.593Z" fill="#860808"/>
<path d="M60.543 299.449C61.1383 300.017 61.6744 300.645 62.143 301.321L65.855 306.001L69.599 310.673C70.1584 311.283 70.6618 311.941 71.103 312.641C70.4378 312.143 69.8383 311.562 69.319 310.913C68.279 309.777 66.919 308.161 65.463 306.329C64.007 304.497 62.751 302.793 61.871 301.529C61.3544 300.886 60.9091 300.189 60.543 299.449Z" fill="#263238"/>
<path d="M96.4949 257.504C96.5067 257.608 96.5067 257.712 96.4949 257.816C96.4949 258.056 96.4949 258.352 96.4949 258.712C96.4949 259.552 96.4069 260.688 96.3429 262.112C96.1829 265.096 95.9509 269.256 95.6789 274.24C94.7749 279.304 92.1909 284.928 88.7189 290.384C86.1749 294.384 83.5109 298.056 81.2069 301.456C79.1259 304.423 77.2547 307.532 75.6069 310.76C74.5149 312.95 73.631 315.237 72.9669 317.592C72.7429 318.432 72.5749 319.08 72.4789 319.528C72.4405 319.758 72.3789 319.983 72.2949 320.2C72.2983 319.966 72.3251 319.733 72.3749 319.504C72.4389 319.056 72.5749 318.392 72.7749 317.544C73.3651 315.149 74.2015 312.822 75.2709 310.6C76.9025 307.327 78.7743 304.18 80.8709 301.184C83.1589 297.76 85.8069 294.104 88.3429 290.104C91.7909 284.672 94.3589 279.144 95.3029 274.152C95.6549 269.176 95.9429 265.016 96.1589 262.032C96.2709 260.624 96.3589 259.488 96.4309 258.648C96.4309 258.288 96.4949 258 96.5189 257.752C96.5429 257.504 96.4789 257.504 96.4949 257.504Z" fill="#263238"/>
<path d="M88.9342 289.368C88.9342 289.368 94.3102 276.432 87.5502 267.952C87.4967 267.888 87.4269 267.839 87.3481 267.812C87.2693 267.784 87.1845 267.778 87.1026 267.794C87.0206 267.811 86.9446 267.849 86.8826 267.905C86.8206 267.961 86.7748 268.032 86.7502 268.112C86.1422 270.272 85.0302 276.928 88.9342 289.368Z" fill="#860808"/>
<path d="M87.9996 272.465C88.2295 273.263 88.3717 274.084 88.4236 274.913C88.6156 276.433 88.8316 278.545 88.9916 280.873C89.1516 283.201 89.2396 285.321 89.2396 286.857C89.2941 287.687 89.2431 288.52 89.0876 289.337C88.9417 288.521 88.8694 287.694 88.8715 286.865C88.7515 285.153 88.6235 283.137 88.4715 280.913C88.3195 278.689 88.1756 276.665 88.0556 274.953C87.9522 274.128 87.9335 273.294 87.9996 272.465Z" fill="#263238"/>
<g opacity="0.3">
<path d="M88.9342 289.368C88.9342 289.368 94.3102 276.432 87.5502 267.952C87.4967 267.888 87.4269 267.839 87.3481 267.812C87.2693 267.784 87.1845 267.778 87.1026 267.794C87.0206 267.811 86.9446 267.849 86.8826 267.905C86.8206 267.961 86.7748 268.032 86.7502 268.112C86.1422 270.272 85.0302 276.928 88.9342 289.368Z" fill="black"/>
</g>
<path d="M72.2871 320.551C72.2871 320.551 76.5991 307.215 69.1671 299.319C69.1108 299.252 69.0362 299.202 68.9525 299.177C68.8687 299.151 68.7793 299.15 68.6949 299.173C68.6105 299.197 68.5347 299.244 68.4765 299.31C68.4184 299.375 68.3804 299.456 68.3671 299.543C67.9511 301.743 67.3831 308.463 72.2871 320.551Z" fill="#860808"/>
<path d="M69.9434 303.785C70.2417 304.559 70.451 305.364 70.5674 306.185C70.8794 307.689 71.2634 309.769 71.6154 312.081C71.9674 314.393 72.2234 316.497 72.3434 318.025C72.4615 318.849 72.4803 319.685 72.3994 320.513C72.1811 319.712 72.0392 318.893 71.9754 318.065C71.7274 316.361 71.4234 314.369 71.0954 312.161C70.7674 309.953 70.4554 307.953 70.1994 306.249C70.0315 305.438 69.9457 304.613 69.9434 303.785Z" fill="#263238"/>
<g opacity="0.3">
<path d="M72.2871 320.551C72.2871 320.551 76.5991 307.215 69.1671 299.319C69.1108 299.252 69.0362 299.202 68.9525 299.177C68.8687 299.151 68.7793 299.15 68.6949 299.173C68.6105 299.197 68.5347 299.244 68.4765 299.31C68.4184 299.375 68.3804 299.456 68.3671 299.543C67.9511 301.743 67.3831 308.463 72.2871 320.551Z" fill="black"/>
</g>
<path d="M95.7832 273.6C95.7832 273.6 107.263 265.56 106.103 254.784C106.1 254.693 106.07 254.604 106.017 254.53C105.964 254.456 105.89 254.399 105.804 254.366C105.719 254.334 105.626 254.327 105.537 254.348C105.447 254.368 105.366 254.414 105.303 254.48C103.663 255.944 99.1992 260.96 95.7832 273.6Z" fill="#860808"/>
<g opacity="0.3">
<path d="M95.7832 273.596C95.7832 273.596 107.263 265.556 106.103 254.78C106.1 254.689 106.07 254.601 106.017 254.526C105.964 254.452 105.89 254.395 105.804 254.362C105.719 254.33 105.626 254.323 105.537 254.344C105.447 254.364 105.366 254.41 105.303 254.476C103.663 255.94 99.1992 260.956 95.7832 273.596Z" fill="black"/>
</g>
<path d="M103.999 258.77C103.769 259.568 103.45 260.338 103.047 261.066C102.391 262.45 101.447 264.338 100.335 266.394C99.2231 268.45 98.1511 270.282 97.3271 271.578C96.9258 272.306 96.4368 272.983 95.8711 273.594C96.1835 272.828 96.5637 272.092 97.0071 271.394L99.8711 266.146L102.719 260.898C103.072 260.146 103.501 259.433 103.999 258.77Z" fill="#263238"/>
<path d="M76.918 307.337C76.918 307.337 90.758 305.177 94.47 294.985C94.4997 294.904 94.5066 294.817 94.4901 294.734C94.4735 294.65 94.4341 294.572 94.3761 294.509C94.3182 294.446 94.244 294.4 94.1617 294.377C94.0795 294.354 93.9923 294.353 93.91 294.376C91.75 294.992 85.494 297.513 76.918 307.337Z" fill="#860808"/>
<g opacity="0.3">
<path d="M76.918 307.337C76.918 307.337 90.758 305.177 94.47 294.985C94.4997 294.904 94.5066 294.817 94.4901 294.734C94.4735 294.65 94.4341 294.572 94.3761 294.509C94.3182 294.446 94.244 294.4 94.1617 294.377C94.0795 294.354 93.9923 294.353 93.91 294.376C91.75 294.992 85.494 297.513 76.918 307.337Z" fill="black"/>
</g>
<path d="M90.8322 297.688C90.2692 298.297 89.6446 298.847 88.9682 299.328C87.7682 300.28 86.0802 301.56 84.1682 302.92C82.2562 304.28 80.5042 305.448 79.1922 306.248C78.5089 306.725 77.7702 307.117 76.9922 307.416C77.6112 306.861 78.2808 306.365 78.9922 305.936L83.8642 302.487L88.7362 299.032C89.3846 298.51 90.0873 298.059 90.8322 297.688Z" fill="#263238"/>
<path d="M60.5352 332.809L64.5112 358.857L80.3672 358.833L85.7112 332.809H60.5352Z" fill="#455A64"/>
<path d="M83.3836 342.856C83.3836 342.856 83.3836 342.896 83.2476 342.952C83.1153 343.043 82.9762 343.123 82.8316 343.192C82.2738 343.461 81.6771 343.639 81.0636 343.72C80.0822 343.853 79.0836 343.76 78.1436 343.448C76.8793 343.047 75.779 342.247 75.0076 341.168C74.5746 340.521 74.3206 339.77 74.2716 338.992C74.2298 338.556 74.3084 338.116 74.4988 337.722C74.6892 337.327 74.9841 336.992 75.3516 336.752C75.7717 336.542 76.2415 336.451 76.7098 336.489C77.1781 336.527 77.627 336.693 78.0076 336.968C78.7965 337.55 79.3388 338.406 79.5276 339.368C79.7349 340.335 79.8023 341.327 79.7276 342.312C79.6683 343.343 79.4497 344.357 79.0796 345.32C78.6923 346.334 78.0602 347.235 77.2396 347.944C76.3936 348.696 75.3209 349.144 74.1916 349.216C73.0559 349.244 71.939 348.923 70.9916 348.296C70.0772 347.724 69.2659 347.002 68.5916 346.16C67.9122 345.348 67.494 344.35 67.3916 343.296C67.3507 342.78 67.4315 342.262 67.6274 341.782C67.8233 341.303 68.1289 340.876 68.5196 340.536C68.9197 340.236 69.3991 340.06 69.8983 340.031C70.3975 340.001 70.8945 340.118 71.3276 340.368C71.7391 340.575 72.0975 340.874 72.375 341.242C72.6524 341.609 72.8415 342.036 72.9276 342.488C73.0462 343.297 72.918 344.123 72.5598 344.858C72.2015 345.594 71.6299 346.203 70.9196 346.608C69.7525 347.246 68.3952 347.442 67.0956 347.16C66.1314 346.967 65.2082 346.607 64.3676 346.096C63.8371 345.785 63.3267 345.44 62.8396 345.064C62.6627 344.943 62.4991 344.804 62.3516 344.648C62.5396 344.748 62.7189 344.863 62.8876 344.992C63.2396 345.224 63.7516 345.568 64.4876 345.952C65.3339 346.418 66.2496 346.745 67.1996 346.92C68.4413 347.157 69.7266 346.95 70.8316 346.336C71.4739 345.956 71.9887 345.393 72.3106 344.719C72.6325 344.045 72.747 343.291 72.6396 342.552C72.5585 342.153 72.3864 341.778 72.1366 341.456C71.8869 341.134 71.5662 340.874 71.1996 340.696C70.8293 340.483 70.4046 340.383 69.978 340.408C69.5514 340.434 69.1416 340.584 68.7996 340.84C68.4665 341.14 68.2068 341.513 68.0404 341.929C67.8739 342.345 67.8052 342.794 67.8396 343.24C67.9383 344.208 68.3289 345.123 68.9596 345.864C69.596 346.663 70.3612 347.35 71.2236 347.896C72.0898 348.491 73.117 348.806 74.1676 348.8C75.2011 348.727 76.182 348.317 76.9596 347.632C77.7281 346.968 78.3215 346.124 78.6876 345.176C79.0444 344.258 79.2549 343.288 79.3116 342.304C79.3873 341.359 79.328 340.409 79.1356 339.48C78.9759 338.615 78.496 337.841 77.7916 337.312C77.47 337.073 77.0895 336.926 76.6906 336.886C76.2918 336.847 75.8897 336.917 75.5276 337.088C75.2142 337.293 74.9628 337.579 74.8006 337.916C74.6385 338.253 74.5717 338.628 74.6076 339C74.6456 339.721 74.8718 340.419 75.2636 341.024C75.9883 342.06 77.0256 342.837 78.2236 343.24C79.1253 343.562 80.0876 343.676 81.0396 343.576C81.8558 343.47 82.6482 343.226 83.3836 342.856Z" fill="#263238"/>
<path d="M511.999 277.539C517.233 272.302 523.739 268.516 530.877 266.553C538.016 264.589 545.543 264.515 552.719 266.339C540.575 274.612 526.245 279.09 511.551 279.203" fill="#860808"/>
<path d="M525.838 228.634C524.142 216.634 528.806 203.138 537.79 194.418C538.086 206.306 533.062 219.69 525.838 228.634Z" fill="#860808"/>
<path d="M518.655 251.295C525.152 238.983 535.48 229.121 548.079 223.199C546.112 230.108 542.338 236.368 537.146 241.334C531.955 246.299 525.533 249.79 518.543 251.447" fill="#860808"/>
<path d="M517.168 255.673C524.416 255.873 531.752 255.625 538.768 253.769C545.784 251.913 552.488 248.345 557.168 242.801C542.972 242.845 529.105 247.078 517.304 254.969" fill="#860808"/>
<path d="M520.846 241.263C517.166 227.479 511.102 217.943 500.262 210.215C499.43 216.994 501.047 223.847 504.821 229.54C508.595 235.232 514.278 239.39 520.846 241.263Z" fill="#860808"/>
<path d="M493.495 265.041C493.468 261.02 494.631 257.082 496.835 253.72C499.04 250.358 502.189 247.723 505.887 246.145C505.287 253.265 499.695 261.497 493.495 265.041Z" fill="#860808"/>
<path d="M490.031 253.416C489.528 247.645 487.385 242.137 483.856 237.542C480.327 232.947 475.558 229.456 470.111 227.48C472.615 239 479.271 248.592 490.031 253.416Z" fill="#860808"/>
<path d="M495.246 274.048C492.694 270.392 488.518 268.12 484.206 266.992C479.894 265.864 475.406 265.76 470.918 265.664C473.959 268.965 477.679 271.567 481.822 273.292C485.965 275.017 490.433 275.824 494.918 275.656" fill="#860808"/>
<path d="M500.423 303.432C492.29 300.925 483.512 301.556 475.821 305.2C468.129 308.845 462.082 315.238 458.871 323.12C473.967 320.256 488.863 313.52 500.423 303.432Z" fill="#860808"/>
<path d="M516.992 293.227C514.488 300.635 514.968 309.595 520.544 315.987C521.653 312.164 521.91 308.145 521.296 304.212C520.682 300.279 519.213 296.529 516.992 293.227Z" fill="#860808"/>
<path d="M526.783 289.105C527.188 293.882 528.819 298.474 531.516 302.437C534.214 306.4 537.888 309.601 542.183 311.729C542.382 311.859 542.605 311.947 542.84 311.985C543.074 312.024 543.313 312.013 543.543 311.953C544.223 311.681 544.287 310.753 544.207 310.025C543.111 300.529 536.079 291.345 526.783 289.105Z" fill="#860808"/>
<path d="M533.184 288.147C535.31 290.446 537.887 292.284 540.753 293.546C543.62 294.807 546.715 295.467 549.847 295.482C552.979 295.498 556.081 294.87 558.96 293.637C561.839 292.404 564.434 290.593 566.584 288.315C555.968 287.155 543.712 286.379 533.184 288.147Z" fill="#860808"/>
<path d="M534.766 203.258C534.747 203.365 534.715 203.47 534.67 203.57L534.35 204.466C534.046 205.266 533.614 206.434 533.07 207.906C532.526 209.378 531.838 211.226 531.07 213.362C530.686 214.426 530.27 215.562 529.838 216.77L528.518 220.61C526.638 225.986 524.518 232.442 522.294 239.626C520.07 246.81 517.75 254.77 515.462 263.154C513.174 271.538 511.206 279.586 509.502 286.922C507.798 294.258 506.422 300.898 505.398 306.506C505.134 307.906 504.878 309.234 504.646 310.506C504.414 311.778 504.23 312.962 504.038 314.074C503.654 316.306 503.326 318.226 503.102 319.802C502.878 321.378 502.678 322.578 502.542 323.434C502.478 323.826 502.43 324.138 502.39 324.37C502.35 324.602 502.326 324.69 502.326 324.69C502.316 324.583 502.316 324.476 502.326 324.37C502.326 324.138 502.39 323.818 502.438 323.418C502.55 322.57 502.718 321.346 502.918 319.778C503.118 318.21 503.422 316.274 503.79 314.042C503.966 312.922 504.158 311.73 504.366 310.458C504.574 309.186 504.838 307.858 505.094 306.458C506.086 300.858 507.494 294.202 509.094 286.85C510.694 279.498 512.774 271.458 515.03 263.058C517.286 254.658 519.662 246.714 521.894 239.522C524.126 232.33 526.286 225.922 528.206 220.522L529.558 216.69C530.006 215.49 530.422 214.354 530.822 213.29C531.622 211.162 532.286 209.338 532.878 207.858C533.47 206.378 533.91 205.25 534.23 204.45L534.59 203.562C534.718 203.362 534.758 203.258 534.766 203.258Z" fill="#263238"/>
<path d="M476.447 233.602C476.447 233.602 476.511 233.658 476.631 233.77L477.135 234.306C477.583 234.778 478.223 235.49 479.023 236.418C481.303 239.062 483.393 241.864 485.279 244.802C488.092 249.14 490.291 253.845 491.815 258.786C493.567 264.386 494.655 270.682 495.735 277.298C497.895 290.538 500.535 302.394 502.463 310.97C503.423 315.242 504.207 318.698 504.759 321.122C505.023 322.306 505.223 323.234 505.375 323.89C505.431 324.186 505.487 324.426 505.519 324.61C505.542 324.691 505.555 324.774 505.559 324.858C505.525 324.78 505.498 324.7 505.479 324.618C505.431 324.434 505.367 324.202 505.295 323.906C505.127 323.25 504.895 322.306 504.607 321.162C504.023 318.762 503.199 315.29 502.207 311.034C500.215 302.474 497.519 290.618 495.359 277.362C494.279 270.746 493.199 264.442 491.479 258.898C489.992 253.98 487.838 249.288 485.079 244.954C483.222 242.028 481.175 239.227 478.951 236.57C478.151 235.618 477.551 234.898 477.127 234.41L476.647 233.85C476.571 233.775 476.504 233.692 476.447 233.602Z" fill="#263238"/>
<path d="M536.35 287.688C536.227 287.732 536.097 287.757 535.966 287.76L534.87 287.88L534.07 287.96L533.126 288.104C532.454 288.2 531.686 288.304 530.846 288.488L529.534 288.752L528.118 289.104C527.134 289.328 526.118 289.688 525.038 290.016C522.721 290.818 520.474 291.808 518.318 292.976C516.176 294.174 514.156 295.578 512.286 297.168C511.474 297.862 510.702 298.602 509.974 299.384C509.326 300.054 508.714 300.759 508.142 301.496C507.659 302.094 507.208 302.716 506.79 303.36C506.448 303.832 506.138 304.327 505.862 304.84L505.294 305.792C505.237 305.908 505.164 306.016 505.078 306.112C505.109 305.986 505.157 305.865 505.222 305.752L505.726 304.76C505.976 304.231 506.268 303.723 506.598 303.24C507 302.575 507.441 301.934 507.918 301.32C508.476 300.561 509.08 299.837 509.726 299.152C510.455 298.353 511.227 297.595 512.038 296.88C513.917 295.262 515.954 293.836 518.118 292.624C520.296 291.443 522.571 290.45 524.918 289.656C526.014 289.336 527.038 288.992 528.038 288.776L529.462 288.44L530.798 288.2C531.646 288.032 532.398 287.952 533.102 287.88L534.046 287.768H534.846L535.958 287.72C536.087 287.695 536.219 287.684 536.35 287.688Z" fill="#263238"/>
<path d="M539.374 233.887C539.13 234.155 538.862 234.402 538.574 234.623L536.39 236.519C534.534 238.119 531.95 240.271 529.086 242.655C526.222 245.039 523.598 247.167 521.694 248.703L519.43 250.495C519.163 250.727 518.873 250.933 518.566 251.111C518.806 250.837 519.074 250.591 519.366 250.375L521.558 248.479C523.414 246.879 525.998 244.719 528.862 242.343C531.726 239.967 534.342 237.831 536.246 236.295L538.518 234.503C538.782 234.269 539.069 234.062 539.374 233.887Z" fill="#263238"/>
<path d="M541.983 247.927C541.983 248.039 536.439 249.783 529.535 251.823C522.631 253.863 516.999 255.431 516.967 255.319C516.935 255.207 522.511 253.471 529.423 251.431C536.335 249.391 541.951 247.823 541.983 247.927Z" fill="#263238"/>
<path d="M521.4 242.337C521.181 242.091 520.988 241.823 520.824 241.537L519.352 239.297C518.112 237.417 516.336 234.841 514.248 232.097C512.16 229.353 510.136 226.969 508.648 225.265C507.944 224.465 507.352 223.793 506.888 223.249C506.649 223.008 506.439 222.74 506.264 222.449C506.532 222.643 506.779 222.866 507 223.113C507.456 223.553 508.088 224.217 508.864 225.041C510.408 226.705 512.464 229.041 514.568 231.817C516.672 234.593 518.408 237.177 519.6 239.105C520.192 240.073 520.656 240.865 520.96 241.417C521.138 241.708 521.285 242.016 521.4 242.337Z" fill="#263238"/>
<path d="M502.04 250.137C501.649 250.881 501.211 251.6 500.728 252.289C499.928 253.593 498.768 255.417 497.6 257.473C496.432 259.529 495.44 261.473 494.744 262.817C494.413 263.583 494.03 264.326 493.6 265.041C493.833 264.23 494.141 263.442 494.52 262.689C495.16 261.273 496.12 259.337 497.288 257.273C498.456 255.209 499.632 253.401 500.536 252.129C500.975 251.42 501.478 250.753 502.04 250.137Z" fill="#263238"/>
<path d="M495.415 274.402C494.451 274.033 493.506 273.617 492.583 273.154C490.839 272.354 488.407 271.346 485.663 270.386C482.919 269.426 480.375 268.706 478.527 268.234C477.517 268.018 476.518 267.751 475.535 267.434C475.804 267.434 476.072 267.463 476.335 267.522C476.871 267.602 477.631 267.746 478.567 267.946C483.453 269.021 488.191 270.681 492.679 272.89C493.535 273.314 494.223 273.69 494.687 273.946C494.947 274.068 495.192 274.221 495.415 274.402Z" fill="#263238"/>
<path d="M500.632 303.48C500.524 303.537 500.408 303.574 500.288 303.592L499.28 303.848L495.576 304.704C491.487 305.565 487.444 306.633 483.464 307.904C479.504 309.228 475.713 311.011 472.168 313.216C470.816 314.072 469.768 314.816 469.048 315.376C468.692 315.666 468.317 315.934 467.928 316.176C468.001 316.08 468.084 315.992 468.176 315.912C468.352 315.752 468.6 315.512 468.976 315.224C469.952 314.406 470.972 313.643 472.032 312.936C475.559 310.648 479.363 308.817 483.352 307.488C487.345 306.205 491.414 305.171 495.536 304.392L499.272 303.664C499.72 303.57 500.174 303.508 500.632 303.48Z" fill="#263238"/>
<path d="M519.488 310.641C519.376 310.641 518.688 306.745 518.008 301.905C517.328 297.065 516.816 293.105 516.928 293.105C517.04 293.105 517.728 297.001 518.408 301.841C519.088 306.681 519.6 310.625 519.488 310.641Z" fill="#263238"/>
<path d="M539.118 303.512C538.485 302.849 537.894 302.146 537.35 301.408C536.286 300.088 534.822 298.264 533.158 296.288C531.494 294.312 529.958 292.552 528.838 291.28C528.202 290.617 527.611 289.911 527.07 289.168C527.279 289.304 527.467 289.468 527.63 289.656C527.974 289.984 528.43 290.456 529.046 291.08C530.222 292.304 531.798 294.048 533.47 296.032C535.142 298.016 536.574 299.864 537.582 301.232C538.078 301.92 538.478 302.48 538.742 302.832C538.903 303.037 539.03 303.267 539.118 303.512Z" fill="#263238"/>
<path d="M487.16 321.719V331.423H489.592L498.208 358.639H517.336L525.688 331.687L528.92 331.423V321.719H487.16Z" fill="#263238"/>
<path d="M527.304 331.688C527.304 331.8 518.864 331.896 508.448 331.896C498.032 331.896 489.592 331.8 489.592 331.688C489.592 331.576 498.032 331.488 508.448 331.488C518.864 331.488 527.304 331.576 527.304 331.688Z" fill="#455A64"/>
<path d="M541.062 269.289C540.661 269.43 540.249 269.54 539.83 269.617L536.478 270.417C533.646 271.121 529.766 272.185 525.55 273.617C521.334 275.049 517.598 276.537 514.918 277.689L511.758 279.073C511.379 279.262 510.986 279.42 510.582 279.545C510.932 279.309 511.301 279.102 511.686 278.929C512.414 278.553 513.478 278.033 514.806 277.425C521.737 274.266 528.976 271.829 536.406 270.153C537.83 269.841 538.99 269.609 539.79 269.473C540.207 269.37 540.633 269.309 541.062 269.289Z" fill="#263238"/>
<path d="M520.96 346.81C520.96 346.922 515.032 347.01 507.728 347.01C500.424 347.01 494.496 346.922 494.496 346.81C494.496 346.698 500.416 346.602 507.728 346.602C515.04 346.602 520.96 346.698 520.96 346.81Z" fill="#FAFAFA"/>
<path d="M521.704 344.555C521.704 344.667 515.424 344.763 507.68 344.763C499.936 344.763 493.656 344.667 493.656 344.555C493.656 344.443 499.936 344.355 507.68 344.355C515.424 344.355 521.704 344.443 521.704 344.555Z" fill="#FAFAFA"/>
<path d="M469.6 70.6133H143.8C142.46 70.6091 141.133 70.8695 139.895 71.3796C138.657 71.8897 137.531 72.6395 136.583 73.5858C135.636 74.5321 134.884 75.6563 134.372 76.8939C133.86 78.1315 133.598 79.458 133.6 80.7973V310.925C133.6 313.622 134.671 316.208 136.578 318.115C138.485 320.022 141.071 321.093 143.768 321.093H268.848C268.848 321.093 276.8 345.693 252.144 358.397H369.072C369.072 358.397 341.232 348.853 348.392 321.077H469.6C470.935 321.077 472.257 320.814 473.491 320.303C474.724 319.792 475.845 319.043 476.789 318.099C477.734 317.155 478.483 316.034 478.994 314.8C479.505 313.567 479.768 312.245 479.768 310.909V80.7973C479.77 79.4607 479.508 78.1368 478.998 76.9013C478.488 75.6658 477.74 74.543 476.795 73.5971C475.851 72.6512 474.729 71.9008 473.494 71.3889C472.26 70.8769 470.936 70.6133 469.6 70.6133Z" fill="#455A64"/>
<path d="M311.064 296.888C315.496 303.224 308.552 310.16 302.216 305.728C302.006 305.578 301.822 305.394 301.672 305.184C297.256 298.856 304.184 291.928 310.512 296.344C310.724 296.494 310.911 296.678 311.064 296.888Z" fill="#263238"/>
<path d="M146.735 74.8594H466.167C468.225 74.8594 470.198 75.6769 471.654 77.1322C473.109 78.5875 473.927 80.5613 473.927 82.6194V279.019H138.975V82.6194C138.975 80.5613 139.792 78.5875 141.247 77.1322C142.703 75.6769 144.677 74.8594 146.735 74.8594Z" fill="white"/>
<path d="M146.559 74.8282H467.911C469.507 74.8282 471.037 75.4621 472.165 76.5903C473.293 77.7185 473.927 79.2487 473.927 80.8442V91.7962H139.199V82.1562C139.198 81.1909 139.388 80.2349 139.758 79.3433C140.128 78.4516 140.67 77.6419 141.354 76.9608C142.039 76.2797 142.851 75.7407 143.744 75.3747C144.637 75.0087 145.594 74.823 146.559 74.8282Z" fill="#EBEBEB"/>
<path d="M152.257 83.6684C152.257 84.1336 152.119 84.5883 151.86 84.9751C151.602 85.3619 151.235 85.6634 150.805 85.8414C150.375 86.0194 149.902 86.066 149.446 85.9752C148.99 85.8845 148.571 85.6605 148.242 85.3315C147.913 85.0026 147.689 84.5835 147.598 84.1273C147.507 83.671 147.554 83.1981 147.732 82.7683C147.91 82.3386 148.211 81.9712 148.598 81.7128C148.985 81.4543 149.44 81.3164 149.905 81.3164C150.529 81.3164 151.127 81.5642 151.568 82.0053C152.009 82.4464 152.257 83.0446 152.257 83.6684Z" fill="#263238"/>
<path d="M159.272 83.6684C159.272 84.1336 159.134 84.5883 158.876 84.9751C158.618 85.3619 158.25 85.6634 157.82 85.8414C157.391 86.0194 156.918 86.066 156.462 85.9752C156.005 85.8845 155.586 85.6605 155.257 85.3315C154.928 85.0026 154.704 84.5835 154.614 84.1273C154.523 83.671 154.569 83.1981 154.747 82.7683C154.925 82.3386 155.227 81.9712 155.614 81.7128C156 81.4543 156.455 81.3164 156.92 81.3164C157.544 81.3164 158.142 81.5642 158.583 82.0053C159.025 82.4464 159.272 83.0446 159.272 83.6684Z" fill="#263238"/>
<path d="M165.944 83.6684C165.944 84.1336 165.806 84.5883 165.548 84.9751C165.289 85.3619 164.922 85.6634 164.492 85.8414C164.063 86.0194 163.59 86.066 163.133 85.9752C162.677 85.8845 162.258 85.6605 161.929 85.3315C161.6 85.0026 161.376 84.5835 161.285 84.1273C161.195 83.671 161.241 83.1981 161.419 82.7683C161.597 82.3386 161.899 81.9712 162.286 81.7128C162.672 81.4543 163.127 81.3164 163.592 81.3164C164.216 81.3164 164.814 81.5642 165.255 82.0053C165.696 82.4464 165.944 83.0446 165.944 83.6684Z" fill="#263238"/>
<path d="M411.368 321.126C411.368 321.23 364.967 321.318 307.823 321.318C250.679 321.318 204.271 321.23 204.271 321.126C204.271 321.022 250.623 320.926 307.823 320.926C365.023 320.926 411.368 321.014 411.368 321.126Z" fill="#263238"/>
<path d="M434.504 206.399C438.376 204.399 442.936 204.143 447.232 204.847C449.536 205.231 451.944 205.919 453.52 207.655C455.096 209.391 455.384 212.455 453.584 213.935C452.408 214.725 450.993 215.078 449.584 214.935C446.224 214.895 442.488 214.303 439.8 216.327C438.272 217.487 437.248 219.407 435.416 219.967C434.494 220.19 433.524 220.103 432.657 219.72C431.789 219.337 431.072 218.679 430.616 217.847C429.741 216.163 429.549 214.206 430.08 212.383C430.303 211.111 430.818 209.908 431.586 208.87C432.354 207.831 433.353 206.986 434.504 206.399Z" fill="#EBEBEB"/>
<path d="M425.639 189.247C428.039 192.631 432.607 191.511 434.735 189.447C436.863 187.383 437.775 184.391 438.591 181.543C440.471 175.031 442.359 168.191 440.991 161.543C440.655 159.532 439.772 157.653 438.439 156.111C437.763 155.352 436.9 154.784 435.935 154.463C434.971 154.142 433.94 154.078 432.943 154.279C430.623 154.895 429.175 157.167 428.143 159.327C425.079 165.707 423.472 172.689 423.439 179.767C423.439 183.063 423.815 186.511 425.671 189.231" fill="#EBEBEB"/>
<path d="M419.143 194.096C421.711 191.048 422.199 186.6 421.055 182.784C419.911 178.968 417.327 175.712 414.351 173.056C410.847 169.941 406.771 167.537 402.351 165.976C400.637 165.288 398.796 164.974 396.951 165.056C396.03 165.11 395.136 165.388 394.346 165.866C393.557 166.344 392.897 167.008 392.423 167.8C391.159 170.2 392.367 173.128 393.679 175.512C395.984 179.714 398.618 183.727 401.559 187.512C403.959 190.56 406.631 193.568 410.231 194.944C413.831 196.32 417.575 196.16 419.487 193.656" fill="#EBEBEB"/>
<path d="M425.48 240.231C425.611 239.729 425.683 239.214 425.696 238.695C425.808 237.583 425.944 236.175 426.104 234.503C426.309 232.44 426.624 230.389 427.048 228.359C427.596 225.884 428.342 223.458 429.28 221.103C430.201 218.751 431.447 216.54 432.984 214.535C434.239 212.905 435.84 211.574 437.672 210.639C438.914 210.025 440.245 209.612 441.616 209.415C442.132 209.396 442.644 209.32 443.144 209.191C442.625 209.139 442.103 209.139 441.584 209.191C440.161 209.303 438.769 209.666 437.472 210.263C435.545 211.173 433.855 212.518 432.536 214.191C430.931 216.22 429.637 218.477 428.696 220.887C427.745 223.278 427.001 225.745 426.472 228.263C426.079 230.32 425.812 232.398 425.672 234.487C425.536 236.271 425.488 237.687 425.464 238.703C425.416 239.212 425.421 239.724 425.48 240.231Z" fill="#E0E0E0"/>
<path d="M425.767 237.007C425.8 236.77 425.8 236.531 425.767 236.295V234.255C425.767 232.487 425.767 229.927 425.855 226.767C426.015 220.447 426.559 213.647 427.607 204.055C428.599 195.039 429.935 184.543 431.351 177.719C431.647 176.167 431.959 174.775 432.239 173.551C432.519 172.327 432.751 171.263 432.975 170.415C433.199 169.567 433.327 168.951 433.447 168.431C433.519 168.202 433.562 167.966 433.575 167.727C433.465 167.939 433.381 168.165 433.327 168.399C433.175 168.911 432.975 169.551 432.735 170.351C432.495 171.151 432.207 172.247 431.895 173.463C431.583 174.679 431.239 176.079 430.911 177.623C429.166 185.694 427.852 193.852 426.975 202.063C425.927 211.663 425.447 220.423 425.375 226.759C425.375 229.959 425.375 232.495 425.487 234.263C425.535 235.063 425.575 235.767 425.607 236.303C425.638 236.542 425.691 236.778 425.767 237.007Z" fill="#E0E0E0"/>
<path d="M425.816 220.135C425.867 219.424 425.867 218.71 425.816 217.999C425.736 216.631 425.544 214.655 425.16 212.231C424.695 209.398 424.07 206.593 423.288 203.831C422.369 200.431 421.193 197.107 419.768 193.887C417.333 187.951 413.839 182.508 409.456 177.823C408.704 177.021 407.903 176.268 407.056 175.567C406.688 175.247 406.352 174.935 406.024 174.687L405.08 174.039C404.511 173.612 403.912 173.227 403.288 172.887C403.184 173.031 405.824 174.583 409.16 178.127C413.396 182.852 416.799 188.262 419.224 194.127C420.603 197.336 421.766 200.634 422.704 203.999C423.511 206.736 424.179 209.513 424.704 212.319C425.144 214.719 425.4 216.671 425.552 218.031C425.583 218.738 425.671 219.442 425.816 220.135Z" fill="#E0E0E0"/>
<path d="M409.496 249.902L411.192 273.07H440.952L442.648 249.902H409.496Z" fill="#E0E0E0"/>
<path d="M446.199 240.766H406.623V249.902H446.199V240.766Z" fill="#E0E0E0"/>
<path d="M406.623 272.184V274.72H408.487H445.543V272.184H406.623Z" fill="#EBEBEB"/>
<path d="M410.304 279.171L408.488 274.715H444.128L442 279.171H410.304Z" fill="#E0E0E0"/>
<path d="M442.096 257.47C442.096 257.47 442.096 257.55 441.952 257.686C441.808 257.822 441.688 258.038 441.512 258.278L439.776 260.494L439.696 260.59L439.624 260.494L435.368 254.598H435.608L431.416 260.534L431.288 260.726L431.136 260.55L426.16 254.63H426.448L426.176 254.974L421.728 260.574L421.584 260.758L421.44 260.566L417.248 254.622H417.488L412.32 260.51L412.232 260.614L412.16 260.494L410.56 257.774L410.144 257.054C410.095 256.972 410.052 256.887 410.016 256.798C410.016 256.798 410.088 256.87 410.192 257.022L410.648 257.718C411.064 258.374 411.632 259.27 412.352 260.39H412.184L417.272 254.438L417.4 254.286L417.52 254.446C418.8 256.246 420.224 258.23 421.752 260.358H421.464L425.904 254.758L426.176 254.414L426.32 254.238L426.464 254.406L431.424 260.342H431.144L435.384 254.43L435.504 254.262L435.624 254.43L439.792 260.39H439.648L441.448 258.23L441.928 257.67C441.975 257.597 442.031 257.53 442.096 257.47Z" fill="#F5F5F5"/>
<path d="M443.064 249.75C443.064 249.854 435.6 249.934 426.408 249.934C417.216 249.934 409.744 249.854 409.744 249.75C409.744 249.646 417.2 249.598 426.4 249.598C435.6 249.598 443.064 249.646 443.064 249.75Z" fill="#F5F5F5"/>
<path d="M444.567 274.965C444.567 275.069 436.455 275.149 426.463 275.149C416.471 275.149 408.359 275.069 408.359 274.965C408.359 274.861 416.463 274.781 426.463 274.781C436.463 274.781 444.567 274.861 444.567 274.965Z" fill="#F5F5F5"/>
<path d="M350.112 145.081C349.264 130.883 347.875 116.729 345.944 102.617C344.784 94.1285 343.408 85.6005 340.48 77.5445C337.552 69.4885 332.952 61.8805 326.272 56.5605C319.592 51.2405 310.672 48.4485 302.4 50.2965L336.168 154.521C338.688 154.856 341.256 155.185 343.744 154.688C346.232 154.193 348.672 152.713 349.656 150.353C350.205 148.652 350.361 146.85 350.112 145.081Z" fill="#263238"/>
<path d="M291.384 53.8803C284.912 53.3763 277.064 55.8563 273.384 61.2403C270.528 65.4243 271.208 72.7203 270.184 77.7043C268.584 85.7043 267.032 93.7043 266.832 101.856C266.616 110.8 268.056 119.688 269.504 128.512C271.104 138.272 272.704 148.03 274.304 157.784C275.016 162.12 275.752 166.584 277.792 170.44C279.832 174.296 283.448 177.64 287.792 178.152C291.792 178.616 295.744 176.608 298.416 173.608C301.088 170.608 302.584 166.728 303.512 162.808L291.384 53.8803Z" fill="#263238"/>
<path d="M297.088 144.985C295.152 144.889 282.248 147.985 282.248 147.985L297.264 206.785L321.304 208.729L342.64 141.793L297.088 144.985Z" fill="#F1AC97"/>
<path d="M324.104 194.691C320.653 198.947 315.9 201.951 310.576 203.243C307.646 204.065 304.535 203.976 301.656 202.987C298.84 201.891 296.456 199.363 296.104 196.339L292 208.803L299.288 245.147L311.12 279.043L334.28 278.907L324.104 194.691Z" fill="#263238"/>
<path d="M231.616 201.9L241.96 189.396C241.96 189.396 251.952 156.78 254.952 154.34C257.952 151.9 285.352 145.02 285.352 145.02L295.12 187.156L300.088 239.012L309.2 259.604L318.144 278.972L286.744 279.06C286.744 279.06 273.944 250.156 267.16 233.348C264.958 227.886 263.585 222.127 263.088 216.26L262.752 212.26C262.752 212.26 242.328 259.516 237.512 262.556C232.696 265.596 226.688 270.172 220.064 269.892C213.44 269.612 199.824 249.932 199.824 249.932L199.752 223.644L219 215.596L222.336 222.868L231.616 201.9Z" fill="#860808"/>
<path d="M314.463 258.176L316.559 253.016L361.007 232.12L359.631 170.24L371.471 145.008C371.471 145.008 378.191 147.944 382.079 156.616C384.823 162.712 392.735 249.024 388.255 251.72C382.399 255.2 343.071 270.832 329.919 276C328.729 276.467 327.411 276.49 326.206 276.063C325.001 275.637 323.99 274.791 323.359 273.68L314.463 258.176Z" fill="#860808"/>
<path d="M366.28 251.432L371.312 144.8L346.256 140.184L339.056 134.992H333.36C333.36 134.992 335.456 140.416 335.176 144.888C334.896 149.36 314.256 229.24 314.256 229.24L325.976 278.952L378.96 278.792L366.28 251.432Z" fill="#860808"/>
<path d="M346.256 140.16V140.312C346.256 140.432 346.256 140.576 346.256 140.76C346.256 141.184 346.328 141.768 346.376 142.512C346.472 144.048 346.576 146.304 346.64 149.16C346.776 154.888 346.544 163.064 346.072 172.816V172.976H345.904L336.472 173.504L336.624 173.2C338.806 176.664 341.795 179.546 345.336 181.6L345.496 181.696L345.424 181.864L341.656 190.2C338.056 198.2 334.712 205.856 332.008 212.952C329.566 219.22 327.459 225.613 325.696 232.104C324.208 237.648 323.352 242.224 322.792 245.384C322.552 246.984 322.36 248.184 322.224 249.04C322.16 249.44 322.112 249.76 322.072 249.992C322.063 250.101 322.042 250.208 322.008 250.312C321.997 250.203 321.997 250.093 322.008 249.984C322.008 249.752 322.072 249.432 322.12 249.032C322.232 248.232 322.368 246.952 322.608 245.36C323.12 242.16 323.936 237.6 325.384 232.024C327.115 225.516 329.198 219.107 331.624 212.824C334.312 205.704 337.656 198.04 341.224 190.032L345 181.696L345.08 181.96C341.5 179.872 338.48 176.945 336.28 173.432L336.104 173.152H336.432L345.872 172.656L345.696 172.824C346.208 163.08 346.496 154.92 346.416 149.2C346.416 146.336 346.312 144.088 346.256 142.552C346.256 141.8 346.208 141.216 346.184 140.8V140.344C346.194 140.278 346.219 140.216 346.256 140.16Z" fill="#263238"/>
<path d="M316.8 272.688L316.456 272.528L315.456 272.032C314.576 271.616 313.328 270.896 311.728 269.944C310.928 269.432 310.08 268.88 309.16 268.232C308.24 267.584 307.24 266.856 306.24 266C303.914 264.118 301.736 262.058 299.728 259.84C294.497 254.057 290.214 247.482 287.04 240.36C283.212 231.625 280.541 222.427 279.096 213C278.04 206.648 277.424 200.424 276.992 194.504C276.776 191.56 276.648 188.592 277.424 185.84C278.2 183.088 279.92 180.648 282.424 179.584L282.376 179.888C281.428 179.081 280.292 178.525 279.072 178.274C277.853 178.022 276.59 178.082 275.4 178.448L275.176 178.528V178.288C275.472 169.096 275.712 161.488 275.88 156.24C275.976 153.624 276.056 151.568 276.104 150.144C276.104 149.464 276.16 148.928 276.176 148.544C276.192 148.16 276.216 147.992 276.216 147.992C276.216 147.992 276.216 148.184 276.216 148.544C276.216 148.904 276.216 149.456 276.216 150.144C276.216 151.56 276.136 153.616 276.08 156.24C275.944 161.528 275.752 169.096 275.52 178.288L275.296 178.12C276.542 177.73 277.866 177.661 279.146 177.919C280.426 178.178 281.619 178.756 282.616 179.6L282.832 179.792L282.568 179.912C280.168 180.92 278.528 183.304 277.768 185.936C277.008 188.568 277.152 191.536 277.368 194.472C277.808 200.384 278.424 206.592 279.488 212.928C280.922 222.322 283.571 231.489 287.368 240.2C290.513 247.295 294.748 253.854 299.92 259.64C301.909 261.854 304.062 263.916 306.36 265.808C307.352 266.672 308.36 267.408 309.248 268.056C310.136 268.704 311.032 269.272 311.792 269.8C313.392 270.768 314.6 271.512 315.472 271.952L316.448 272.48L316.8 272.688Z" fill="#263238"/>
<path d="M359.296 179.859C359.305 179.942 359.305 180.025 359.296 180.107C359.296 180.283 359.296 180.523 359.296 180.835C359.336 181.499 359.384 182.435 359.456 183.691C359.576 186.195 359.752 189.851 359.976 194.483C360.408 203.779 361.008 217.011 361.736 232.771V232.899L361.624 232.947L320.448 251.203L316.488 252.955L316.6 252.843C316.312 253.563 316.024 254.259 315.736 254.963V254.803C318.656 261.883 321.464 268.723 324.104 275.131L324.024 275.035C325.074 275.658 326.244 276.054 327.456 276.195C327.748 276.216 328.041 276.2 328.328 276.147C328.603 276.078 328.871 275.985 329.128 275.867L330.84 275.219L337.504 272.667L349.912 267.867C357.744 264.811 364.648 262.059 370.352 259.723C376.056 257.387 380.568 255.459 383.616 254.035C385.136 253.323 386.296 252.747 387.048 252.299C387.333 252.137 387.601 251.946 387.848 251.731C387.935 251.662 388.001 251.571 388.04 251.467C388.025 251.584 387.964 251.69 387.872 251.763C387.626 251.987 387.358 252.186 387.072 252.355C385.965 253.016 384.825 253.62 383.656 254.163C380.624 255.619 376.128 257.587 370.432 259.955C364.736 262.323 357.848 265.099 350.024 268.187L337.624 272.987L330.96 275.555L329.256 276.211C328.964 276.335 328.661 276.434 328.352 276.507C328.03 276.566 327.703 276.585 327.376 276.563C326.099 276.421 324.867 276.009 323.76 275.355H323.704V275.291C321.056 268.891 318.24 262.051 315.32 254.971V254.891V254.811C315.608 254.115 315.888 253.411 316.184 252.691V252.619L316.256 252.579L320.256 250.827L361.52 232.595L361.408 232.771C360.752 217.003 360.2 203.779 359.808 194.475C359.624 189.843 359.48 186.187 359.384 183.675C359.342 182.433 359.31 181.481 359.288 180.819C359.288 180.507 359.288 180.267 359.288 180.091L359.296 179.859Z" fill="#263238"/>
<path d="M370.472 148.043C370.528 148.091 369.584 149.163 368.264 151.035C366.546 153.479 365.092 156.099 363.928 158.851C362.776 161.607 361.926 164.48 361.392 167.419C360.976 169.675 360.872 171.099 360.8 171.091C360.767 170.756 360.767 170.418 360.8 170.083C360.85 169.172 360.947 168.264 361.088 167.363C362.003 161.378 364.376 155.71 368 150.859C368.542 150.128 369.121 149.426 369.736 148.755C369.957 148.494 370.204 148.255 370.472 148.043Z" fill="#263238"/>
<path d="M263.809 181.226C263.705 180.869 263.638 180.501 263.609 180.13C263.521 179.426 263.361 178.402 263.129 177.154C261.944 170.608 259.601 164.325 256.209 158.602C255.561 157.506 255.009 156.626 254.609 156.034C254.39 155.733 254.2 155.411 254.041 155.074C254.302 155.34 254.537 155.629 254.745 155.938C255.177 156.506 255.769 157.362 256.449 158.45C260.013 164.131 262.381 170.479 263.409 177.106C263.601 178.37 263.721 179.402 263.761 180.114C263.818 180.482 263.834 180.855 263.809 181.226Z" fill="#263238"/>
<path d="M306.952 203.78C306.741 202.748 306.669 201.694 306.736 200.644C306.659 199.597 306.726 198.544 306.936 197.516C307.213 199.594 307.213 201.701 306.936 203.78H306.952Z" fill="#754034"/>
<g opacity="0.3">
<path d="M342.08 174.776L349.12 175.72C347.608 171.848 347.824 150.92 346.6 146.832L345.952 172.8L336.52 173.304C336.52 173.304 340.576 178.752 342.472 179.896C343.435 180.451 344.358 181.074 345.232 181.76C345.232 181.76 331.888 212.96 329.808 218.336C325.384 229.784 322.168 249.04 322.168 249.04C333.232 229.84 339.656 207.624 345.456 186.176C346.021 184.537 346.238 182.799 346.096 181.072C345.704 178.576 343.848 176.592 342.08 174.776Z" fill="black"/>
</g>
<g opacity="0.3">
<path d="M275.407 178.311C275.279 178.695 275.511 169.511 275.567 169.319C275.623 169.127 274.367 180.335 274.143 180.999L278.007 180.151C277.047 180.628 276.198 181.302 275.516 182.129C274.834 182.956 274.333 183.918 274.047 184.951C273.49 187.036 273.271 189.197 273.399 191.351C273.655 207.423 277.143 223.927 285.783 237.447C280.135 223.999 278.399 209.263 277.031 194.719C276.767 191.863 276.543 189.015 277.343 186.255C278.143 183.495 279.975 180.559 282.487 179.623C280.551 178.023 277.831 177.223 275.407 178.311Z" fill="black"/>
</g>
<g opacity="0.3">
<path d="M325.121 275.809C326.137 277.961 329.841 277.809 332.425 277.521C334.993 277.12 337.499 276.392 339.881 275.353C350.633 271.209 361.033 267.481 371.785 263.353L370.289 260.113L328.801 276.249C328.193 276.449 327.548 276.513 326.912 276.437C326.277 276.361 325.665 276.147 325.121 275.809Z" fill="black"/>
</g>
<path d="M215.247 171.844C213.199 171.668 207.127 173.444 205.535 176.268L202.191 187.468C202.191 187.468 209.711 179.724 213.175 178.476C218.599 176.524 221.111 176.484 218.775 173.564C218.35 173.035 217.814 172.607 217.204 172.31C216.594 172.012 215.926 171.853 215.247 171.844Z" fill="#F1AC97"/>
<path d="M183.607 180.314L187.255 188.722L187.399 204.002L205.583 201.322L202.967 186.682L204.759 180.25L197.263 173.922L183.607 180.314Z" fill="#F1AC97"/>
<path d="M262.714 193.643L167.418 193.926L167.612 259.357L262.908 259.075L262.714 193.643Z" fill="#FAFAFA"/>
<path d="M262.888 259.089C262.888 259.089 262.888 258.681 262.888 257.897C262.888 257.113 262.888 255.945 262.888 254.433C262.888 251.401 262.848 246.953 262.808 241.265C262.76 229.889 262.68 213.553 262.584 193.665L262.752 193.833L167.464 194.145L167.672 193.937C167.728 217.297 167.792 239.489 167.84 259.369L167.648 259.177L236.32 259.073H262.952H262.504H261.184L256.008 259.113L236.448 259.217L167.648 259.513H167.464V259.321C167.4 239.441 167.328 217.249 167.256 193.889V193.681H167.472L262.76 193.449H262.928V193.617C262.928 213.545 262.968 229.913 262.976 241.321V254.457C262.976 255.953 262.976 257.097 262.976 257.881C262.976 258.665 262.888 259.089 262.888 259.089Z" fill="#263238"/>
<path d="M174.728 252.354C174.616 252.354 174.488 241.25 174.448 227.554C174.408 213.858 174.448 202.754 174.592 202.754C174.736 202.754 174.832 213.85 174.872 227.554C174.912 241.258 174.848 252.354 174.728 252.354Z" fill="#263238"/>
<path d="M257.417 245.279C257.417 245.399 238.833 245.543 215.905 245.607C192.977 245.671 174.393 245.607 174.393 245.519C174.393 245.431 192.977 245.255 215.905 245.191C238.833 245.127 257.417 245.167 257.417 245.279Z" fill="#EBEBEB"/>
<path d="M257.392 238.009C257.392 238.121 238.808 238.273 215.888 238.337C192.968 238.401 174.4 238.401 174.4 238.249C174.4 238.097 192.976 237.985 215.912 237.921C238.848 237.857 257.392 237.897 257.392 238.009Z" fill="#EBEBEB"/>
<path d="M257.368 230.737C257.368 230.849 238.784 231.001 215.864 231.065C192.944 231.129 174.352 231.065 174.352 230.977C174.352 230.889 192.936 230.713 215.864 230.649C238.792 230.585 257.368 230.617 257.368 230.737Z" fill="#EBEBEB"/>
<path d="M257.352 223.468C257.352 223.58 238.768 223.724 215.84 223.796C192.912 223.868 174.328 223.796 174.328 223.7C174.328 223.604 192.912 223.444 215.84 223.38C238.768 223.316 257.352 223.348 257.352 223.468Z" fill="#EBEBEB"/>
<path d="M257.329 216.189C257.329 216.309 238.744 216.453 215.825 216.517C192.905 216.581 174.312 216.517 174.312 216.429C174.312 216.341 192.889 216.173 215.825 216.101C238.76 216.029 257.329 216.077 257.329 216.189Z" fill="#EBEBEB"/>
<path d="M257.311 208.915C257.311 209.035 238.719 209.179 215.799 209.243C192.879 209.307 174.287 209.243 174.287 209.155C174.287 209.067 192.871 208.891 215.799 208.827C238.727 208.763 257.311 208.803 257.311 208.915Z" fill="#EBEBEB"/>
<path d="M257.287 201.642C257.287 201.754 238.703 201.906 215.783 201.97C192.863 202.034 174.271 201.97 174.271 201.882C174.271 201.794 192.847 201.618 215.775 201.554C238.703 201.49 257.287 201.53 257.287 201.642Z" fill="#EBEBEB"/>
<path d="M185.973 240.971L180.021 240.988L180.055 252.324L186.007 252.307L185.973 240.971Z" fill="#860808"/>
<path d="M229.163 240.874L223.211 240.891L223.243 252.227L229.195 252.21L229.163 240.874Z" fill="#860808"/>
<path d="M197.622 232.592L191.67 232.609L191.728 252.281L197.68 252.264L197.622 232.592Z" fill="#860808"/>
<path d="M219.382 227.452L213.43 227.469L213.499 252.261L219.451 252.244L219.382 227.452Z" fill="#860808"/>
<path d="M208.571 212.417L202.619 212.434L202.73 252.281L208.682 252.265L208.571 212.417Z" fill="#860808"/>
<path d="M240.639 219.706L234.688 219.723L234.778 252.203L240.73 252.186L240.639 219.706Z" fill="#860808"/>
<path d="M247.849 252.14C247.849 252.26 231.513 252.396 211.369 252.452C191.225 252.508 174.881 252.452 174.881 252.356C174.881 252.26 191.209 252.1 211.369 252.036C231.529 251.972 247.849 252.004 247.849 252.14Z" fill="#263238"/>
<path d="M209.695 198.859L207.847 202.771L205.631 198.867L205.463 160.059L209.527 160.051L209.695 198.859Z" fill="#263238"/>
<path d="M208 160.129C208 160.129 206.248 156.617 204.312 156.625C202.376 156.633 199.472 160.153 199.472 160.153C199.472 160.153 195.008 157.825 193.456 158.409C191.904 158.993 189.592 162.913 189.592 162.913C188.362 163.306 187.207 163.903 186.176 164.681C185.144 165.657 184.96 168.785 184.96 168.785C184.96 168.785 182.248 169.177 182.248 170.745C182.248 172.313 182.248 178.745 183.632 180.305C185.016 181.865 192.576 187.697 195.192 187.505C197.808 187.313 197.792 183.593 197.208 182.817C197.208 182.817 200.32 185.153 201.864 183.001C203.408 180.849 202.624 177.729 202.624 177.729C202.624 177.729 203.816 181.441 206.224 179.793C209.016 177.889 206.624 173.913 206.624 173.913C206.624 173.913 208.632 177.113 209.824 175.561C211.016 174.009 210.624 171.457 209.824 169.705C209.024 167.953 208 160.129 208 160.129Z" fill="#F1AC97"/>
<path d="M194.872 181.011C194.418 180.676 194.011 180.28 193.664 179.835C191.867 177.802 190.328 175.556 189.08 173.147C188.788 172.662 188.565 172.14 188.416 171.595C188.528 171.539 189.728 173.803 191.512 176.395C193.296 178.987 194.96 180.923 194.872 181.011Z" fill="#754034"/>
<path d="M202.632 177.408C201.114 175.693 199.7 173.887 198.4 172C196.981 170.187 195.672 168.291 194.48 166.32C196.006 168.044 197.428 169.858 198.736 171.752C200.146 173.559 201.447 175.448 202.632 177.408Z" fill="#754034"/>
<path d="M206.888 174.083C206.482 173.565 206.133 173.004 205.848 172.411L203.512 168.275L201.152 164.147C200.792 163.595 200.489 163.008 200.248 162.395C200.696 162.881 201.085 163.418 201.408 163.995C202.072 165.011 202.952 166.451 203.872 168.067C204.792 169.683 205.568 171.179 206.104 172.267C206.429 172.842 206.692 173.451 206.888 174.083Z" fill="#754034"/>
<path d="M202.216 177.336C202.216 177.336 202.288 177.392 202.384 177.528C202.531 177.724 202.649 177.939 202.736 178.168C203.017 178.902 203.091 179.699 202.95 180.472C202.809 181.245 202.458 181.965 201.936 182.552C201.425 183.128 200.729 183.507 199.968 183.624C199.118 183.7 198.265 183.527 197.512 183.128C196.696 182.725 195.97 182.161 195.376 181.472L195.664 181.192C196.56 181.933 197.203 182.933 197.504 184.056C197.623 184.632 197.582 185.23 197.384 185.784C197.185 186.338 196.789 186.799 196.272 187.08C195.287 187.49 194.188 187.53 193.176 187.192C191.501 186.759 189.914 186.036 188.488 185.056C187.529 184.401 186.654 183.633 185.88 182.768C185.616 182.456 185.416 182.208 185.288 182.032C185.16 181.856 185.104 181.76 185.12 181.752C186.173 182.907 187.357 183.935 188.648 184.816C190.064 185.737 191.624 186.416 193.264 186.824C194.185 187.123 195.183 187.086 196.08 186.72C196.502 186.454 196.829 186.059 197.012 185.595C197.194 185.13 197.224 184.619 197.096 184.136C196.809 183.101 196.214 182.178 195.392 181.488L195.68 181.208C196.832 182.52 198.456 183.416 199.92 183.264C200.606 183.176 201.238 182.847 201.704 182.336C202.119 181.894 202.428 181.363 202.608 180.784C202.874 179.949 202.874 179.051 202.608 178.216C202.4 177.6 202.184 177.36 202.216 177.336Z" fill="#754034"/>
<path d="M206.072 172.516C206.484 172.984 206.802 173.527 207.008 174.116C207.275 174.752 207.463 175.418 207.568 176.1C207.643 176.957 207.517 177.82 207.2 178.62C207.07 179.05 206.831 179.438 206.505 179.748C206.18 180.058 205.78 180.278 205.344 180.388C204.982 180.424 204.616 180.37 204.279 180.231C203.943 180.091 203.646 179.87 203.416 179.588C203.125 179.222 202.89 178.815 202.72 178.38C202.6 178.084 202.552 177.908 202.576 177.9C202.6 177.892 202.696 178.036 202.864 178.308C203.09 178.696 203.358 179.058 203.664 179.388C203.867 179.621 204.122 179.803 204.408 179.918C204.695 180.033 205.005 180.079 205.312 180.052C205.676 179.942 206.007 179.743 206.275 179.473C206.543 179.204 206.74 178.872 206.848 178.508C207.137 177.764 207.263 176.968 207.216 176.172C207.136 175.52 206.986 174.879 206.768 174.26C206.4 173.172 206.008 172.548 206.072 172.516Z" fill="#754034"/>
<path d="M200.856 186.715C199.811 187.567 198.68 188.307 197.48 188.923C196.355 189.662 195.153 190.279 193.896 190.763C194.946 189.92 196.077 189.183 197.272 188.563C198.402 187.827 199.602 187.208 200.856 186.715Z" fill="#754034"/>
<path d="M316.703 254.571L289.079 262.611L278.983 255.715C278.983 255.715 269.791 252.899 266.799 252.515C263.807 252.131 258.879 252.347 255.599 252.355C253.868 252.448 252.15 251.997 250.687 251.067C250.687 251.067 247.847 250.963 248.607 254.603C249.551 259.115 260.287 259.083 260.287 259.083L246.055 259.131H237.775L244.975 264.203C246.801 265.479 248.972 266.171 251.199 266.187H254.095C253.351 270.187 254.799 272.363 257.447 273.515C255.359 275.483 256.407 279.163 260.503 279.011C262.487 278.939 297.143 279.011 297.143 279.011L326.967 274.771L316.703 254.571Z" fill="#F1AC97"/>
<path d="M260.552 265.963C259.021 266.253 257.461 266.366 255.904 266.299C254.352 266.366 252.797 266.34 251.248 266.219C252.779 265.929 254.339 265.816 255.896 265.883C257.448 265.811 259.003 265.838 260.552 265.963Z" fill="#754034"/>
<path d="M268.88 257.387C267.041 257.866 265.169 258.208 263.28 258.411C261.431 258.757 259.559 258.963 257.68 259.027C259.519 258.551 261.391 258.209 263.28 258.003C265.129 257.661 267 257.455 268.88 257.387Z" fill="#754034"/>
<path d="M273.888 146.897C274.104 146.793 273.784 145.649 273.088 143.697C272.392 141.745 271.224 138.897 269.96 135.377C268.448 131.32 267.273 127.146 266.448 122.897C265.462 117.774 265.445 112.513 266.4 107.385C267.4 101.905 269.176 96.7527 270.624 91.9607C271.999 87.6779 272.995 83.2822 273.6 78.8247C274.015 75.7859 273.986 72.7028 273.512 69.6727C273.128 67.5447 272.632 66.4727 272.424 66.4727C271.896 66.5687 272.76 71.2007 271.24 78.4727C270.308 82.7212 269.098 86.9036 267.616 90.9927C266.016 95.6887 264.112 100.913 263.032 106.777C262.762 108.227 262.567 109.69 262.448 111.161C262.4 111.889 262.344 112.609 262.344 113.337C262.344 114.065 262.296 114.769 262.344 115.473C262.429 118.165 262.767 120.843 263.352 123.473C264.346 127.881 265.805 132.172 267.704 136.273C268.941 139.013 270.327 141.683 271.856 144.273C272.968 146.057 273.688 147.001 273.888 146.897Z" fill="#263238"/>
<path d="M328.6 80.41C328.365 76.7432 327.393 73.1614 325.741 69.8792C324.09 66.597 321.793 63.6817 318.988 61.308C316.183 58.9343 312.929 57.1509 309.419 56.0646C305.908 54.9784 302.215 54.6115 298.56 54.986C283.832 56.37 272.96 69.474 273.464 84.098C273.904 96.898 274.624 109.81 275.544 114.37C278.304 128.114 287.464 131.922 291.072 132.906C292.339 133.108 293.623 133.178 294.904 133.114C294.916 133.113 294.929 133.114 294.94 133.118C294.952 133.122 294.963 133.128 294.972 133.137C294.981 133.145 294.988 133.155 294.993 133.166C294.998 133.178 295 133.19 295 133.202L294.872 149.602C295.416 160.234 303 168.362 313.744 167.882C324.488 167.402 331.2 157.882 330.888 147.202L328.6 80.41Z" fill="#F1AC97"/>
<path d="M280.455 91.2502C280.472 91.8338 280.718 92.3871 281.141 92.7901C281.563 93.193 282.127 93.413 282.711 93.4022C282.998 93.414 283.284 93.3684 283.554 93.2681C283.823 93.1679 284.069 93.0149 284.279 92.8183C284.488 92.6216 284.656 92.3852 284.773 92.1228C284.89 91.8604 284.953 91.5774 284.959 91.2902C284.938 90.7081 284.691 90.1571 284.269 89.755C283.848 89.3529 283.286 89.1316 282.703 89.1382C282.416 89.1275 282.13 89.1739 281.862 89.2745C281.593 89.3752 281.347 89.5282 281.138 89.7247C280.929 89.9211 280.761 90.1571 280.644 90.419C280.526 90.6809 280.462 90.9634 280.455 91.2502Z" fill="#263238"/>
<path d="M277.384 87.2011C277.672 87.4811 279.328 86.1531 281.752 86.0491C284.176 85.9451 285.992 87.0731 286.248 86.7611C286.368 86.6251 286.064 86.1131 285.272 85.5931C284.19 84.9211 282.928 84.5972 281.656 84.6651C280.396 84.7154 279.183 85.1634 278.192 85.9451C277.472 86.5611 277.24 87.1051 277.384 87.2011Z" fill="#263238"/>
<path d="M303.615 91.024C303.636 91.6061 303.884 92.1571 304.305 92.5592C304.727 92.9612 305.289 93.1826 305.871 93.176C306.158 93.1856 306.443 93.1385 306.711 93.0374C306.98 92.9364 307.225 92.7833 307.434 92.5871C307.643 92.3908 307.811 92.1553 307.929 91.8939C308.046 91.6325 308.111 91.3505 308.119 91.064C308.1 90.4811 307.853 89.929 307.431 89.5265C307.01 89.1239 306.446 88.9033 305.863 88.912C305.576 88.9002 305.29 88.9458 305.021 89.0461C304.752 89.1463 304.505 89.2993 304.296 89.4959C304.086 89.6926 303.918 89.929 303.802 90.1914C303.685 90.4538 303.621 90.7368 303.615 91.024Z" fill="#263238"/>
<path d="M301.209 86.612C301.497 86.884 303.161 85.564 305.577 85.46C307.993 85.356 309.825 86.476 310.073 86.172C310.201 86.036 309.897 85.524 309.097 85.004C308.019 84.3292 306.758 84.005 305.489 84.076C304.229 84.1245 303.016 84.5697 302.025 85.348C301.297 85.948 301.065 86.484 301.209 86.612Z" fill="#263238"/>
<path d="M293.112 104.802C293.112 104.666 291.6 104.474 289.152 104.274C288.528 104.274 287.936 104.146 287.816 103.73C287.742 103.099 287.862 102.46 288.16 101.898C288.688 100.394 289.232 98.8104 289.808 97.1544C292.088 90.4104 293.712 84.8664 293.44 84.7784C293.168 84.6904 291.096 90.0744 288.8 96.8024C288.248 98.4664 287.728 100.058 287.2 101.602C286.849 102.352 286.77 103.201 286.976 104.002C287.074 104.217 287.221 104.405 287.404 104.554C287.587 104.702 287.802 104.806 288.032 104.858C288.379 104.93 288.733 104.962 289.088 104.954C291.584 104.97 293.112 104.914 293.112 104.802Z" fill="#263238"/>
<path d="M294.999 133.105C294.999 133.105 304.383 133.449 315.799 125.961C315.799 125.961 312.599 138.361 294.959 137.529L294.999 133.105Z" fill="#754034"/>
<path d="M300.304 106.122C299.912 106.122 300.008 108.714 297.832 110.666C295.656 112.618 292.84 112.45 292.832 112.818C292.832 112.978 293.48 113.29 294.664 113.274C296.205 113.225 297.681 112.642 298.84 111.626C299.944 110.651 300.627 109.286 300.744 107.818C300.8 106.73 300.488 106.098 300.304 106.122Z" fill="#263238"/>
<path d="M299.951 82.458C300.215 83.098 302.623 82.682 305.479 82.898C308.335 83.114 310.663 83.77 311.015 83.17C311.175 82.882 310.751 82.29 309.799 81.698C308.526 80.981 307.107 80.5597 305.649 80.4656C304.191 80.3714 302.73 80.6067 301.375 81.154C300.343 81.602 299.839 82.154 299.951 82.458Z" fill="#263238"/>
<path d="M278.079 82.2896C278.527 82.8176 280.175 82.1776 282.183 82.0576C284.191 81.9376 285.903 82.2576 286.271 81.6736C286.431 81.3856 286.143 80.8736 285.375 80.3696C284.349 79.7966 283.177 79.5381 282.005 79.6263C280.832 79.7145 279.712 80.1454 278.783 80.8656C278.095 81.4576 277.879 82.0336 278.079 82.2896Z" fill="#263238"/>
<path d="M271.024 117.875C268.68 128.347 272.96 139.163 278.32 148.451C280.344 151.955 282.552 155.411 283.76 159.283C284.968 163.155 285.024 167.603 282.888 171.043C283.636 171.296 284.45 171.273 285.183 170.98C285.916 170.687 286.52 170.142 286.888 169.443C287.088 171.587 287.28 173.723 287.472 175.843C290.08 176.963 293.184 175.091 294.44 172.531C295.696 169.971 295.592 166.987 295.464 164.139C295.08 155.779 295.384 145.891 295 137.531L280.096 134.507L271.024 117.875Z" fill="#263238"/>
<path d="M311.2 72.4096C316.848 83.2896 317.528 96.0656 317.12 108.346C316.712 120.626 315.352 133.01 317.376 145.146C318.176 149.906 319.496 154.746 318.768 159.498C318.336 162.306 317.208 164.962 316.64 167.746C316.072 170.53 316.16 173.658 317.896 175.898C319.632 178.138 322.8 179.002 325.592 178.466C328.383 177.804 330.899 176.292 332.792 174.138C337.08 169.618 339.32 163.442 340.152 157.25C340.984 151.058 340.52 144.77 340.056 138.538C338.851 122.324 337.64 106.114 336.424 89.9056C335.904 82.8976 335.344 75.7216 332.504 69.2976C329.412 62.6073 324.323 57.0399 317.936 53.3616C310.432 48.8896 300.712 46.9616 293 51.0656C290.424 52.4336 287.952 55.0656 288.568 57.9136C289.056 60.1776 291.256 61.5776 293.264 62.7136L312.999 74.5" fill="#263238"/>
<path d="M321.415 159.952C321.631 159.84 321.215 158.584 320.367 156.376C319.519 154.168 318.247 151.024 316.935 147.064C315.382 142.484 314.359 137.741 313.887 132.928C313.375 127.552 314.063 121.576 315.167 115.328C316.271 109.08 317.567 102.944 317.911 97.2001C318.317 92.0907 317.844 86.9494 316.511 82.0001C315.604 78.6396 314.005 75.5059 311.815 72.8001C311.399 72.3441 311.015 71.9521 310.711 71.6161C310.426 71.3318 310.124 71.0646 309.807 70.8161C309.303 70.4321 309.007 70.2721 308.919 70.3521C308.831 70.4321 308.983 70.7601 309.311 71.2801L309.943 72.2321C310.167 72.6161 310.439 73.0321 310.743 73.5361C312.378 76.3221 313.545 79.3569 314.199 82.5201C315.125 87.2406 315.332 92.0737 314.815 96.8561C314.311 102.28 312.967 108.24 311.839 114.648C310.711 121.056 310.071 127.448 310.791 133.192C311.424 138.231 312.737 143.162 314.695 147.848C315.979 150.988 317.484 154.033 319.199 156.96C320.407 159 321.215 160.056 321.415 159.952Z" fill="#263238"/>
<path d="M341.096 78.7761C340.931 78.6926 340.756 78.6282 340.576 78.5841L339.072 78.0961C338.416 77.8961 337.608 77.6401 336.672 77.2961C335.736 76.9521 334.688 76.6401 333.536 76.2001C331.216 75.4001 328.488 74.3041 325.536 73.0001C322.584 71.6961 319.312 70.1841 315.992 68.4401C312.672 66.6961 309.592 64.8641 306.824 63.1361C304.056 61.4081 301.648 59.7441 299.624 58.2881C298.616 57.5841 297.736 56.8961 296.952 56.3121C296.168 55.7281 295.496 55.2161 294.96 54.7841L293.704 53.8161C293.561 53.6976 293.408 53.5906 293.248 53.4961C293.375 53.6306 293.512 53.7562 293.656 53.8721L294.88 54.8881C295.408 55.3361 296.056 55.8721 296.84 56.4881C297.624 57.1041 298.48 57.7921 299.488 58.5121C301.464 59.9841 303.88 61.6561 306.624 63.4241C309.368 65.1921 312.472 67.0001 315.8 68.7601C319.128 70.5201 322.384 72.0241 325.4 73.3121C328.416 74.6001 331.152 75.6321 333.48 76.4321C334.64 76.8481 335.704 77.1681 336.68 77.4721C337.656 77.7761 338.416 78.0161 339.08 78.2001L340.608 78.6241C340.767 78.6853 340.93 78.7361 341.096 78.7761Z" fill="#455A64"/>
<path d="M341.241 81.2067C341.061 81.1546 340.876 81.1197 340.689 81.1027L339.089 80.8627L337.929 80.7027L336.569 80.4547C335.585 80.2707 334.465 80.1027 333.249 79.7987L331.329 79.3667C330.665 79.2147 329.977 79.0067 329.265 78.8227C327.833 78.4627 326.345 77.9667 324.761 77.4627C321.358 76.3007 318.03 74.9328 314.793 73.3667C311.573 71.7673 308.453 69.9747 305.449 67.9987C304.089 67.0547 302.777 66.1747 301.617 65.2627C301.033 64.8147 300.449 64.3987 299.921 63.9587L298.401 62.6787C297.417 61.8787 296.593 61.0787 295.849 60.4547L294.809 59.5187L294.009 58.7187L292.801 57.5987C292.667 57.4654 292.525 57.3399 292.377 57.2227C292.506 57.3612 292.648 57.4871 292.801 57.5987C293.073 57.8947 293.449 58.2787 293.921 58.7747L294.721 59.5747C295.025 59.8707 295.369 60.1827 295.737 60.5267C296.473 61.2067 297.289 62.0067 298.265 62.7987L299.777 64.0787C300.305 64.5187 300.881 64.9427 301.465 65.3987C302.625 66.3267 303.929 67.2147 305.297 68.1747C308.299 70.1851 311.429 71.9996 314.665 73.6067C317.913 75.1825 321.258 76.5479 324.681 77.6947C326.281 78.1907 327.769 78.6787 329.209 79.0307C329.929 79.2147 330.617 79.4147 331.281 79.5587L333.217 79.9747C334.441 80.2547 335.569 80.4147 336.553 80.5827C337.041 80.6547 337.497 80.7427 337.921 80.7987L339.089 80.9347L340.689 81.1027C340.87 81.1514 341.055 81.1861 341.241 81.2067Z" fill="white"/>
<path d="M331.951 166.768C331.977 166.698 331.993 166.625 331.999 166.552C331.999 166.384 332.063 166.168 332.103 165.888C332.183 165.312 332.319 164.464 332.423 163.352C332.756 160.232 332.913 157.097 332.895 153.96C332.895 149.96 332.639 145.256 332.135 140.032C331.631 134.808 330.927 129.08 330.231 123.064C328.799 111.064 327.511 100.16 326.567 92.2635C326.087 88.3355 325.695 85.1595 325.415 82.9355C325.279 81.8475 325.167 80.9995 325.087 80.3995L324.991 79.7435C324.985 79.6677 324.972 79.5927 324.951 79.5195C324.957 79.5953 324.971 79.6703 324.991 79.7435C324.991 79.9115 324.991 80.1275 325.055 80.4075C325.119 81.0075 325.207 81.8635 325.319 82.9515C325.567 85.1755 325.927 88.3595 326.359 92.2875C327.279 100.192 328.535 111.08 329.927 123.104C330.631 129.12 331.351 134.84 331.863 140.064C332.375 145.288 332.663 150 332.663 153.96C332.704 157.092 332.584 160.224 332.303 163.344C332.215 164.448 332.103 165.304 332.039 165.88C332.039 166.16 331.991 166.376 331.975 166.544C331.959 166.712 331.951 166.768 331.951 166.768Z" fill="#455A64"/>
<path d="M323.377 130.553C323.414 130.371 323.432 130.186 323.433 130.001L323.529 128.401C323.609 127.033 323.697 125.057 323.777 122.609C323.937 117.721 324.041 110.953 323.921 103.489C323.801 96.025 323.465 89.265 323.121 84.385C322.953 81.937 322.801 79.969 322.681 78.601C322.617 77.945 322.569 77.425 322.537 77.001C322.529 76.8174 322.502 76.6351 322.457 76.457C322.444 76.6408 322.444 76.8252 322.457 77.009C322.457 77.401 322.505 77.921 322.545 78.609C322.625 80.001 322.737 81.969 322.873 84.385C323.137 89.273 323.425 96.025 323.553 103.489C323.681 110.953 323.609 117.705 323.505 122.593C323.449 124.993 323.401 126.985 323.369 128.385C323.369 129.049 323.369 129.569 323.369 129.985C323.356 130.174 323.359 130.364 323.377 130.553Z" fill="#455A64"/>
<path d="M361.84 116.593L368.528 104.641C364.872 98.6698 363.3 91.6551 364.056 84.6947C364.812 77.7344 367.854 71.221 372.706 66.1738C377.558 61.1267 383.947 57.8305 390.872 56.8011C397.797 55.7717 404.869 57.0672 410.979 60.4848C417.09 63.9024 421.895 69.2494 424.643 75.6889C427.39 82.1285 427.926 89.2973 426.165 96.0736C424.405 102.85 420.447 108.851 414.912 113.139C409.377 117.426 402.577 119.758 395.576 119.769C388.544 119.793 381.708 117.458 376.16 113.137L361.84 116.593Z" fill="#FAFAFA"/>
<path d="M361.841 116.594L376.145 113.05L376.089 113.218C376.079 113.209 376.07 113.198 376.065 113.186C376.059 113.173 376.056 113.16 376.056 113.146C376.056 113.133 376.059 113.119 376.065 113.107C376.07 113.094 376.079 113.083 376.089 113.074C376.108 113.061 376.13 113.054 376.153 113.054C376.176 113.054 376.198 113.061 376.217 113.074C378.23 114.615 380.415 115.917 382.729 116.954C385.49 118.164 388.41 118.972 391.401 119.354C393.055 119.576 394.726 119.649 396.393 119.57C397.249 119.514 398.121 119.498 399.001 119.402L401.665 118.986C409.573 117.341 416.558 112.748 421.201 106.138C423.783 102.485 425.556 98.3232 426.401 93.9303C427.27 89.2891 427.117 84.5143 425.953 79.9383C424.756 75.158 422.442 70.7299 419.201 67.0183L417.913 65.6023C417.489 65.1303 416.985 64.7383 416.529 64.3063C416.077 63.8674 415.602 63.4535 415.105 63.0663L413.601 61.9383C413.096 61.5524 412.561 61.2073 412.001 60.9063L410.401 59.9383L408.737 59.1383C408.191 58.8526 407.628 58.6041 407.049 58.3943C402.577 56.6275 397.763 55.8999 392.969 56.2663C388.431 56.5972 384.023 57.9335 380.065 60.1783C372.95 64.2196 367.654 70.8327 365.265 78.6583C364.296 81.9885 363.84 85.4468 363.913 88.9143C364.077 94.4602 365.684 99.8674 368.577 104.602C368.584 104.617 368.589 104.634 368.589 104.65C368.589 104.667 368.584 104.683 368.577 104.698L361.801 116.602C362.145 115.986 364.201 112.258 368.401 104.602V104.706C365.447 99.9558 363.791 94.5131 363.601 88.9223C363.512 85.424 363.96 81.9328 364.929 78.5703C367.336 70.6321 372.704 63.9237 379.921 59.8343C383.921 57.5461 388.381 56.1795 392.977 55.8343C397.833 55.458 402.71 56.1912 407.241 57.9783C407.827 58.1907 408.399 58.4419 408.953 58.7303L410.641 59.5303L412.241 60.5143C412.796 60.8256 413.331 61.173 413.841 61.5543L415.361 62.6983C415.889 63.0663 416.321 63.4983 416.809 63.9543C417.297 64.4103 417.777 64.7943 418.209 65.2743L419.505 66.7063C422.794 70.4637 425.141 74.95 426.353 79.7943C427.53 84.4284 427.681 89.264 426.793 93.9623C425.938 98.409 424.14 102.621 421.521 106.314C416.822 112.999 409.743 117.633 401.737 119.266L399.049 119.682C398.161 119.77 397.273 119.786 396.409 119.842C394.725 119.917 393.038 119.837 391.369 119.602C388.356 119.203 385.416 118.37 382.641 117.13C380.313 116.076 378.116 114.752 376.097 113.186L376.241 113.034C376.259 113.054 376.27 113.079 376.27 113.106C376.27 113.133 376.259 113.159 376.241 113.178H376.201L361.841 116.594Z" fill="#263238"/>
<path d="M408.801 79.1992C408.506 79.5675 408.179 79.9101 407.825 80.2232L405.041 82.9112C402.641 85.1592 399.385 88.2472 395.737 91.6392L395.185 92.1592L395.049 92.2872L394.897 92.1592L390.433 88.3272H390.705L384.617 93.8392L382.857 95.3912C382.654 95.5862 382.431 95.7604 382.193 95.9112C382.362 95.6849 382.552 95.4759 382.761 95.2872C383.209 94.8632 383.769 94.3192 384.449 93.6872L390.425 88.0872L390.561 87.9672L390.697 88.0792L395.177 91.8952H394.889L395.441 91.3832C399.089 87.9912 402.409 84.9832 404.833 82.7432L407.705 80.1672C408.043 79.814 408.409 79.4902 408.801 79.1992Z" fill="#263238"/>
<path d="M409.248 86.5652C409.099 85.8599 409.019 85.1419 409.008 84.4212C408.912 83.0852 408.808 81.2212 408.712 79.1732L408.944 79.3892H408.568C406.44 79.4772 404.504 79.5412 403.104 79.5572C402.349 79.6162 401.591 79.5974 400.84 79.5012C401.582 79.3416 402.337 79.2559 403.096 79.2452C404.488 79.1492 406.416 79.0372 408.552 78.9492H408.92H409.136V79.1652C409.216 81.2292 409.272 83.0772 409.288 84.4132C409.342 85.1302 409.328 85.8507 409.248 86.5652Z" fill="#263238"/>
</svg>
