<svg width="40" height="40" viewBox="0 0 40 40" fill="none" xmlns="http://www.w3.org/2000/svg">
<path fill-rule="evenodd" clip-rule="evenodd" d="M14.1143 35.6806L14.1237 29.1072C14.1257 27.8729 13.9632 26.7137 13.0465 25.887C12.0243 24.9668 10.1679 23.5721 8.73847 21.8814C8.10678 21.3118 7.154 21.2798 6.55259 21.8805C5.95204 22.4826 5.93157 23.294 6.55251 24.0678L6.06568 23.4681C5.50764 22.7827 5.21133 22.0293 5.21502 21.1443L5.23917 14.8158C5.25721 9.89616 1.64639 11.2604 1.59847 12.9191L1.26866 24.5709C1.23917 25.641 1.62459 26.5726 2.38286 27.3304L7.65219 32.6L7.65274 35.6798C7.65368 36.2711 8.13572 36.753 8.72796 36.7536L13.0397 36.7544C13.6311 36.7534 14.1129 36.2713 14.1143 35.6806Z" fill="#F6DCCD"/>
<path fill-rule="evenodd" clip-rule="evenodd" d="M14.1142 35.6805L14.1237 29.1071C14.1256 27.8728 13.9631 26.7136 13.0464 25.8869C12.5007 25.3943 11.7141 24.7656 10.8835 24.0298L10.8823 36.7547L13.0397 36.7543C13.631 36.7533 14.1128 36.2712 14.1142 35.6805Z" fill="#F1CBBC"/>
<path fill-rule="evenodd" clip-rule="evenodd" d="M15.2037 34.2896L6.04406 34.3679C5.60116 34.3722 5.24218 34.7377 5.24563 35.1792L5.26092 36.944C5.26438 37.3854 5.63002 37.7444 6.07379 37.7416L15.2325 37.6619C15.6762 37.6591 16.0352 37.2934 16.0309 36.8505L16.0165 35.0872C16.0121 34.6443 15.6465 34.2854 15.2037 34.2896Z" fill="#D1D1D6"/>
<path fill-rule="evenodd" clip-rule="evenodd" d="M9.27308 34.972L9.27543 34.9726L10.8829 34.9591L14.1131 34.9311L15.9961 34.9148C15.9131 34.555 15.5874 34.2858 15.2037 34.2896L14.1158 34.2981L10.8833 34.3254L7.653 34.3534L6.04406 34.3679C5.60116 34.3722 5.24218 34.7377 5.24563 35.1792L5.2512 35.8094C5.24924 35.3672 5.60759 35.0039 6.049 35.0004L7.65269 34.9871L9.27308 34.972Z" fill="#B1B1B5"/>
<path fill-rule="evenodd" clip-rule="evenodd" d="M25.8861 35.6806L25.8767 29.1072C25.8748 27.8729 26.0373 26.7137 26.9541 25.887C27.9763 24.9668 29.8326 23.5721 31.262 21.8814C31.8937 21.3118 32.8465 21.2798 33.4479 21.8805C34.0484 22.4826 34.0689 23.294 33.4479 24.0678L33.9348 23.4681C34.4928 22.7827 34.7892 22.0293 34.7854 21.1443L34.7614 14.8158C34.7432 9.89616 38.3541 11.2604 38.402 12.9191L38.7318 24.5709C38.7613 25.641 38.3759 26.5726 37.6177 27.3304L32.3483 32.6L32.3477 35.6798C32.3468 36.2711 31.8647 36.753 31.2726 36.7536L26.9607 36.7544C26.3694 36.7534 25.8876 36.2713 25.8861 35.6806Z" fill="#F6DCCD"/>
<path fill-rule="evenodd" clip-rule="evenodd" d="M25.8861 35.6805L25.8767 29.1071C25.8748 27.8728 26.0373 26.7136 26.9541 25.8869C27.4997 25.3943 28.2863 24.7656 29.117 24.0298L29.1181 36.7547L26.9607 36.7543C26.3694 36.7533 25.8876 36.2712 25.8861 35.6805Z" fill="#F1CBBC"/>
<path fill-rule="evenodd" clip-rule="evenodd" d="M24.7968 34.2896L33.9563 34.3679C34.3992 34.3722 34.7582 34.7377 34.7548 35.1792L34.7395 36.944C34.736 37.3854 34.3704 37.7444 33.9266 37.7416L24.768 37.6619C24.3242 37.6591 23.9652 37.2934 23.9695 36.8505L23.984 35.0872C23.9883 34.6443 24.3539 34.2854 24.7968 34.2896Z" fill="#D1D1D6"/>
<path fill-rule="evenodd" clip-rule="evenodd" d="M30.7272 34.972L30.7249 34.9726L29.1174 34.9591L25.8872 34.9311L24.0042 34.9148C24.0872 34.555 24.4129 34.2858 24.7967 34.2896L25.8845 34.2981L29.117 34.3254L32.3473 34.3534L33.9562 34.3679C34.3991 34.3722 34.7581 34.7377 34.7547 35.1792L34.7491 35.8094C34.7511 35.3672 34.3927 35.0039 33.9513 35.0004L32.3477 34.9871L30.7272 34.972Z" fill="#B1B1B5"/>
<path fill-rule="evenodd" clip-rule="evenodd" d="M23.1279 16.3003C23.1201 16.3538 23.1359 16.4082 23.1712 16.4491C23.2066 16.4901 23.2581 16.5136 23.3122 16.5136C24.5377 16.5142 30.6945 16.5142 31.9196 16.5142C31.9739 16.5142 32.0254 16.4906 32.0609 16.4495C32.0964 16.4085 32.1123 16.354 32.1044 16.3003C31.7665 14.1256 29.886 12.4609 27.6159 12.4609C25.3469 12.4609 23.4665 14.1255 23.1279 16.3003Z" fill="#8AC9FE"/>
<path fill-rule="evenodd" clip-rule="evenodd" d="M31.3087 16.5142C31.363 16.5142 31.4146 16.4906 31.4501 16.4495C31.4855 16.4085 31.5014 16.354 31.4935 16.3003C31.1709 14.2239 29.4421 12.6125 27.3105 12.4711C27.4115 12.4643 27.5133 12.4609 27.616 12.4609C29.8861 12.4609 31.7665 14.1256 32.1045 16.3003C32.1124 16.354 32.0965 16.4085 32.061 16.4495C32.0255 16.4906 31.974 16.5142 31.9197 16.5142C31.7774 16.5142 31.5686 16.5142 31.3087 16.5142Z" fill="#60B7FF"/>
<path fill-rule="evenodd" clip-rule="evenodd" d="M27.6159 12.4609C28.8818 12.4609 29.9126 11.4288 29.9126 10.1641C29.9126 8.89951 28.8818 7.86743 27.6159 7.86743C26.3512 7.86743 25.3203 8.89951 25.3203 10.1641C25.3203 11.4288 26.3512 12.4609 27.6159 12.4609Z" fill="#F6DCCD"/>
<path fill-rule="evenodd" clip-rule="evenodd" d="M27.4631 12.4559C28.6581 12.3768 29.6071 11.3775 29.6071 10.1641C29.6071 8.9508 28.6581 7.95151 27.4631 7.87245C27.5136 7.86908 27.5645 7.86743 27.6158 7.86743C28.8817 7.86743 29.9125 8.89951 29.9125 10.1641C29.9125 11.4288 28.8817 12.4609 27.6158 12.4609C27.5645 12.4609 27.5136 12.4592 27.4631 12.4559Z" fill="#F1CBBC"/>
<path fill-rule="evenodd" clip-rule="evenodd" d="M7.89604 16.3003C7.88812 16.3538 7.90397 16.4082 7.93934 16.4491C7.97471 16.4901 8.02608 16.5136 8.08028 16.5136C9.30569 16.5142 15.4625 16.5142 16.6877 16.5142C16.7419 16.5142 16.7935 16.4906 16.829 16.4495C16.8644 16.4085 16.8804 16.354 16.8724 16.3003C16.5345 14.1256 14.6541 12.4609 12.3839 12.4609C10.1149 12.4609 8.23455 14.1255 7.89604 16.3003Z" fill="#8AC9FE"/>
<path fill-rule="evenodd" clip-rule="evenodd" d="M16.0766 16.5142C16.1309 16.5142 16.1824 16.4906 16.218 16.4495C16.2534 16.4085 16.2693 16.354 16.2614 16.3003C15.9388 14.2239 14.21 12.6125 12.0784 12.4711C12.1793 12.4643 12.2812 12.4609 12.3838 12.4609C14.654 12.4609 16.5344 14.1256 16.8723 16.3003C16.8803 16.354 16.8643 16.4085 16.8289 16.4495C16.7934 16.4906 16.7418 16.5142 16.6875 16.5142C16.5453 16.5142 16.3365 16.5142 16.0766 16.5142Z" fill="#60B7FF"/>
<path fill-rule="evenodd" clip-rule="evenodd" d="M12.3839 12.4609C13.6498 12.4609 14.6807 11.4288 14.6807 10.1641C14.6807 8.89951 13.6498 7.86743 12.3839 7.86743C11.1193 7.86743 10.0884 8.89951 10.0884 10.1641C10.0884 11.4288 11.1193 12.4609 12.3839 12.4609Z" fill="#F6DCCD"/>
<path fill-rule="evenodd" clip-rule="evenodd" d="M12.2312 12.4559C13.4262 12.3768 14.3751 11.3775 14.3751 10.1641C14.3751 8.9508 13.4262 7.95151 12.2312 7.87245C12.2816 7.86908 12.3325 7.86743 12.3838 7.86743C13.6497 7.86743 14.6806 8.89951 14.6806 10.1641C14.6806 11.4288 13.6497 12.4609 12.3838 12.4609C12.3325 12.4609 12.2816 12.4592 12.2312 12.4559Z" fill="#F1CBBC"/>
<path fill-rule="evenodd" clip-rule="evenodd" d="M12.5328 19.0281C12.5197 19.1172 12.546 19.2076 12.6048 19.2758C12.6637 19.3439 12.7493 19.3831 12.8394 19.3831C14.8783 19.384 25.1216 19.384 27.1601 19.384C27.2503 19.384 27.3361 19.3447 27.3951 19.2764C27.4542 19.2081 27.4805 19.1175 27.4674 19.0281C26.9052 15.4099 23.7766 12.6404 19.9996 12.6404C16.2246 12.6404 13.0961 15.4098 12.5328 19.0281Z" fill="#FFE177"/>
<path fill-rule="evenodd" clip-rule="evenodd" d="M26.1435 19.384C26.2338 19.384 26.3196 19.3447 26.3786 19.2764C26.4377 19.2081 26.464 19.1175 26.4509 19.0281C25.914 15.5736 23.0378 12.8927 19.4915 12.6572C19.6594 12.646 19.8288 12.6404 19.9995 12.6404C23.7766 12.6404 26.9051 15.4099 27.4674 19.0281C27.4805 19.1175 27.4541 19.2081 27.3951 19.2764C27.3361 19.3447 27.2503 19.384 27.16 19.384C26.9232 19.384 26.5758 19.384 26.1435 19.384Z" fill="#FFD064"/>
<path fill-rule="evenodd" clip-rule="evenodd" d="M19.9996 12.6403C22.1058 12.6403 23.8209 10.9232 23.8209 8.81906C23.8209 6.71498 22.1058 4.9978 19.9996 4.9978C17.8956 4.9978 16.1804 6.71498 16.1804 8.81906C16.1804 10.9232 17.8956 12.6403 19.9996 12.6403Z" fill="#F6DCCD"/>
<path fill-rule="evenodd" clip-rule="evenodd" d="M19.7456 12.6319C21.7338 12.5004 23.3126 10.8379 23.3126 8.81906C23.3126 6.80031 21.7338 5.13772 19.7456 5.00619C19.8295 5.00063 19.9142 4.9978 19.9996 4.9978C22.1057 4.9978 23.8208 6.71498 23.8208 8.81906C23.8208 10.9232 22.1057 12.6403 19.9996 12.6403C19.9142 12.6403 19.8295 12.6375 19.7456 12.6319Z" fill="#F1CBBC"/>
<path fill-rule="evenodd" clip-rule="evenodd" d="M33.0668 33.7534L33.8696 33.7603H33.8714C34.66 33.7694 35.2971 34.4203 35.2897 35.2053L35.2756 36.9683V36.9705C35.2666 37.7591 34.6156 38.3962 33.8303 38.3888L24.673 38.31C23.882 38.3037 23.2441 37.6524 23.2515 36.8663L23.2664 35.1018L23.2665 35.1011C23.2739 34.3155 23.9229 33.6769 24.7101 33.6816H24.7118L25.3467 33.687L25.3412 29.1304C25.3402 27.7107 25.5718 26.3931 26.6263 25.4433C27.6326 24.5361 29.4653 23.1647 30.875 21.4991C30.8931 21.4776 30.9127 21.4574 30.9336 21.4386C31.8144 20.6439 33.1456 20.6223 33.9839 21.4622C34.0642 21.5425 34.1373 21.6255 34.2032 21.711C34.2347 21.5373 34.2505 21.3574 34.2497 21.1703L34.2257 14.8412C34.2166 12.5053 35.0125 11.409 35.8359 11.0048C36.5559 10.6514 37.3712 10.7638 38.0099 11.1556C38.6559 11.5518 39.0997 12.2277 39.1195 12.9251L39.449 24.5746C39.4857 25.8247 39.0366 26.9116 38.1537 27.7964L38.1533 27.797L33.0668 32.8829L33.0668 33.7534ZM24.7024 34.9364H24.7013C24.6035 34.9367 24.5223 35.0153 24.5213 35.113L24.5064 36.8769L24.5064 36.8775C24.5055 36.9748 24.5852 37.0544 24.6829 37.0552H24.6833L33.8411 37.1339H33.8417C33.9395 37.1349 34.0195 37.0546 34.0208 36.9565L34.0348 35.1953V35.1944C34.0358 35.0965 33.9555 35.0165 33.8573 35.0152L24.7024 34.9364ZM25.1411 35.7701C25.2703 35.4427 25.6401 35.2829 25.9675 35.4121C26.2938 35.5431 26.4554 35.9139 26.3244 36.2403C26.1952 36.5676 25.8236 36.7264 25.4963 36.5972C25.1699 36.4662 25.0101 36.0964 25.1411 35.7701ZM26.6017 33.6978L31.8119 33.7427L31.8119 32.623C31.8119 32.4566 31.878 32.297 31.9956 32.1793L37.2656 26.9099C37.8959 26.2782 38.2209 25.504 38.1947 24.6115V24.6108L37.8651 12.9607C37.8566 12.6617 37.6308 12.3952 37.3538 12.2253C36.5364 11.724 35.4704 12.2219 35.4806 14.8363L35.5046 21.1652C35.5088 22.2004 35.1654 23.0845 34.5138 23.888C34.5133 23.8885 34.5129 23.8891 34.5125 23.8897L34.0774 24.4222C34.072 24.4289 34.0664 24.4354 34.0607 24.4418L34.0601 24.4425C33.2224 25.386 32.3261 26.192 31.3942 27.1226C31.1491 27.3673 30.7515 27.367 30.5068 27.1219C30.2621 26.8769 30.2624 26.4793 30.5075 26.2346C31.4144 25.3291 32.2882 24.5452 33.1043 23.629C33.4374 23.1736 33.4482 22.7014 33.096 22.3491L33.0959 22.3488C32.7414 21.9937 32.1838 22.0242 31.8022 22.3459C30.3556 24.044 28.4948 25.4485 27.4664 26.3756L27.4662 26.3757C26.6863 27.0782 26.5953 28.0793 26.5961 29.1294L26.6017 33.6978ZM12.4457 17.1376H7.89468C7.71664 17.1376 7.54692 17.062 7.42794 16.9295C7.30896 16.7971 7.25186 16.6203 7.27084 16.4432C7.47233 14.5669 8.68206 12.9922 10.3472 12.2727C9.80912 11.744 9.47461 11.0085 9.47461 10.1975C9.47461 8.5947 10.7814 7.28686 12.3841 7.28686C13.9884 7.28686 15.2948 8.59478 15.2948 10.1975C15.2948 11.0085 14.9603 11.744 14.4221 12.2727C14.9418 12.4973 15.4172 12.8051 15.8313 13.1793C16.3281 12.8824 16.8592 12.6368 17.4171 12.4502C16.3032 11.645 15.5762 10.3348 15.5762 8.86051C15.5762 6.42341 17.563 4.43462 20.0001 4.43462C22.4395 4.43462 24.426 6.42349 24.426 8.86051C24.426 10.3349 23.699 11.6451 22.5845 12.4503C23.1424 12.6369 23.6733 12.8823 24.17 13.1792C24.5842 12.8049 25.0595 12.4971 25.5792 12.2727C25.041 11.7439 24.7066 11.0084 24.7066 10.1975C24.7066 8.5947 26.0133 7.28686 27.6161 7.28686C29.2203 7.28686 30.5268 8.59478 30.5268 10.1975C30.5268 11.0085 30.1923 11.744 29.654 12.2728C31.3195 12.9923 32.5289 14.5672 32.7294 16.4435C32.7483 16.6205 32.6912 16.7972 32.5722 16.9296C32.4531 17.062 32.2835 17.1376 32.1055 17.1376H27.5554C27.8281 17.8165 28.012 18.5407 28.0927 19.2957C28.1116 19.4727 28.0544 19.6494 27.9355 19.7818C27.8165 19.9142 27.6468 19.9898 27.4688 19.9898H12.5314C12.3533 19.9898 12.1836 19.9142 12.0646 19.7817C11.9457 19.6492 11.8886 19.4724 11.9075 19.2954C11.9886 18.5405 12.1728 17.8164 12.4457 17.1376ZM12.3841 11.8533C13.2967 11.8533 14.0399 11.1093 14.0399 10.1975C14.0399 9.28576 13.2967 8.54176 12.3841 8.54176C11.4725 8.54176 10.7295 9.28592 10.7295 10.1975C10.7295 11.1092 11.4725 11.8533 12.3841 11.8533ZM27.6161 11.8533C28.5287 11.8533 29.2719 11.1093 29.2719 10.1975C29.2719 9.28576 28.5287 8.54176 27.6161 8.54176C26.7044 8.54176 25.9615 9.28592 25.9615 10.1975C25.9615 11.1092 26.7044 11.8533 27.6161 11.8533ZM20.0001 13.2865C16.6912 13.2865 13.9272 15.622 13.266 18.7349H26.7346C26.0749 15.6219 23.3108 13.2865 20.0001 13.2865ZM20.0001 12.0316C21.7479 12.0316 23.1711 10.6066 23.1711 8.86051C23.1711 7.11447 21.7479 5.68952 20.0001 5.68952C18.2541 5.68952 16.8311 7.11454 16.8311 8.86051C16.8311 10.6065 18.2541 12.0316 20.0001 12.0316ZM12.3841 13.1082C10.6243 13.1082 9.13727 14.278 8.65821 15.8827H13.0819C13.5402 15.145 14.113 14.4858 14.7757 13.9304C14.1162 13.4152 13.2861 13.1082 12.3841 13.1082ZM25.2257 13.9301C25.8885 14.4857 26.4614 15.1448 26.9195 15.8827C28.0301 15.8827 31.3424 15.8827 31.3424 15.8828C30.8641 14.278 29.3769 13.1082 27.6161 13.1082C26.7148 13.1082 25.8851 13.4152 25.2257 13.9301ZM6.93335 33.7534L6.93343 32.8829L1.84692 27.797L1.84645 27.7964C0.963547 26.9116 0.514449 25.8247 0.551155 24.5753L0.880645 12.9251C0.900488 12.2277 1.34433 11.5518 1.99029 11.1556C2.62904 10.7638 3.44425 10.6514 4.16433 11.0048C4.98778 11.409 5.78355 12.5053 5.77445 14.8411L5.75045 21.1703C5.74974 21.3574 5.76551 21.5373 5.79712 21.711C5.86292 21.6255 5.93602 21.5425 6.01625 21.4622C6.85461 20.6223 8.18582 20.6439 9.06661 21.4386C9.08747 21.4574 9.10708 21.4776 9.12519 21.4991C10.5349 23.1647 12.3675 24.5361 13.3739 25.4433C14.4284 26.3931 14.66 27.7107 14.659 29.1304L14.6535 33.687L15.2884 33.6816H15.2901C16.0773 33.6769 16.7263 34.3155 16.7337 35.1011V35.1018L16.7486 36.8657C16.7561 37.6524 16.1182 38.3037 15.3277 38.31L6.17045 38.3888C5.38457 38.3962 4.73359 37.7591 4.72457 36.9705C4.72457 36.9698 4.72457 36.9691 4.72457 36.9683L4.71053 35.2062C4.70316 34.4203 5.34025 33.7694 6.12888 33.7603H6.13061L6.93335 33.7534ZM13.3986 33.6978L13.4041 29.1294C13.4049 28.0793 13.314 27.0782 12.534 26.3757L12.5338 26.3756C11.5054 25.4484 9.64449 24.0439 8.19766 22.3456C7.81625 22.0242 7.25876 21.9938 6.90441 22.3488L6.90417 22.3491C6.55202 22.7014 6.56276 23.1736 6.89602 23.629C7.71194 24.5452 8.58582 25.3291 9.49272 26.2346C9.73774 26.4793 9.73806 26.8769 9.49335 27.1219C9.24864 27.367 8.85108 27.3673 8.60598 27.1226C7.67406 26.192 6.77774 25.386 5.9401 24.4425L5.93947 24.4418C5.93382 24.4354 5.92825 24.4289 5.92276 24.4222L5.48778 23.8897C5.48731 23.8891 5.48684 23.8885 5.48637 23.888C4.83476 23.0845 4.49139 22.2004 4.49555 21.1654L4.51955 14.8363C4.52974 12.2219 3.46386 11.724 2.64637 12.2253C2.36935 12.3952 2.14355 12.6617 2.13508 12.9607L1.80559 24.6108L1.80551 24.6115C1.77931 25.504 2.10433 26.2782 2.73468 26.9099L8.00457 32.1793C8.12221 32.297 8.18833 32.4566 8.18833 32.623L8.18825 33.7427L13.3986 33.6978ZM15.2977 34.9364C15.2977 34.9364 6.14292 35.0152 6.14174 35.0153C6.0441 35.0171 5.96449 35.0969 5.96543 35.1944V35.1953C5.96543 35.1953 5.97939 36.9565 5.97947 36.9576C5.98135 37.0553 6.06112 37.1349 6.15861 37.1339H6.15908L15.3169 37.0552H15.3173C15.4151 37.0544 15.4947 36.9748 15.4938 36.8775V36.8769L15.4788 35.113C15.4779 35.0149 15.396 34.936 15.2977 34.9364ZM14.8591 35.7701C14.9901 36.0964 14.8303 36.4662 14.5039 36.5972C14.1766 36.7264 13.805 36.5676 13.6758 36.2403C13.5448 35.9139 13.7064 35.5431 14.0327 35.4121C14.3601 35.2829 14.7299 35.4427 14.8591 35.7701ZM8.18049 11.4193C8.18049 11.7657 7.89931 12.0468 7.55304 12.0468C7.20668 12.0468 6.92559 11.7657 6.92559 11.4193C6.92559 6.0649 12.7404 1.61133 20.0001 1.61133C27.2598 1.61133 33.0746 6.0649 33.0746 11.4193C33.0746 11.7657 32.7935 12.0468 32.4472 12.0468C32.1009 12.0468 31.8197 11.7657 31.8197 11.4193C31.8197 9.55611 30.9879 7.83815 29.5993 6.44129C27.4353 4.26443 23.9369 2.86623 20.0001 2.86623C16.0634 2.86623 12.5649 4.26443 10.4009 6.44129C9.01225 7.83815 8.18049 9.55611 8.18049 11.4193Z" fill="black"/>
</svg>
