<svg width="40" height="40" viewBox="0 0 40 40" fill="none" xmlns="http://www.w3.org/2000/svg">
<path fill-rule="evenodd" clip-rule="evenodd" d="M32.3492 16.5357C32.3492 15.6686 32.2697 14.8598 32.1156 14.0298H32.1155C31.8231 12.4766 31.2643 11.0176 30.488 9.7019L21.9616 14.722C23.3496 17.0746 21.6668 20.1102 18.8812 20.1102C17.9376 20.1102 17.0796 19.7444 16.4407 19.1471L9.68604 26.3752C12.0931 28.6256 15.326 30.0039 18.8812 30.0039C26.3194 30.0039 32.3492 23.9739 32.3492 16.5357Z" fill="#FA6E85"/>
<path fill-rule="evenodd" clip-rule="evenodd" d="M18.8811 3.06787C11.4429 3.06787 5.41309 9.09772 5.41309 16.5359C5.41309 21.5206 8.1212 25.8724 12.1461 28.2012L13.8788 25.2002L15.1037 25.9075C15.8103 26.3155 16.7221 26.0711 17.1301 25.3645C17.5381 24.658 17.2937 23.7461 16.5871 23.3382L15.3622 22.631L17.0937 19.632C16.0254 19.0139 15.3068 17.859 15.3068 16.536C15.3068 14.5619 16.9071 12.9616 18.8812 12.9616L18.8811 3.06787Z" fill="#19CFBA"/>
<path fill-rule="evenodd" clip-rule="evenodd" d="M32.3493 16.5359C32.3493 9.09772 26.3194 3.06787 18.8812 3.06787C16.4276 3.06787 14.1275 3.72426 12.1462 4.87064L13.8789 7.8717L12.6539 8.57896C11.9473 8.98693 11.703 9.89878 12.1109 10.6053C12.5189 11.3119 13.4308 11.5563 14.1373 11.1483L15.3623 10.441L17.0937 13.44C19.4452 12.0794 22.4556 13.7628 22.4556 16.5359H25.919V15.1215C25.919 14.3056 26.5866 13.6381 27.4024 13.6381C28.2183 13.6381 28.8859 14.3056 28.8859 15.1215V16.5359H32.3493Z" fill="#60B7FE"/>
<path fill-rule="evenodd" clip-rule="evenodd" d="M7.26765 9.71151L7.26844 9.71222L7.26818 9.71266C7.52927 10.2596 7.73599 10.8282 7.88699 11.4192L10.7473 15.4585C11.2452 16.1616 11.0773 17.1443 10.3741 17.6422C9.67084 18.1402 8.68824 17.9722 8.19033 17.269L5.70116 13.7538C4.89623 17.5828 5.79541 21.5005 8.05587 24.549C2.27154 21.1055 -0.154181 13.4881 1.16828 3.31787H5.60067V7.2498C6.29226 8.01593 6.84965 8.83582 7.26765 9.71151Z" fill="#F0B16E"/>
<path fill-rule="evenodd" clip-rule="evenodd" d="M18.7779 30.0058L18.7784 30.0034H18.7796C19.1225 29.5044 19.5113 29.0414 19.9471 28.6155L22.0151 24.1187C22.375 23.336 23.3101 22.99 24.0928 23.35C24.8755 23.71 25.2214 24.645 24.8614 25.4277L23.0612 29.3422C26.7299 28.1453 29.7057 25.4158 31.2333 21.9099C31.1402 28.6388 25.7567 34.5459 16.2904 38.4847L14.0742 34.6462L17.4794 32.6801C17.7971 31.6982 18.2286 30.8057 18.7779 30.0058Z" fill="#F0B16E"/>
<path fill-rule="evenodd" clip-rule="evenodd" d="M30.5983 9.8905L30.5978 9.89076L30.5976 9.8905C29.9932 9.84307 29.3972 9.73782 28.8097 9.57317L23.8814 10.0306C23.0235 10.1102 22.2565 9.47347 22.1768 8.61555V8.61547C22.0972 7.75755 22.734 6.99055 23.5919 6.91091L27.8769 6.51315C25.077 3.99811 21.2919 2.7097 17.3564 3.15331C23.2306 -0.132877 31.0395 1.57538 39.1851 7.80507L36.9689 11.6435L33.5638 9.67763C32.5545 9.89367 31.5657 9.96627 30.5983 9.8905Z" fill="#F0B16E"/>
<path fill-rule="evenodd" clip-rule="evenodd" d="M36.748 10.8264L33.8639 9.16078C33.7342 9.0851 33.5812 9.0631 33.4389 9.09346C32.4876 9.29736 31.5465 9.36521 30.6509 9.29481C30.6509 9.29481 30.6459 9.29481 30.6459 9.29428C30.0791 9.25028 29.5175 9.15005 28.971 8.99781C28.9002 8.97757 28.8294 8.97097 28.7534 8.97757L23.8252 9.43552C23.2939 9.48515 22.8234 9.09302 22.7728 8.56221C22.7272 8.03139 23.1168 7.55883 23.6481 7.51026L27.9338 7.11206C28.4576 7.06322 28.6602 6.41246 28.2779 6.06926C26.0718 4.08838 23.3091 2.87248 20.4048 2.55418C25.5304 1.16634 31.7894 3.02727 38.4026 7.96566L36.748 10.8264ZM16.544 37.7281L14.8946 34.8678L17.7787 33.2016C17.9102 33.1272 18.0063 33.0078 18.0519 32.8671C18.3505 31.9382 18.7603 31.0911 19.2713 30.3468C19.2763 30.3453 19.2763 30.3427 19.2763 30.3402C19.5952 29.8752 19.9645 29.44 20.3642 29.0459C20.4199 28.9953 20.4604 28.934 20.4907 28.8683L22.5602 24.3711C22.918 23.5906 24.0547 23.6385 24.3464 24.4405C24.4324 24.6834 24.4223 24.9465 24.316 25.1792L22.5198 29.0936C22.2976 29.5734 22.7571 30.0742 23.2484 29.9143C26.0667 28.9944 28.5005 27.2113 30.2259 24.8559C28.8648 29.9831 24.1237 34.4721 16.544 37.7281ZM8.504 24.144C9.44006 25.4181 10.6039 26.5161 11.9346 27.3717L13.3614 24.9025C13.5295 24.6142 13.891 24.5178 14.1811 24.6828L15.4057 25.3902C15.8257 25.6336 16.3671 25.4884 16.6099 25.0663C16.8552 24.6485 16.7073 24.1004 16.2861 23.8591L15.0616 23.1517C14.7782 22.9863 14.677 22.6194 14.844 22.3335L16.2962 19.8127C14.179 18.1378 14.1801 14.9384 16.2962 13.2632L15.1426 11.2615L14.4393 11.6694C13.4426 12.2432 12.1674 11.9016 11.5906 10.9064C11.0205 9.91371 11.3629 8.63534 12.3546 8.06175L13.0579 7.65387L11.9396 5.714C10.3458 6.73506 8.96943 8.10628 7.9474 9.75478C8.1447 10.2112 8.31172 10.6827 8.43818 11.1634L11.2362 15.1136C11.9294 16.0887 11.6966 17.4427 10.7201 18.1334C9.74858 18.8235 8.39259 18.5923 7.70443 17.6172L6.0701 15.3135C5.77248 18.4332 6.63374 21.6192 8.504 24.144ZM1.69852 3.91924H5.00257V7.25118C5.00257 7.3999 5.05818 7.54264 5.15437 7.6529C6.24601 8.88006 6.89466 10.0344 7.30482 11.5693C7.32506 11.6401 7.35542 11.7074 7.40092 11.7676L10.2597 15.8064C10.5683 16.242 10.4621 16.8466 10.0269 17.1553C9.59177 17.463 8.98967 17.3597 8.68106 16.9241L6.19162 13.4095C5.89154 12.9832 5.2231 13.121 5.11389 13.6327C4.50167 16.5391 4.83053 19.5375 6.00445 22.2056C2.24491 18.4628 0.727 12.1122 1.69852 3.91924ZM18.8818 13.5628C20.5211 13.5628 21.8569 14.8976 21.8569 16.538C21.8569 18.1784 20.5212 19.5121 18.8818 19.5121C17.2424 19.5121 15.9066 18.1784 15.9066 16.538C15.9066 14.8976 17.2423 13.5628 18.8818 13.5628ZM30.6914 21.6581C31.3189 20.212 31.663 18.6779 31.7388 17.1376H28.8851C28.5562 17.1376 28.288 16.869 28.288 16.538V15.1232C28.288 14.6354 27.8883 14.2388 27.4025 14.2388C26.9168 14.2388 26.5171 14.6355 26.5171 15.1232V16.538C26.5171 16.8689 26.2489 17.1376 25.92 17.1376H23.0105C22.6291 19.807 19.8254 21.4139 17.3384 20.4139L16.1797 22.4131L16.8881 22.8208C17.3688 23.0981 17.7128 23.5475 17.8545 24.0863C18.3398 25.898 16.3867 27.3441 14.8034 26.4285L14.1001 26.0206L12.9718 27.9702C14.6718 28.849 16.5592 29.3388 18.4769 29.3986C18.7754 28.9984 19.0992 28.6189 19.4484 28.2677L21.4723 23.8707C21.9683 22.7849 23.2639 22.3082 24.3463 22.8071C25.4286 23.3059 25.9049 24.5956 25.4088 25.6801L24.2248 28.2475C27.0988 26.937 29.4061 24.6003 30.6863 21.6722C30.6863 21.6677 30.6914 21.6627 30.6914 21.6581ZM21.5786 8.67247C21.4741 7.48614 22.3479 6.42636 23.5368 6.31557L26.345 6.05544C22.3922 3.23742 17.2499 2.90874 12.977 5.11384L14.3988 7.57397C14.5657 7.86032 14.4645 8.22719 14.1811 8.39263L12.9566 9.09998C12.7542 9.21737 12.6075 9.40762 12.5417 9.63686C12.3374 10.3783 13.1527 11.027 13.8371 10.6306L15.0616 9.9233C15.35 9.75786 15.7143 9.85598 15.8813 10.143L17.3386 12.6622C19.8235 11.6576 22.6295 13.2711 23.0107 15.9385H25.318V15.1233C25.318 13.9747 26.254 13.0402 27.4026 13.0402C28.5512 13.0402 29.4872 13.9747 29.4872 15.1233V15.9385H31.7338C31.6477 14.041 31.1418 12.1638 30.2259 10.4582C29.73 10.403 29.2393 10.3115 28.7586 10.1824L23.9366 10.6292C22.7532 10.7394 21.6946 9.87033 21.5786 8.67247ZM39.5512 7.33109C35.4173 4.16872 31.3745 2.14886 27.5442 1.32614C23.6836 0.49736 20.1922 0.918792 17.1665 2.57645C15.2741 2.80815 13.4424 3.42098 11.7979 4.38326C10.0169 5.42307 8.48376 6.84744 7.30984 8.53792C6.9911 8.01423 6.62168 7.5077 6.20175 7.02406V3.3197C6.20175 2.98829 5.93361 2.72059 5.59965 2.72059H1.16718C0.86868 2.72059 0.61568 2.94376 0.5752 3.24226C-0.0977362 8.40478 0.175504 12.9131 1.37468 16.6418C2.58908 20.4023 4.69897 23.2139 7.6489 25.0041C8.78226 26.5058 10.2143 27.7769 11.8485 28.7216C11.8485 28.7236 11.8536 28.7242 11.8536 28.7256C13.6499 29.764 15.6688 30.3893 17.7382 30.5578C17.4447 31.0967 17.1917 31.6705 16.9843 32.2766L13.7763 34.1296C13.4926 34.2935 13.3909 34.6598 13.5537 34.9478L15.7699 38.7862C15.9236 39.0513 16.2506 39.154 16.5238 39.0407C21.3256 37.0415 25.0952 34.5541 27.7213 31.6472C30.3726 28.7185 31.754 25.4873 31.8298 22.042C33.4085 18.3387 33.3073 14.1254 31.5971 10.5172C32.2093 10.502 32.8317 10.4342 33.459 10.3128L36.672 12.1647C36.9527 12.329 37.3175 12.2375 37.4866 11.9446L39.7028 8.10619C39.8548 7.84571 39.789 7.5143 39.5512 7.33109Z" fill="#1E2F3F"/>
</svg>
