<svg width="40" height="40" viewBox="0 0 40 40" fill="none" xmlns="http://www.w3.org/2000/svg">
<path fill-rule="evenodd" clip-rule="evenodd" d="M30.0237 15.5312V21.0764C30.0237 21.6889 29.5225 22.1901 28.9099 22.1901C28.2973 22.1901 27.7961 21.6889 27.7961 21.0764V15.5312H30.0237Z" fill="#F0B16E"/>
<path fill-rule="evenodd" clip-rule="evenodd" d="M30.0237 15.5312H32.2513V21.0764C32.2513 21.6889 31.7501 22.1901 31.1374 22.1901C30.5249 22.1901 30.0237 21.6889 30.0237 21.0764V15.5312Z" fill="#F0B16E"/>
<path fill-rule="evenodd" clip-rule="evenodd" d="M32.7028 12.9644L33.7256 17.0252H26.322L27.3448 12.9644C27.195 13.5581 26.5868 13.9215 25.9928 13.7719H25.9928C25.3988 13.6223 25.0352 13.0138 25.1848 12.4198L26.2555 8.16852C26.4676 7.32628 27.0722 6.70972 27.9102 6.48124C29.3192 6.09708 30.7282 6.09708 32.1373 6.48124C32.9753 6.70972 33.58 7.3262 33.792 8.16852L34.8628 12.4198C35.0124 13.0138 34.6488 13.6223 34.0548 13.7719H34.0547C33.4608 13.9215 32.8525 13.5581 32.7028 12.9644Z" fill="#FA6E85"/>
<path fill-rule="evenodd" clip-rule="evenodd" d="M30.0237 2.67456C31.0222 2.67456 31.8316 3.484 31.8316 4.4824C31.8316 5.48088 31.0221 6.29032 30.0237 6.29032C29.0253 6.29032 28.2158 5.48088 28.2158 4.4824C28.2159 3.48392 29.0253 2.67456 30.0237 2.67456Z" fill="#F0B16E"/>
<path fill-rule="evenodd" clip-rule="evenodd" d="M14.4304 8.84004V13.522C14.4304 14.1346 13.9292 14.6358 13.3166 14.6358C12.704 14.6358 12.2028 14.1346 12.2028 13.522V21.0764C12.2028 21.689 11.7016 22.1902 11.089 22.1902C10.4764 22.1902 9.97522 21.689 9.97522 21.0764C9.97522 21.689 9.47402 22.1902 8.86138 22.1902C8.24882 22.1902 7.74762 21.689 7.74762 21.0764V13.522C7.74762 14.1346 7.24642 14.6358 6.63378 14.6358C6.02122 14.6358 5.52002 14.1346 5.52002 13.522V8.84204C5.52002 7.96476 5.98562 7.21316 6.77114 6.82244C8.91322 5.75708 11.0498 5.75948 13.1807 6.82124C13.9655 7.2122 14.4304 7.96332 14.4304 8.84004Z" fill="#60B7FE"/>
<path fill-rule="evenodd" clip-rule="evenodd" d="M9.97532 2.67456C10.9738 2.67456 11.7832 3.484 11.7832 4.4824C11.7832 5.48088 10.9738 6.29032 9.97532 6.29032C8.97684 6.29032 8.16748 5.48088 8.16748 4.4824C8.1674 3.48392 8.97684 2.67456 9.97532 2.67456Z" fill="#F0B16E"/>
<path fill-rule="evenodd" clip-rule="evenodd" d="M26.4011 34.9613L27.4158 37.3223H12.5833L13.598 34.9613C13.8507 34.3733 14.3975 34.0132 15.0375 34.0132H24.9616C25.6016 34.0132 26.1484 34.3734 26.4011 34.9613Z" fill="#FFBF31"/>
<path fill-rule="evenodd" clip-rule="evenodd" d="M16.3769 24.5509L17.3916 22.1899H2.55908L3.5738 24.5509C3.82652 25.1389 4.37332 25.4991 5.01332 25.4991H14.9374C15.5774 25.4991 16.1242 25.1389 16.3769 24.5509Z" fill="#19CFBA"/>
<path fill-rule="evenodd" clip-rule="evenodd" d="M36.4253 24.5509L37.44 22.1899H22.6074L23.6221 24.5509C23.8749 25.1389 24.4217 25.4991 25.0617 25.4991H34.9857C35.6257 25.4991 36.1725 25.1389 36.4253 24.5509Z" fill="#19CFBA"/>
<path fill-rule="evenodd" clip-rule="evenodd" d="M35.9253 24.3377C35.7589 24.7249 35.4078 24.9564 34.9865 24.9564H25.0619C24.6405 24.9564 24.2896 24.725 24.123 24.3377L23.4358 22.7369H36.6135L35.9253 24.3377ZM28.3416 21.0777V17.5722H29.4796V21.0777C29.4796 21.3915 29.2238 21.6468 28.9106 21.6468C28.5964 21.6467 28.3416 21.3914 28.3416 21.0777ZM27.8733 13.0997L28.7211 9.7363C28.7942 9.44422 28.6167 9.14798 28.3255 9.07438C28.0334 9.00078 27.7377 9.17742 27.6636 9.46998L26.8168 12.8329C26.74 13.1365 26.4304 13.3219 26.1268 13.2451C25.8224 13.1688 25.638 12.8552 25.7137 12.5547L26.7841 8.3035C26.9479 7.65678 27.4102 7.18438 28.0537 7.0091C28.5151 6.8835 28.982 6.80118 29.4425 6.76438C29.6288 6.81174 29.8233 6.8371 30.0248 6.8371C30.2249 6.8371 30.4199 6.81182 30.6062 6.76438C31.0667 6.80118 31.5331 6.8835 31.9945 7.0091C32.6385 7.18438 33.1017 7.65678 33.2645 8.3035L34.3344 12.5547C34.411 12.857 34.2249 13.1694 33.9217 13.2451C33.6186 13.3214 33.309 13.1375 33.2322 12.8334L33.2313 12.8329L32.3849 9.46998C32.3113 9.1783 32.0156 9.00078 31.723 9.07438C31.4313 9.14798 31.2543 9.44422 31.3274 9.7363L33.0266 16.482H27.022L27.8733 13.0997ZM30.0246 3.2211C30.7205 3.2211 31.2868 3.78782 31.2868 4.48374C31.2868 5.18014 30.7205 5.74686 30.0246 5.74686C29.3277 5.74686 28.7615 5.18014 28.7615 4.48374C28.7615 3.78774 29.3277 3.2211 30.0246 3.2211ZM31.7069 21.0777C31.7069 21.3915 31.4516 21.6468 31.1378 21.6468C30.8245 21.6468 30.5697 21.3915 30.5697 21.0777V17.5722H31.7069V21.0777ZM25.9005 35.1781L26.5886 36.7793H13.4109L14.099 35.1781C14.2655 34.7913 14.6165 34.5599 15.0378 34.5599H24.9625C25.3829 34.5599 25.7344 34.7913 25.9005 35.1781ZM4.0755 24.3377L3.38733 22.7369H16.565L15.8769 24.3377C15.7104 24.7249 15.3593 24.9564 14.9376 24.9564H5.0143C4.59246 24.9564 4.24149 24.7249 4.0755 24.3377ZM8.2931 21.0777V9.58542C8.2931 9.28366 8.04934 9.0403 7.74798 9.0403C7.44718 9.0403 7.20294 9.28366 7.20294 9.58542V13.5238C7.20294 13.8371 6.94806 14.0919 6.63486 14.0919C6.32069 14.0919 6.06581 13.837 6.06581 13.5238V8.8435C6.06581 8.17054 6.41174 7.61166 7.01478 7.31222C7.6919 6.97502 8.37494 6.75246 9.0479 6.64566C9.33262 6.76846 9.64678 6.83702 9.97614 6.83702C10.306 6.83702 10.6197 6.76846 10.9053 6.64518C11.5792 6.75094 12.2613 6.97358 12.9384 7.31078C13.5405 7.6107 13.8864 8.1691 13.8864 8.84206V13.5238C13.8864 13.8371 13.6311 14.0919 13.3169 14.0919C13.0033 14.0919 12.7479 13.837 12.7479 13.5238V9.58542C12.7479 9.28366 12.5041 9.0403 12.2033 9.0403C11.9025 9.0403 11.6582 9.28366 11.6582 9.58542V21.0777C11.6582 21.3915 11.4033 21.6468 11.0897 21.6468C10.776 21.6468 10.5211 21.3915 10.5211 21.0777V15.6545C10.5211 15.3537 10.2769 15.1094 9.97606 15.1094C9.67478 15.1094 9.43094 15.3537 9.43094 15.6545V21.0777C9.43094 21.3915 9.17566 21.6468 8.8619 21.6468C8.54886 21.6467 8.2931 21.3914 8.2931 21.0777ZM9.97614 3.2211C10.6721 3.2211 11.2388 3.78782 11.2388 4.48374C11.2388 5.18014 10.6721 5.74686 9.97614 5.74686C9.27974 5.74686 8.71302 5.18014 8.71302 4.48374C8.71302 3.78774 9.27974 3.2211 9.97614 3.2211ZM37.896 21.8924C37.7953 21.7392 37.6232 21.6468 37.4401 21.6468H32.6968C32.7612 21.4697 32.7966 21.2774 32.7966 21.0777V17.5722H33.7262C34.0805 17.5722 34.341 17.2369 34.2548 16.8937L33.6121 14.3436C34.7488 14.4632 35.6734 13.4087 35.3918 12.2889L34.3214 8.03718C34.0593 6.99758 33.3159 6.23958 32.2809 5.9571C32.1627 5.92494 32.0441 5.8959 31.9249 5.8683C33.0513 4.32582 31.9485 2.13094 30.0247 2.13094C28.098 2.13094 26.997 4.3279 28.1236 5.8683C28.0045 5.8959 27.8857 5.92486 27.7676 5.9571C26.7326 6.2395 25.9893 6.99758 25.7276 8.03718L24.6567 12.2889C24.3755 13.4071 25.2981 14.4633 26.4359 14.3436L25.7937 16.8937C25.7079 17.2372 25.9677 17.5722 26.3227 17.5722H27.2514V21.0777C27.2514 21.2774 27.2869 21.4697 27.3517 21.6468H22.6078C22.2185 21.6468 21.9537 22.0497 22.1073 22.4072L23.1216 24.7678C23.461 25.5562 24.2044 26.0461 25.0618 26.0461H29.135L28.3816 28.3645C28.1773 28.9951 27.6161 29.4022 26.9533 29.4022H13.0461C12.3833 29.4022 11.823 28.9951 11.6184 28.3645L10.8649 26.0461H14.9377C15.796 26.0461 16.5393 25.5562 16.8779 24.7678L17.8931 22.4072C18.0467 22.0501 17.7811 21.6468 17.3926 21.6468H12.6479C12.7128 21.4697 12.7481 21.2774 12.7481 21.0777V15.0818C13.8154 15.4734 14.9763 14.6841 14.9763 13.5238V8.84206C14.9763 7.75606 14.3967 6.81854 13.4248 6.3347C12.9367 6.0923 12.4441 5.90142 11.9505 5.76158C12.9601 4.2035 11.8389 2.13086 9.9763 2.13086C8.11158 2.13086 6.99166 4.2059 8.00246 5.76294C7.50982 5.90326 7.01718 6.09366 6.5291 6.33606C5.55622 6.8195 4.97574 7.75694 4.97574 8.84342V13.5237C4.97574 14.6861 6.14094 15.4734 7.20302 15.0817V21.0777C7.20302 21.2773 7.23886 21.4696 7.30422 21.6467H2.55933C2.17085 21.6467 1.90533 22.05 2.05885 22.4071L3.07405 24.7677C3.41261 25.5561 4.15598 26.0461 5.0143 26.0461H9.71862L10.582 28.7016C10.9353 29.7894 11.9026 30.4918 13.0461 30.4918H19.4547V33.4697H15.0379C14.1801 33.4697 13.4362 33.9597 13.0977 34.7476L12.0834 37.1082C11.9293 37.4665 12.1948 37.869 12.5844 37.869H27.4166C27.8057 37.869 28.0709 37.4657 27.9171 37.1082L26.9029 34.7476C26.5634 33.9596 25.8201 33.4697 24.9626 33.4697H20.5449V30.4918H26.9535C28.0975 30.4918 29.0653 29.7894 29.4185 28.7016L30.281 26.0461H34.9867C35.8446 26.0461 36.5879 25.5561 36.9269 24.7677L37.9412 22.4071C38.0137 22.2392 37.9962 22.0451 37.896 21.8924Z" fill="#1E2F3F"/>
</svg>
