<svg width="50" height="50" viewBox="0 0 50 50" fill="none" xmlns="http://www.w3.org/2000/svg">
<g clip-path="url(#clip0_513_6201)">
<mask id="mask0_513_6201" style="mask-type:luminance" maskUnits="userSpaceOnUse" x="0" y="0" width="50" height="50">
<path d="M0 3.8147e-06H50V50H0V3.8147e-06Z" fill="white"/>
</mask>
<g mask="url(#mask0_513_6201)">
<path d="M33.7313 31.7238C24.8975 27.2396 14.4542 27.2396 5.62041 31.7238C3.70068 32.6983 2.49121 34.6687 2.49121 36.8216V48.1113C2.49121 48.7499 3.00889 49.2676 3.64756 49.2676H36.8604V36.8216C36.8604 34.6687 35.651 32.6983 33.7313 31.7238Z" fill="#51A1C8"/>
<path d="M23.3732 31.5039H15.9788V22.0246H23.3732V31.5039Z" fill="#FED6A6"/>
<path d="M18.5347 29.0574C18.5347 30.1921 19.3431 31.1676 20.4591 31.3729C20.6814 31.4139 20.9035 31.4581 21.1253 31.5039H23.3729V22.0246H18.5347V29.0574Z" fill="#EFC79C"/>
<path d="M28.2134 4.27246H11.1381C9.74717 4.27246 8.61963 5.4 8.61963 6.79092V13.7583H30.7318V6.79092C30.7318 5.4 29.6042 4.27246 28.2134 4.27246Z" fill="#FA9A39"/>
<path d="M11.5681 11.5793H10.2238C9.08306 11.5793 8.15942 12.5042 8.15942 13.645V14.622C8.15942 15.7627 9.08306 16.6877 10.2238 16.6877H11.5681V11.5793Z" fill="#FED6A6"/>
<path d="M27.7837 11.5793H29.128C30.2687 11.5793 31.1924 12.5042 31.1924 13.645V14.622C31.1924 15.7627 30.2687 16.6877 29.128 16.6877H27.7837V11.5793Z" fill="#FED6A6"/>
<path d="M10.9587 8.19522L10.9885 17.833C11.046 20.2886 12.4388 21.9831 13.9167 23.4382C15.2764 24.7771 17.1267 26.3587 19.7221 26.3809C22.3174 26.3408 24.1567 24.7487 25.5073 23.4004C26.975 21.9352 28.3561 20.229 28.3967 17.7731L28.3787 11.9299C28.3723 9.86543 26.697 8.19522 24.6326 8.19522H10.9587Z" fill="#FFE3C2"/>
<path d="M28.3787 11.9299C28.3724 9.86543 26.697 8.19522 24.6325 8.19522H23.5646L23.5941 17.7731C23.5535 20.229 22.1725 21.9353 20.7048 23.4004C19.8101 24.2936 18.7006 25.2934 17.2993 25.8784C18.0258 26.1813 18.83 26.3732 19.7222 26.3809C22.3174 26.3408 24.1567 24.7487 25.5073 23.4004C26.975 21.9353 28.3562 20.229 28.3968 17.7731L28.3787 11.9299Z" fill="#F7D6B5"/>
<path d="M14.6664 0.732374C12.6728 0.732374 11.0479 2.30747 10.9665 4.28091C9.67202 4.38648 8.61987 5.46987 8.61987 6.79087V12.3455C8.99819 11.8785 9.57573 11.5793 10.2238 11.5793H10.9694H10.969C12.3353 11.5793 13.5019 10.4835 13.7707 9.1439C13.7707 8.62573 14.1907 8.20571 14.7088 8.20571H24.1145H24.8328C27.9003 8.20571 30.387 5.719 30.387 2.65142V0.988722C30.387 0.847218 30.2722 0.732374 30.1306 0.732374H14.6664Z" fill="#FDBD37"/>
<path d="M24.0528 27.6975L19.6758 31.5039L24.1937 34.2486C24.5417 34.4601 24.9939 34.3674 25.2309 34.0362L28.3948 29.6108L25.7074 27.6306C25.2083 27.2628 24.5207 27.2906 24.0528 27.6975Z" fill="#3990B2"/>
<path d="M33.7312 31.7238C32.0057 30.848 30.2186 30.1441 28.3943 29.6105L28.3948 29.6109L26.0134 32.9417C26.9888 33.3181 27.9501 33.7443 28.8929 34.2229C30.8126 35.1974 32.0221 37.1678 32.0221 39.3206V49.2676H36.8603V36.8216C36.8603 34.6687 35.6509 32.6983 33.7312 31.7238Z" fill="#4497B7"/>
<path d="M15.3007 27.6975L19.6777 31.5039L15.1599 34.2486C14.8118 34.4601 14.3595 34.3674 14.1227 34.0362L10.9587 29.6108L13.6461 27.6306C14.1453 27.2628 14.8329 27.2906 15.3007 27.6975Z" fill="#3990B2"/>
<path d="M22.889 49.2676L21.2461 35.9157H19.6757H18.1054L16.4624 49.2676H22.889Z" fill="#3E678C"/>
<path d="M19.6767 31.5044L17.0564 33.0963L18.1053 35.9155H21.2461L22.2954 33.0953L19.6767 31.5044Z" fill="#375779"/>
<path d="M7.9165 49.2676V42.7199" stroke="black" stroke-miterlimit="10" stroke-linecap="round" stroke-linejoin="round"/>
<path d="M40.1663 34.7334V32.5828C40.1663 31.9869 39.6276 31.5039 38.9631 31.5039H34.3869C33.7224 31.5039 33.1838 31.9869 33.1838 32.5828V34.7334" stroke="black" stroke-miterlimit="10" stroke-linecap="round" stroke-linejoin="round"/>
<path d="M19.5034 15.5644V17.5058C19.5034 17.6745 19.6401 17.8113 19.8088 17.8113H20.4485" stroke="black" stroke-miterlimit="10" stroke-linecap="round" stroke-linejoin="round"/>
<path d="M16.7727 20.6142C17.3014 21.4498 18.4026 22.0247 19.6761 22.0247C20.9496 22.0247 22.0508 21.4498 22.5795 20.6142" stroke="black" stroke-miterlimit="10" stroke-linecap="round" stroke-linejoin="round"/>
<path d="M24.1206 13.7583V14.6428" stroke="black" stroke-miterlimit="10" stroke-linecap="round" stroke-linejoin="round"/>
<path d="M15.231 13.7583V14.6428" stroke="black" stroke-miterlimit="10" stroke-linecap="round" stroke-linejoin="round"/>
<path d="M45.2643 34.7334H28.0858C26.8462 34.7334 25.8413 35.7384 25.8413 36.9779V47.023C25.8413 48.2627 26.8462 49.2676 28.0858 49.2676H45.2643C46.5038 49.2676 47.5087 48.2627 47.5087 47.023V36.9779C47.5087 35.7384 46.5038 34.7334 45.2643 34.7334Z" fill="#D08F61"/>
<path d="M45.2644 34.7334H40.4307C41.6703 34.7334 42.6752 35.7384 42.6752 36.9779V47.023C42.6752 48.2627 41.6703 49.2676 40.4307 49.2676H45.2644C46.5039 49.2676 47.5088 48.2627 47.5088 47.023V36.9779C47.5088 35.7384 46.5039 34.7334 45.2644 34.7334Z" fill="#C67F4F"/>
<path d="M47.5065 36.9313C47.4814 35.7134 46.4883 34.7334 45.2645 34.7334H28.0859C26.8621 34.7334 25.8689 35.7134 25.8438 36.9313C25.8937 39.4943 27.9854 41.5569 30.5602 41.5569H42.7901C45.3649 41.5569 47.4567 39.4943 47.5065 36.9313Z" fill="#8B5F46"/>
<path d="M42.6752 36.978V41.5569H42.7901C45.3649 41.5569 47.4566 39.4943 47.5065 36.9313C47.4885 36.0563 46.9706 35.3041 46.2266 34.9499C46.2241 34.9488 46.2218 34.9477 46.2193 34.9466C46.1896 34.9326 46.1595 34.9191 46.1289 34.9063C46.1236 34.9041 46.1182 34.9021 46.1129 34.9C46.085 34.8885 46.0569 34.8774 46.0284 34.867C46.0207 34.8642 46.0127 34.8619 46.0049 34.8591C45.9787 34.8499 45.9523 34.8409 45.9257 34.8327C45.915 34.8294 45.9042 34.8266 45.8937 34.8235C45.8693 34.8165 45.8451 34.8093 45.8205 34.8031C45.8068 34.7996 45.7929 34.7967 45.7791 34.7935C45.7572 34.7883 45.7354 34.783 45.7132 34.7785C45.6969 34.7751 45.6803 34.7726 45.6639 34.7697C45.6437 34.7661 45.6238 34.7621 45.6036 34.759C45.5844 34.7561 45.5649 34.7541 45.5456 34.7516C45.5277 34.7495 45.5102 34.7467 45.4923 34.745C45.4688 34.7425 45.4451 34.7412 45.4215 34.7396C45.4073 34.7385 45.3933 34.7371 45.379 34.7364C45.3412 34.7344 45.3031 34.7335 45.2648 34.7335C45.2648 34.7335 45.2646 34.7334 45.2644 34.7334H40.4307C41.6703 34.7334 42.6752 35.7384 42.6752 36.978Z" fill="#844535"/>
<path d="M38.6291 42.7415H34.7211C34.5021 42.7415 34.3245 42.5638 34.3245 42.3448V40.7687C34.3245 40.5497 34.5021 40.372 34.7211 40.372H38.6291C38.8481 40.372 39.0257 40.5497 39.0257 40.7687V42.3448C39.0257 42.5638 38.8481 42.7415 38.6291 42.7415Z" fill="#E4EBF0"/>
<path d="M10.9694 11.5793H10.969C12.3353 11.5793 13.5019 10.4835 13.7707 9.1439C13.7707 8.62573 14.1907 8.20571 14.7088 8.20571H24.1145H24.8328C27.9003 8.20571 30.387 5.71899 30.387 2.65142V0.988722C30.387 0.847218 30.2722 0.732374 30.1306 0.732374H14.6664C12.6728 0.732374 11.0479 2.30747 10.9665 4.28091C9.67202 4.38648 8.61987 5.46987 8.61987 6.79087V12.3455" stroke="black" stroke-miterlimit="10" stroke-linecap="round" stroke-linejoin="round"/>
<path d="M10.9692 11.5793L10.9886 17.833C11.0461 20.2887 12.4389 21.9831 13.9167 23.4382C15.2765 24.7771 17.1268 26.3587 19.7222 26.3809C22.3175 26.3408 24.1568 24.7487 25.5073 23.4004C26.975 21.9352 28.3562 20.229 28.3968 17.7731L28.3787 11.9299C28.3727 9.94942 26.8303 8.33272 24.8821 8.2044C24.8655 8.20459 24.8492 8.20567 24.8326 8.20567" stroke="black" stroke-miterlimit="10" stroke-linecap="round" stroke-linejoin="round"/>
<path d="M10.9692 11.5793L10.9886 17.833C11.0461 20.2887 12.4389 21.9831 13.9167 23.4382C15.2765 24.7771 17.1268 26.3587 19.7222 26.3809C22.3175 26.3408 24.1568 24.7487 25.5073 23.4004C26.975 21.9352 28.3562 20.229 28.3968 17.7731L28.3787 11.9299" stroke="black" stroke-miterlimit="10" stroke-linecap="round" stroke-linejoin="round"/>
<path d="M28.3611 11.5793H29.1279C29.776 11.5793 30.3534 11.8785 30.7318 12.3455V6.79087C30.7318 6.04937 30.4113 5.38286 29.9012 4.92202" stroke="black" stroke-miterlimit="10" stroke-linecap="round" stroke-linejoin="round"/>
<path d="M28.3934 16.6877H29.1279C30.2686 16.6877 31.1922 15.7628 31.1922 14.6221V13.645C31.1922 12.5043 30.2686 11.5793 29.1279 11.5793H28.3611" stroke="black" stroke-miterlimit="10" stroke-linecap="round" stroke-linejoin="round"/>
<path d="M10.9694 11.5793H10.2238C9.08306 11.5793 8.15942 12.5042 8.15942 13.645V14.622C8.15942 15.7627 9.08306 16.6877 10.2238 16.6877H10.9852" stroke="black" stroke-miterlimit="10" stroke-linecap="round" stroke-linejoin="round"/>
<path d="M23.373 28.2888V25.198" stroke="black" stroke-miterlimit="10" stroke-linecap="round" stroke-linejoin="round"/>
<path d="M15.9785 25.1667V28.2869" stroke="black" stroke-miterlimit="10" stroke-linecap="round" stroke-linejoin="round"/>
<path d="M24.0528 27.6975L19.6758 31.5039L24.1937 34.2486C24.5417 34.4601 24.9939 34.3674 25.2309 34.0362L28.3948 29.6108L25.7074 27.6306C25.2083 27.2628 24.5207 27.2906 24.0528 27.6975Z" stroke="black" stroke-miterlimit="10" stroke-linecap="round" stroke-linejoin="round"/>
<path d="M15.3007 27.6975L19.6777 31.5039L15.1599 34.2486C14.8118 34.4601 14.3595 34.3674 14.1227 34.0362L10.9587 29.6108L13.6461 27.6306C14.1453 27.2628 14.8329 27.2906 15.3007 27.6975Z" stroke="black" stroke-miterlimit="10" stroke-linecap="round" stroke-linejoin="round"/>
<path d="M19.6767 31.5044L17.0564 33.0963L18.1053 35.9155H21.2461L22.2954 33.0953L19.6767 31.5044Z" stroke="black" stroke-miterlimit="10" stroke-linecap="round" stroke-linejoin="round"/>
<path d="M22.889 49.2676L21.2461 35.9157H19.6757H18.1054L16.4624 49.2676H22.889Z" stroke="black" stroke-miterlimit="10" stroke-linecap="round" stroke-linejoin="round"/>
<path d="M36.465 34.7334C35.9616 33.4511 35.0023 32.369 33.7313 31.7238C32.0055 30.8478 30.2182 30.1437 28.3936 29.61L28.3948 29.6108" stroke="black" stroke-miterlimit="10" stroke-linecap="round" stroke-linejoin="round"/>
<path d="M2.49146 42.5916V48.1112C2.49146 48.7499 3.00913 49.2676 3.6478 49.2676H28.0862" stroke="black" stroke-miterlimit="10" stroke-linecap="round" stroke-linejoin="round"/>
<path d="M10.9588 29.6107L10.9614 29.6088C9.13564 30.1427 7.34717 30.8471 5.62031 31.7236C3.70059 32.6981 2.49121 34.6686 2.49121 36.8214V39.1763" stroke="black" stroke-miterlimit="10" stroke-linecap="round" stroke-linejoin="round"/>
<path d="M38.6291 42.7415H34.7211C34.5021 42.7415 34.3245 42.5638 34.3245 42.3448V40.7687C34.3245 40.5497 34.5021 40.372 34.7211 40.372H38.6291C38.8481 40.372 39.0257 40.5497 39.0257 40.7687V42.3448C39.0257 42.5638 38.8481 42.7415 38.6291 42.7415Z" stroke="black" stroke-miterlimit="10" stroke-linecap="round" stroke-linejoin="round"/>
<path d="M25.8413 41.871V47.023C25.8413 48.2627 26.8462 49.2676 28.0858 49.2676H45.2643C46.5038 49.2676 47.5088 48.2627 47.5088 47.023V41.871" stroke="black" stroke-miterlimit="10" stroke-linecap="round" stroke-linejoin="round"/>
<path d="M39.0258 41.5569H42.7901C45.3649 41.5569 47.4567 39.4942 47.5065 36.9313C47.4814 35.7134 46.4883 34.7334 45.2644 34.7334H28.0859C26.8621 34.7334 25.8688 35.7134 25.8438 36.9313C25.8936 39.4942 27.9854 41.5569 30.5602 41.5569H34.3245" stroke="black" stroke-miterlimit="10" stroke-linecap="round" stroke-linejoin="round"/>
</g>
</g>
<defs>
<clipPath id="clip0_513_6201">
<rect width="50" height="50" fill="white"/>
</clipPath>
</defs>
</svg>
