<svg width="40" height="40" viewBox="0 0 40 40" fill="none" xmlns="http://www.w3.org/2000/svg">
<g clip-path="url(#clip0_1916_6109)">
<path d="M20.6667 18.9719C22.0479 18.6454 22.9029 17.2611 22.5764 15.8799C22.2499 14.4986 20.8655 13.6436 19.4843 13.9701C18.1031 14.2966 17.2481 15.681 17.5746 17.0622C17.9011 18.4434 19.2854 19.2984 20.6667 18.9719Z" fill="#FFCEC0"/>
<path fill-rule="evenodd" clip-rule="evenodd" d="M12.0249 39.118L12.0234 39.1118C11.2968 35.4782 9.52338 32.4961 6.70385 30.1649C4.82885 29.0227 3.54526 27.754 2.85307 26.3594C2.20541 25.0211 3.82729 24.079 4.69369 25.154C8.59213 29.793 12.1859 28.5875 14.8117 22.804C16.1828 23.4602 16.8687 23.7883 16.8687 23.7883C13.8538 28.8133 13.2679 33.9204 15.1093 39.1086L15.1124 39.118H12.0242H12.0249Z" fill="#DBFF78"/>
<path fill-rule="evenodd" clip-rule="evenodd" d="M28.128 39.118L28.1319 39.0977C28.86 35.4711 30.6327 32.493 33.4483 30.1649C35.3225 29.0227 36.6069 27.754 37.2991 26.3594C37.9467 25.0211 36.3249 24.079 35.4584 25.154C31.56 29.793 27.9663 28.5875 25.3405 22.804C23.9694 23.4602 23.2834 23.7883 23.2834 23.7883C26.2967 28.811 26.8842 33.9149 25.0452 39.1008L25.0389 39.118H28.1272H28.128Z" fill="#DBFF78"/>
<path fill-rule="evenodd" clip-rule="evenodd" d="M29.2623 13.0304V14.6156C29.2623 16.9328 28.3951 19.0546 26.9693 20.6734C22.9443 25.2453 22.7779 32.8703 22.3193 39.1015V39.1171H17.8334V39.1062C17.374 32.8742 17.2092 25.246 13.1826 20.6734C11.7568 19.0539 10.8896 16.932 10.8896 14.6156V13.0304C10.8896 12.3835 11.3975 12.0046 12.0107 12.0046C12.624 12.0046 13.1279 12.3867 13.1279 13.0304V14.6156C13.1279 18.4367 16.2545 21.5632 20.0756 21.5632C23.8967 21.5632 27.0232 18.4367 27.0232 14.6156V13.0304C27.0232 12.382 27.5318 12.0046 28.1451 12.0046C28.7584 12.0046 29.2607 12.3875 29.2607 13.0304H29.2623Z" fill="#85CAFF"/>
<path fill-rule="evenodd" clip-rule="evenodd" d="M7.79599 18.2516L5.77724 19.2L5.49912 21.4133C5.48506 21.5273 5.41006 21.618 5.30068 21.6531C5.19131 21.6891 5.07803 21.6594 4.99912 21.5758L3.47334 19.9492L1.28271 20.3687C1.16943 20.3906 1.06084 20.3477 0.99287 20.2539C0.924901 20.1609 0.91787 20.0438 0.973338 19.943L2.04912 17.9891L0.973338 16.0352C0.91787 15.9344 0.924901 15.8172 0.99287 15.7242C1.06084 15.6313 1.16943 15.5883 1.28271 15.6094L3.47334 16.0289L4.99912 14.4023C5.07803 14.318 5.19131 14.2891 5.30068 14.325C5.41006 14.3609 5.48506 14.4508 5.49912 14.5648L5.77724 16.7781L7.79599 17.7266C7.90068 17.7758 7.96318 17.8742 7.96318 17.9898C7.96318 18.1055 7.90068 18.2039 7.79599 18.2531V18.2516ZM29.3249 1.19766L29.1366 3.42031L30.914 4.76797C31.0062 4.8375 31.0468 4.94687 31.0226 5.06016C30.9983 5.17266 30.9171 5.25625 30.8046 5.28281L28.6327 5.79062L27.9007 7.89766C27.8632 8.00625 27.771 8.07891 27.6562 8.09141C27.5413 8.10312 27.4366 8.05156 27.3772 7.95312L26.2233 6.04453L23.9936 5.99922C23.878 5.99687 23.7811 5.93203 23.7343 5.82656C23.6874 5.72109 23.7046 5.60547 23.7796 5.51797L25.2382 3.83047L24.5921 1.69531C24.5585 1.58516 24.5897 1.47266 24.6757 1.39531C24.7616 1.31797 24.8765 1.29844 24.9827 1.34375L27.0382 2.20937L28.8686 0.935156C28.9632 0.869531 29.0804 0.864062 29.1804 0.921875C29.2804 0.979687 29.3343 1.08281 29.3249 1.19844V1.19766ZM32.3569 18.2523L34.3757 19.2008L34.6538 21.4141C34.6679 21.5281 34.7429 21.6188 34.8522 21.6539C34.9616 21.6898 35.0749 21.6602 35.1538 21.5766L36.6796 19.95L38.8702 20.3695C38.9835 20.3914 39.0921 20.3484 39.1601 20.2547C39.228 20.1617 39.2351 20.0445 39.1796 19.9438L38.1038 17.9898L39.1796 16.0359C39.2351 15.9352 39.228 15.818 39.1601 15.725C39.0921 15.632 38.9835 15.5891 38.8702 15.6102L36.6796 16.0297L35.1538 14.4031C35.0749 14.3188 34.9616 14.2898 34.8522 14.3258C34.7429 14.3617 34.6679 14.4516 34.6538 14.5656L34.3757 16.7789L32.3569 17.7273C32.2522 17.7766 32.1897 17.875 32.1897 17.9906C32.1897 18.1063 32.2522 18.2047 32.3569 18.2539V18.2523ZM11.2843 0.934375L13.1147 2.20859L15.1702 1.34297C15.2765 1.29844 15.3921 1.31797 15.4772 1.39453C15.5632 1.47187 15.5944 1.58437 15.5608 1.69453L14.9147 3.82969L16.3733 5.51719C16.4491 5.60469 16.4655 5.72031 16.4187 5.82578C16.3718 5.93125 16.2741 5.99609 16.1593 5.99844L13.9296 6.04375L12.7757 7.95234C12.7163 8.05078 12.6116 8.10312 12.4968 8.09062C12.3819 8.07891 12.2905 8.00625 12.2522 7.89687L11.5202 5.78984L9.34834 5.28203C9.23584 5.25547 9.15459 5.17187 9.13037 5.05937C9.10615 4.94687 9.14756 4.83672 9.23896 4.76719L11.0163 3.41953L10.828 1.19687C10.8187 1.08203 10.8726 0.978124 10.9726 0.920312C11.0726 0.862499 11.189 0.867187 11.2843 0.933593V0.934375Z" fill="#FFEB87"/>
<path d="M9.70986 25.7288C10.7305 25.4875 11.3622 24.4646 11.121 23.444C10.8797 22.4234 9.85681 21.7917 8.83622 22.0329C7.81563 22.2742 7.18385 23.2971 7.4251 24.3177C7.66635 25.3383 8.68927 25.97 9.70986 25.7288Z" fill="#FFCEC0"/>
<path d="M31.3475 25.7375C32.3681 25.4931 32.9973 24.4676 32.7529 23.447C32.5085 22.4264 31.483 21.7972 30.4624 22.0416C29.4419 22.286 28.8126 23.3115 29.057 24.3321C29.3014 25.3527 30.3269 25.9819 31.3475 25.7375Z" fill="#FFCEC0"/>
<path fill-rule="evenodd" clip-rule="evenodd" d="M32.0812 23.889C32.0812 24.5921 31.5101 25.1632 30.807 25.1632C30.1039 25.1632 29.5336 24.5914 29.5336 23.889C29.5336 23.1867 30.1046 22.6148 30.807 22.6148C31.5093 22.6148 32.0812 23.1867 32.0812 23.889ZM28.2836 23.889C28.2836 25.2812 29.4156 26.4132 30.807 26.4132C32.1984 26.4132 33.3312 25.2812 33.3312 23.889C33.3312 22.4968 32.1992 21.3656 30.807 21.3656C29.4148 21.3656 28.2836 22.4976 28.2836 23.889ZM9.19371 22.6148C9.89606 22.6148 10.4679 23.1867 10.4679 23.889C10.4679 24.5914 9.89606 25.1632 9.19371 25.1632C8.49137 25.1632 7.9195 24.5914 7.9195 23.889C7.9195 23.1867 8.49215 22.6148 9.19371 22.6148ZM6.6695 23.889C6.6695 25.2812 7.80153 26.4132 9.19371 26.4132C10.5859 26.4132 11.7179 25.2812 11.7179 23.889C11.7179 22.4968 10.5851 21.3656 9.19371 21.3656C7.80231 21.3656 6.6695 22.4976 6.6695 23.889ZM2.52028 17.6875L1.78746 16.357L3.27887 16.6429C3.48903 16.6836 3.70543 16.6132 3.85153 16.457L4.89059 15.3492L5.08043 16.8562C5.10699 17.0687 5.24059 17.2531 5.43434 17.3445L6.80856 17.9906L5.43434 18.6359C5.24059 18.7281 5.10699 18.9117 5.08043 19.1242L4.89059 20.6312L3.85153 19.5234C3.73278 19.3961 3.56715 19.3265 3.39528 19.3265C3.35699 19.3265 3.31715 19.3296 3.27809 19.3375L1.78668 19.6234L2.5195 18.2929C2.62262 18.1046 2.62262 17.8773 2.5195 17.6898L2.52028 17.6875ZM4.46637 22.0039L3.17575 20.6289L1.32262 20.9836C0.970277 21.0507 0.621839 20.9117 0.41012 20.6218C0.199183 20.332 0.175745 19.9562 0.348402 19.6421L1.25856 17.9898L0.348402 16.3375C0.175745 16.0226 0.199183 15.6476 0.41012 15.357C0.621839 15.0672 0.970277 14.9281 1.32262 14.9961L3.17575 15.3507L4.46637 13.975C4.7109 13.7132 5.07575 13.6195 5.41715 13.7304C5.75778 13.8414 5.99684 14.1312 6.04215 14.4867L6.27731 16.3586L7.9859 17.1609C8.31012 17.3132 8.51168 17.6304 8.51168 17.9898C8.51168 18.3492 8.31012 18.6664 7.9859 18.8187L6.27731 19.6203L6.04215 21.4921C5.99684 21.8476 5.75778 22.1375 5.41715 22.2484C5.32184 22.2796 5.22496 22.2945 5.13043 22.2945C4.88121 22.2945 4.64293 22.1929 4.46559 22.0039H4.46637ZM37.4804 18.2914L38.2132 19.6218L36.7218 19.3359C36.5109 19.2961 36.2945 19.3664 36.1492 19.5218L35.1093 20.6297L34.9203 19.1226C34.8937 18.9101 34.7593 18.7265 34.5664 18.6343L33.1914 17.989L34.5664 17.3429C34.7593 17.2515 34.8937 17.0672 34.9203 16.8547L35.1093 15.3476L36.1492 16.4554C36.2945 16.6117 36.5117 16.682 36.7218 16.6414L38.2132 16.3554L37.4804 17.6859C37.3773 17.8742 37.3773 18.1015 37.4804 18.289V18.2914ZM39.6507 19.6421C39.8234 19.9562 39.8 20.332 39.589 20.6218C39.3789 20.9117 39.0289 21.0507 38.6765 20.9836L36.8234 20.6289L35.5336 22.0047C35.3562 22.1937 35.1171 22.2945 34.8695 22.2945C34.7742 22.2945 34.6773 22.2796 34.5828 22.2484C34.2414 22.1375 34.0015 21.8484 33.957 21.4921L33.7218 19.6203L32.014 18.8187C31.6898 18.6664 31.4882 18.3484 31.4882 17.9898C31.4882 17.6312 31.6898 17.3132 32.014 17.1609L33.7218 16.3586L33.957 14.4867C34.0023 14.1312 34.2421 13.8406 34.5828 13.7304C34.9242 13.6195 35.2882 13.7132 35.5343 13.975L36.8242 15.3507L38.6773 14.9961C39.0296 14.9289 39.3796 15.0672 39.5898 15.357C39.8007 15.6468 39.8242 16.0226 39.6515 16.3375L38.7414 17.9898L39.6515 19.6421H39.6507ZM25.6336 4.23902C25.775 4.0773 25.8211 3.85465 25.7593 3.64918L25.3203 2.19527L26.7187 2.78512C26.9171 2.86793 27.1429 2.84449 27.3187 2.72262L28.5656 1.85465L28.4375 3.36871C28.4195 3.58199 28.5117 3.7898 28.6828 3.91871L29.8937 4.8359L28.4148 5.18199C28.2062 5.23043 28.0367 5.38277 27.9664 5.58512L27.4671 7.01949L26.6812 5.71949C26.5703 5.53668 26.3734 5.42262 26.1593 5.41793L24.6406 5.38668L25.6336 4.23746V4.23902ZM23.9046 6.6234L25.7898 6.66168L26.7664 8.27574C26.9343 8.55465 27.2273 8.71793 27.5461 8.71793C27.5789 8.71793 27.6117 8.71637 27.6453 8.71324C28.0015 8.67574 28.2968 8.44137 28.414 8.10387L29.0336 6.32184L30.8695 5.89293C31.2187 5.8109 31.482 5.54215 31.557 5.19137C31.632 4.84059 31.5 4.48824 31.2148 4.27105L29.7109 3.13199L29.8703 1.25231C29.9 0.894493 29.7257 0.56168 29.4156 0.381993C29.1046 0.203086 28.7289 0.218711 28.4343 0.423399L26.8859 1.50074L25.1476 0.768711C24.8172 0.63043 24.4461 0.692149 24.1796 0.931993C23.914 1.17262 23.8125 1.53512 23.9156 1.87809L24.4625 3.68356L23.2289 5.1109C22.9945 5.38199 22.939 5.75387 23.0851 6.08199C23.2304 6.40934 23.5445 6.61793 23.9031 6.62496L23.9046 6.6234ZM11.3179 3.91871C11.4882 3.7898 11.5812 3.58199 11.5632 3.36871L11.4343 1.85465L12.6804 2.72184C12.857 2.84449 13.0828 2.86793 13.2804 2.78512L14.6796 2.19527L14.2398 3.64918C14.1781 3.85465 14.2257 4.07652 14.3656 4.23902L15.3586 5.38824L13.8398 5.41949C13.6257 5.42418 13.4289 5.53824 13.3179 5.72106L12.532 7.02106L12.0336 5.58668C11.9625 5.38434 11.7937 5.23199 11.5843 5.18355L10.1062 4.83746L11.3172 3.92027L11.3179 3.91871ZM9.12965 5.89137L10.9664 6.32027L11.5859 8.1023C11.7039 8.44137 11.9984 8.67496 12.3554 8.71168C12.389 8.71481 12.4211 8.71637 12.4539 8.71637C12.7726 8.71637 13.0656 8.55309 13.2343 8.27418L14.2101 6.66012L16.0961 6.62184C16.4546 6.61481 16.7679 6.40621 16.914 6.07887C17.0593 5.75152 17.0047 5.37887 16.7695 5.10855L15.5359 3.68121L16.0828 1.87574C16.1867 1.53277 16.0843 1.16949 15.8187 0.929649C15.5523 0.689805 15.1812 0.627305 14.8507 0.766368L13.1125 1.4984L11.564 0.421055C11.2695 0.215586 10.8937 0.199961 10.5828 0.379649C10.2726 0.559336 10.0984 0.892149 10.1289 1.24996L10.2875 3.12887L8.78434 4.26871C8.4984 4.48512 8.36715 4.83824 8.44215 5.18902C8.51715 5.5398 8.77965 5.80856 9.12887 5.89059L9.12965 5.89137ZM36.664 26.082C36.8711 25.6531 36.65 25.4523 36.5453 25.3859C36.3703 25.275 36.1007 25.2593 35.8687 25.5468C35.8664 25.55 35.864 25.5531 35.8601 25.5562C34.1461 27.5961 32.425 28.6265 30.7351 28.6265C30.55 28.6265 30.3664 28.614 30.182 28.5898C28.3601 28.3461 26.7296 26.9156 25.3273 24.3359C25.1539 24.7257 24.9945 25.1265 24.8476 25.5367C26.8375 29.7796 27.1671 34.1328 25.8289 38.4937H27.5468C28.3593 34.9547 30.1836 31.9921 32.9742 29.6843C32.9976 29.6648 33.0218 29.6476 33.0476 29.632C34.8109 28.5578 36.0273 27.3632 36.664 26.082ZM18.3398 38.4937C18.3148 38.1343 18.289 37.7718 18.2648 37.4054C17.8554 31.4007 17.3914 24.5953 13.5765 20.2625C12.1992 18.6976 11.4406 16.6929 11.4406 14.6171V13.032C11.4406 12.6695 11.7867 12.6304 11.9359 12.6304C12.0851 12.6304 12.4289 12.6695 12.4289 13.032V14.6171C12.4289 18.7929 15.825 22.1898 20.0015 22.1898C24.1781 22.1898 27.5742 18.7929 27.5742 14.6171V13.032C27.5742 12.6695 27.9218 12.6304 28.0711 12.6304C28.1867 12.6304 28.5625 12.6593 28.5625 13.032V14.6171C28.5625 16.6922 27.8031 18.6968 26.425 20.2625C22.6101 24.5953 22.1461 31.4015 21.7367 37.4062C21.7117 37.7718 21.6882 38.1359 21.6617 38.4937H18.3406H18.3398ZM12.4531 38.4937H14.1711C12.8336 34.1343 13.1625 29.7804 15.1523 25.5367C15.0054 25.1265 14.8468 24.7257 14.6734 24.3359C13.2703 26.9156 11.6406 28.3461 9.81793 28.5898C7.95153 28.8398 6.04059 27.8195 4.13903 25.5562C4.13668 25.5531 4.13356 25.55 4.13043 25.5468C3.8984 25.2593 3.62887 25.275 3.45387 25.3859C3.3484 25.4515 3.12809 25.6531 3.33824 26.0875C3.97184 27.3632 5.18824 28.557 6.95231 29.632C6.97731 29.6476 7.00231 29.6648 7.02496 29.6843C9.81559 31.9906 11.6398 34.9531 12.4523 38.4937H12.4531ZM15.4836 38.4937H17.0859C17.0625 38.1625 17.0398 37.8281 17.0172 37.4898C16.7906 34.1711 16.5468 30.5984 15.7195 27.3976C14.3367 31.0445 14.2562 34.7679 15.4836 38.4937ZM24.5164 38.4937H22.914C22.9375 38.1617 22.9601 37.8281 22.9828 37.4906C23.2093 34.1711 23.4531 30.5984 24.2804 27.3976C25.6632 31.0437 25.7437 34.7672 24.5164 38.4937ZM37.2148 24.3304C36.5679 23.9211 35.5672 23.9367 34.9007 24.757C33.2937 26.6672 31.7625 27.5406 30.3476 27.3507C28.8023 27.1437 27.3117 25.6265 26.0265 22.9586C26.4148 22.289 26.857 21.6617 27.3625 21.0875C28.9414 19.2945 29.8117 16.9961 29.8117 14.6164V13.0312C29.8117 12.0742 29.0789 11.3797 28.0703 11.3797C27.0617 11.3797 26.3234 12.0742 26.3234 13.0312V14.6164C26.3234 18.1023 23.4867 20.939 20.0007 20.939C16.5148 20.939 13.6781 18.1023 13.6781 14.6164V13.0312C13.6781 12.0742 12.9453 11.3797 11.9351 11.3797C10.925 11.3797 10.1898 12.0742 10.1898 13.0312V14.6164C10.1898 16.9961 11.0593 19.2937 12.6382 21.0875C13.1445 21.6617 13.5859 22.289 13.9742 22.9586C12.6898 25.6265 11.2 27.1437 9.65387 27.3507C8.23903 27.5398 6.70778 26.6672 5.10074 24.757C4.43434 23.9367 3.43278 23.9203 2.78668 24.3304C2.02653 24.8125 1.79215 25.7586 2.21793 26.6382C2.95543 28.1242 4.31715 29.482 6.26403 30.6765C8.74215 32.7367 10.389 35.3625 11.1679 38.4937H7.98356C7.63825 38.4937 7.35856 38.7734 7.35856 39.1187C7.35856 39.464 7.63825 39.7445 7.98356 39.7445H32.0171C32.3625 39.7445 32.6421 39.464 32.6421 39.1187C32.6421 38.7734 32.3625 38.4937 32.0171 38.4937H28.8328C29.6101 35.3648 31.257 32.7375 33.7367 30.6765C35.6843 29.4828 37.0453 28.1242 37.7859 26.6328C38.2093 25.7586 37.9742 24.8125 37.2148 24.3304ZM20.0007 14.5351C18.9273 14.5351 18.0546 15.4078 18.0546 16.4804C18.0546 17.5531 18.9273 18.4257 20.0007 18.4257C21.0742 18.4257 21.9461 17.5523 21.9461 16.4804C21.9461 15.4086 21.0734 14.5351 20.0007 14.5351ZM20.0007 19.6765C21.7625 19.6765 23.1961 18.2429 23.1961 16.4812C23.1961 14.7195 21.7617 13.2851 20.0007 13.2851C18.2398 13.2851 16.8046 14.7195 16.8046 16.4812C16.8046 18.2429 18.2382 19.6765 20.0007 19.6765Z" fill="black"/>
</g>
<defs>
<clipPath id="clip0_1916_6109">
<rect width="40" height="40" fill="white"/>
</clipPath>
</defs>
</svg>
