<svg width="682" height="682" viewBox="0 0 682 682" fill="none" xmlns="http://www.w3.org/2000/svg">
<g clip-path="url(#clip0_1901_5854)">
<path d="M352.311 163.5C353.486 162.387 355.342 162.439 356.449 163.614C356.964 164.16 357.25 164.877 357.25 165.626V251.004H459.455V164.103C459.455 162.564 460.703 161.311 462.247 161.311C463.011 161.311 463.739 161.623 464.264 162.174L508.928 207.915C518.8 218.026 534.91 218.499 545.358 208.98L588.042 168.594C594.374 162.6 594.65 152.609 588.661 146.277C588.516 146.122 588.36 145.971 588.209 145.815C582.199 139.967 572.666 139.831 566.495 145.519L526.909 182.001L479.178 131.28C473.787 125.557 466.275 122.313 458.415 122.318H436.385C431.628 123.498 426.814 120.597 425.634 115.841C425.463 115.139 425.375 114.422 425.375 113.699V107.742C414.874 114.016 401.779 113.99 391.304 107.679V113.985C391.304 118.887 387.333 122.864 382.431 122.864C381.781 122.864 381.136 122.791 380.507 122.651H363.82C353.626 122.651 343.801 126.461 336.274 133.328L297.432 168.724C289.842 175.648 284.405 184.616 281.785 194.555L269.22 242.245C267.203 249.881 271.445 257.778 278.926 260.314C286.791 262.976 295.321 258.765 297.983 250.9C298.05 250.708 298.113 250.51 298.17 250.318L311.587 204.671C312.367 202.009 313.848 199.597 315.87 197.7L352.311 163.5Z" fill="#60BAE2"/>
<path d="M307.121 273.025C300.145 269.349 291.511 271.819 287.534 278.634L263.949 319.03C262.327 321.479 259.026 322.154 256.572 320.538C256.531 320.507 256.489 320.481 256.442 320.449L221.338 295.84C213.94 290.657 205.134 287.876 196.105 287.876H175.628C170.866 289.056 166.053 286.161 164.873 281.399C164.701 280.703 164.613 279.98 164.613 279.263V273.316C154.117 279.585 141.017 279.564 130.543 273.248V279.559C130.543 284.461 126.566 288.433 121.664 288.427C121.014 288.427 120.375 288.36 119.746 288.219H96.9402C90.6814 288.219 84.6512 290.553 80.0299 294.769L33.2288 337.433C27.8796 342.309 24.0536 348.625 22.2082 355.622L8.43767 407.803C6.4207 415.445 10.6626 423.336 18.1483 425.873C26.0082 428.539 34.544 424.324 37.2055 416.464C37.2679 416.266 37.3303 416.074 37.3875 415.876L52.0002 366.164L96.4724 324.416V416.562H198.678V329.666C198.678 328.122 199.925 326.875 201.464 326.869C202.228 326.869 202.956 327.181 203.486 327.732L244.398 353.896C258.605 362.983 277.491 358.829 286.577 344.622C286.816 344.248 287.045 343.863 287.269 343.483L313.354 292.81C317.056 285.62 314.274 276.793 307.116 273.025H307.121Z" fill="#E9E9EA"/>
<path d="M364.85 473.75H392.058C394.023 473.755 395.983 474.03 397.875 474.566V306.112C397.875 298.117 404.352 291.64 412.347 291.64H459.455V392.26C461.794 391.413 464.264 390.976 466.759 390.971H493.962C496.036 390.971 498.1 391.277 500.086 391.865V280.968C500.086 264.421 486.669 251.009 470.122 251.009H357.244V475.159C359.672 474.233 362.25 473.755 364.85 473.75Z" fill="#6D6C6B"/>
<path d="M104.078 639.308H131.286C133.251 639.313 135.211 639.589 137.103 640.129V471.676C137.103 463.681 143.58 457.203 151.575 457.203H198.683V557.839C201.022 556.986 203.492 556.55 205.982 556.545H233.195C235.269 556.545 237.333 556.851 239.319 557.439V446.531C239.319 429.985 225.902 416.568 209.355 416.568H96.4724V640.717C98.9001 639.797 101.478 639.313 104.078 639.308Z" fill="#6D6C6B"/>
<path d="M357.244 452.031V475.153C359.672 474.233 362.25 473.75 364.85 473.744H392.058C394.023 473.75 395.983 474.025 397.875 474.566V452.026L357.244 452.031Z" fill="#E9E9EA"/>
<path d="M459.455 369.252V392.26C461.794 391.413 464.264 390.976 466.759 390.971H493.962C496.036 390.971 498.1 391.277 500.086 391.865V369.241L459.455 369.252Z" fill="#E9E9EA"/>
<path d="M96.4724 617.589V640.717C98.9001 639.791 101.478 639.313 104.078 639.308H131.286C133.251 639.313 135.211 639.589 137.103 640.124V617.589H96.4724Z" fill="#E9E9EA"/>
<path d="M198.688 534.81V557.839C201.028 556.986 203.497 556.55 205.987 556.545H233.195C235.269 556.545 237.333 556.851 239.319 557.439V534.815L198.688 534.81Z" fill="#E9E9EA"/>
<path d="M372.944 53.7046C373.656 53.7098 374.368 53.7617 375.07 53.8761V52.2802C375.08 51.2977 375.886 50.5076 376.868 50.5127C376.988 50.5127 377.107 50.5283 377.222 50.5543C383.257 51.8175 401.218 53.9749 413.387 38.6708C414 37.8911 415.128 37.7611 415.908 38.3745C415.96 38.4161 416.002 38.4577 416.049 38.5045C418.85 41.2492 426.149 46.7387 440.003 47.139C440.949 47.1754 441.703 47.9447 441.723 48.8909V49.4263V53.8813C446.017 53.2055 450.384 54.5831 453.508 57.6085V32.5887C453.487 22.0932 444.988 13.5834 434.487 13.547C431.056 13.547 427.698 14.4879 424.761 16.2606C421.335 10.5008 415.134 6.96066 408.433 6.94507H398.66C379.686 6.99705 364.314 22.3687 364.262 41.3428V56.756C366.721 54.7754 369.788 53.7046 372.944 53.7046Z" fill="#6D6C6B"/>
<path d="M112.172 219.268C112.884 219.268 113.591 219.325 114.298 219.434V217.838C114.308 216.856 115.114 216.071 116.096 216.081C116.216 216.081 116.33 216.092 116.45 216.118C122.485 217.386 140.44 219.544 152.615 204.234C153.228 203.46 154.356 203.33 155.136 203.943C155.183 203.985 155.23 204.021 155.277 204.068C158.078 206.813 165.372 212.302 179.231 212.708C180.177 212.744 180.931 213.513 180.951 214.46V214.99V219.45C185.245 218.769 189.612 220.152 192.736 223.177V198.157C192.715 187.662 184.216 179.147 173.72 179.105C170.295 179.11 166.931 180.051 163.994 181.824C160.569 176.064 154.372 172.524 147.671 172.509H137.888C118.914 172.561 103.547 187.932 103.49 206.906V222.319C105.949 220.339 109.011 219.263 112.172 219.268Z" fill="#6D6C6B"/>
<path d="M493.967 390.955H466.759C454.751 390.986 445.024 400.712 444.993 412.721V423.367C444.993 424.999 446.314 426.32 447.941 426.32H512.785C514.412 426.32 515.733 424.999 515.733 423.372V423.367V412.721C515.702 400.712 505.975 390.986 493.967 390.955Z" fill="#C1814C"/>
<path d="M392.058 473.75H364.85C352.841 473.781 343.115 483.507 343.084 495.515V506.162C343.084 507.789 344.404 509.109 346.031 509.109H410.866C412.493 509.109 413.813 507.789 413.813 506.167V506.162V495.515C413.782 483.512 404.061 473.786 392.058 473.75Z" fill="#C1814C"/>
<path d="M233.195 556.529H205.987C193.979 556.56 184.252 566.286 184.221 578.294V588.941C184.221 590.573 185.542 591.893 187.169 591.893H252.013C253.64 591.893 254.961 590.573 254.961 588.946V588.941V578.294C254.93 566.291 245.203 556.565 233.195 556.529Z" fill="#C1814C"/>
<path d="M131.286 639.308H104.078C92.0694 639.339 82.3432 649.065 82.312 661.074V671.72C82.312 673.352 83.6324 674.673 85.2595 674.673H150.104C151.731 674.673 153.052 673.352 153.052 671.725V671.72V661.074C153.02 649.071 143.294 639.344 131.286 639.308Z" fill="#C1814C"/>
<path d="M443.87 53.7046C443.127 53.7046 442.384 53.767 441.651 53.8865C441.697 54.6299 441.734 55.3785 441.734 56.1374V79.1039C441.734 79.8525 441.697 80.601 441.651 81.3392C449.23 82.5764 456.372 77.43 457.61 69.8508C458.847 62.2715 453.7 55.1237 446.121 53.8865C445.378 53.767 444.624 53.7098 443.87 53.7046Z" fill="#F9D0B4"/>
<path d="M375.08 79.1037V56.1321C375.08 55.3731 375.116 54.6245 375.163 53.8812C367.584 52.6076 360.405 57.7176 359.126 65.2968C357.852 72.8813 362.962 80.0602 370.547 81.3339C372.075 81.5938 373.635 81.5938 375.168 81.3339C375.116 80.6009 375.08 79.8523 375.08 79.1037Z" fill="#F9D0B4"/>
<path d="M425.385 113.699V107.742C420.254 110.814 414.385 112.436 408.407 112.431C402.382 112.436 396.471 110.793 391.315 107.679V113.985C391.32 116.714 390.062 119.293 387.91 120.967L392.817 129.804C394.226 132.335 396.892 133.905 399.788 133.905H416.906C419.802 133.905 422.469 132.335 423.877 129.804L428.899 120.769C426.679 119.095 425.38 116.48 425.385 113.699Z" fill="#F9D0B4"/>
<path d="M443.87 53.7046C443.127 53.7046 442.384 53.767 441.651 53.8865C441.697 54.6299 441.734 55.3785 441.734 56.1374V79.1039C441.734 79.8525 441.697 80.601 441.651 81.3392C449.23 82.5764 456.372 77.43 457.61 69.8508C458.847 62.2715 453.7 55.1237 446.121 53.8865C445.378 53.767 444.624 53.7098 443.87 53.7046Z" fill="#F9D0B4"/>
<path d="M375.08 79.1037V56.1321C375.08 55.3731 375.116 54.6245 375.163 53.8812C367.584 52.6076 360.405 57.7176 359.126 65.2968C357.852 72.8813 362.962 80.0602 370.547 81.3339C372.075 81.5938 373.635 81.5938 375.168 81.3339C375.116 80.6009 375.08 79.8523 375.08 79.1037Z" fill="#F9D0B4"/>
<path d="M413.397 38.6709C401.228 53.9801 383.268 51.8228 377.232 50.5544C376.271 50.3517 375.324 50.9599 375.122 51.9216C375.096 52.0411 375.085 52.1555 375.08 52.2751V79.1039C375.137 97.4854 390.025 112.379 408.407 112.431C426.794 112.379 441.687 97.4906 441.739 79.1039V49.416C441.739 49.2392 441.739 49.0625 441.739 48.8857C441.723 47.9396 440.97 47.1703 440.024 47.1339C426.18 46.7284 418.882 41.2389 416.069 38.4941C415.357 37.8028 414.224 37.8132 413.533 38.5201C413.486 38.5669 413.439 38.6189 413.397 38.6709Z" fill="#F9D0B4"/>
<path d="M272.963 228.043L269.22 242.24C267.203 249.881 271.445 257.772 278.926 260.309C286.791 262.976 295.321 258.76 297.983 250.9C298.05 250.702 298.113 250.51 298.17 250.313L302.272 236.36L272.963 228.043Z" fill="#F9D0B4"/>
<path d="M566.5 145.524L555.152 155.978L577.053 179.001L588.047 168.599C594.421 162.647 594.759 152.656 588.806 146.283C582.854 139.909 572.863 139.572 566.49 145.524H566.5Z" fill="#F9D0B4"/>
<path d="M183.098 219.268C182.355 219.268 181.612 219.325 180.879 219.445C180.931 220.193 180.962 220.942 180.962 221.696V244.667C180.962 245.416 180.931 246.159 180.879 246.903C188.458 248.135 195.606 242.988 196.838 235.409C198.075 227.83 192.929 220.682 185.349 219.45C184.606 219.325 183.852 219.268 183.098 219.268Z" fill="#F9D0B4"/>
<path d="M114.308 244.667V221.696C114.308 220.942 114.345 220.193 114.397 219.445C106.812 218.171 99.6331 223.281 98.3595 230.865C97.0807 238.445 102.196 245.624 109.775 246.903C111.304 247.157 112.868 247.157 114.397 246.903C114.345 246.164 114.308 245.416 114.308 244.667Z" fill="#F9D0B4"/>
<path d="M164.613 279.262V273.316C159.482 276.383 153.613 277.994 147.635 277.989C141.615 277.994 135.705 276.351 130.543 273.238V279.543C130.548 282.272 129.295 284.851 127.143 286.525L132.05 295.362C133.459 297.893 136.126 299.463 139.021 299.463H156.139C159.035 299.463 161.702 297.893 163.11 295.362L168.127 286.327C165.912 284.653 164.608 282.038 164.613 279.262Z" fill="#F9D0B4"/>
<path d="M183.098 219.268C182.355 219.268 181.612 219.325 180.879 219.445C180.931 220.193 180.962 220.942 180.962 221.696V244.667C180.962 245.416 180.931 246.159 180.879 246.903C188.458 248.135 195.606 242.988 196.838 235.409C198.075 227.83 192.929 220.682 185.349 219.45C184.606 219.325 183.852 219.268 183.098 219.268Z" fill="#F9D0B4"/>
<path d="M114.308 244.667V221.696C114.308 220.942 114.345 220.193 114.397 219.445C106.812 218.171 99.6331 223.281 98.3595 230.865C97.0807 238.445 102.196 245.624 109.775 246.903C111.304 247.157 112.868 247.157 114.397 246.903C114.345 246.164 114.308 245.416 114.308 244.667Z" fill="#F9D0B4"/>
<path d="M152.625 204.234C140.451 219.549 122.496 217.381 116.46 216.118C115.499 215.91 114.552 216.523 114.35 217.48C114.324 217.599 114.313 217.719 114.308 217.838V244.667C114.36 263.049 129.253 277.937 147.635 277.989C166.016 277.937 180.905 263.044 180.962 244.667V214.979C180.962 214.797 180.962 214.626 180.962 214.444C180.941 213.498 180.187 212.728 179.241 212.692C165.403 212.286 158.105 206.802 155.287 204.052C154.575 203.366 153.442 203.376 152.75 204.089C152.703 204.135 152.667 204.182 152.625 204.234Z" fill="#F9D0B4"/>
<path d="M12.1909 393.617L8.43767 407.803C6.4207 415.445 10.6626 423.336 18.1483 425.873C26.0082 428.539 34.544 424.324 37.2055 416.464C37.2679 416.266 37.3303 416.074 37.3875 415.876L41.489 401.924L12.1909 393.617Z" fill="#F9D0B4"/>
<path d="M307.121 273.025C300.145 269.349 291.511 271.819 287.534 278.634L278.587 293.969L305.162 308.763L313.375 292.81C317.071 285.615 314.28 276.788 307.121 273.025Z" fill="#F9D0B4"/>
<path d="M559.264 152.188L566.5 145.534C569.396 142.867 573.19 141.375 577.131 141.37L521.139 16.2086C518.935 11.1142 513.18 8.5774 507.935 10.3916C502.565 12.393 499.831 18.3712 501.832 23.7411C501.91 23.949 501.993 24.1466 502.082 24.3493L559.264 152.188Z" fill="#C1814C"/>
<path d="M596.646 184.985L588.905 167.684C588.64 167.991 588.349 168.303 588.042 168.594L572.983 182.843L577.724 193.442C580.058 198.667 586.192 201.011 591.416 198.672C596.641 196.338 598.985 190.204 596.646 184.974V184.985Z" fill="#C1814C"/>
<path d="M523.052 20.4712L552.542 86.3919L610.572 20.8767L523.052 20.4712Z" fill="#F75C64"/>
<path d="M662.613 317.445H543.227C535.882 317.445 529.919 311.482 529.919 304.137C529.919 296.786 535.882 290.829 543.227 290.829H662.613C669.959 290.829 675.921 296.786 675.921 304.137C675.921 311.482 669.959 317.445 662.613 317.445Z" fill="#E9E9EA"/>
<path d="M621.842 264.219H583.998C576.003 264.219 569.526 270.696 569.526 278.691V290.829H636.33V278.691C636.33 270.696 629.848 264.219 621.853 264.219C621.847 264.219 621.847 264.219 621.842 264.219Z" fill="#E9E9EA"/>
<path d="M543.076 317.445H659.655V674.678H543.076V317.445Z" fill="#FFAE2C"/>
<path d="M426.492 426.341H543.076V674.678H426.492V426.341Z" fill="#FCD770"/>
<path d="M309.913 509.12H426.492V674.678H309.913V509.12Z" fill="#FFAE2C"/>
<path d="M193.329 591.899H309.913V674.678H193.329V591.899Z" fill="#FCD770"/>
<path d="M263.226 23.8033C251.374 21.5316 242.11 12.2629 239.839 0.415776C239.771 0.129864 239.485 -0.0520792 239.199 0.0103015C239.002 0.057087 238.846 0.213038 238.799 0.415776C236.527 12.2629 227.259 21.5316 215.411 23.8033C215.126 23.8709 214.944 24.1516 215.011 24.4375C215.053 24.6403 215.214 24.791 215.411 24.8378C227.259 27.1147 236.527 36.3782 238.799 48.2253C238.867 48.5164 239.152 48.6932 239.433 48.6308C239.636 48.584 239.787 48.4281 239.839 48.2253C242.11 36.3782 251.374 27.1147 263.226 24.8378C263.512 24.7754 263.689 24.4895 263.626 24.2036C263.58 24.0061 263.424 23.8449 263.226 23.8033Z" fill="#FFAE2C"/>
<path d="M53.066 515.784H29.9384C26.2631 515.784 23.2844 512.805 23.2844 509.13C23.2844 505.455 26.2631 502.476 29.9384 502.476H53.066C56.7412 502.476 59.7199 505.455 59.7199 509.13C59.7199 512.805 56.7412 515.784 53.066 515.784Z" fill="#60BAE2"/>
<path d="M41.4994 527.335C37.8241 527.335 34.8455 524.356 34.8455 520.681V497.553C34.8455 493.878 37.8241 490.899 41.4994 490.899C45.1747 490.899 48.1533 493.878 48.1533 497.553V520.681C48.1533 524.356 45.1747 527.335 41.4994 527.335Z" fill="#60BAE2"/>
<path d="M675.921 169.634H652.804C649.129 169.634 646.15 166.655 646.15 162.98C646.15 159.305 649.129 156.326 652.804 156.326H675.931C679.607 156.326 682.585 159.305 682.585 162.98C682.585 166.655 679.607 169.634 675.931 169.634H675.921Z" fill="#F75C64"/>
<path d="M664.355 181.195C660.679 181.195 657.701 178.216 657.701 174.541V151.413C657.701 147.738 660.679 144.76 664.355 144.76C668.03 144.76 671.009 147.738 671.009 151.413V174.541C671.009 178.216 668.03 181.195 664.355 181.195Z" fill="#F75C64"/>
<path d="M636.32 231.994C634.557 231.988 632.863 231.292 631.61 230.049C631.303 229.743 631.028 229.405 630.783 229.041C630.544 228.672 630.342 228.287 630.17 227.882C630.009 227.481 629.884 227.066 629.801 226.644C629.707 226.213 629.666 225.776 629.666 225.34C629.666 224.898 629.707 224.461 629.801 224.035C629.884 223.614 630.009 223.198 630.17 222.798C630.342 222.392 630.544 222.002 630.783 221.638C631.028 221.275 631.303 220.937 631.61 220.63C633.523 218.743 636.372 218.176 638.862 219.19C639.262 219.362 639.647 219.564 640.005 219.803C640.369 220.042 640.712 220.318 641.019 220.63C641.326 220.937 641.601 221.28 641.846 221.638C642.085 222.002 642.287 222.392 642.454 222.798C642.625 223.198 642.755 223.614 642.844 224.035C642.927 224.461 642.968 224.898 642.974 225.34C642.968 225.776 642.927 226.213 642.844 226.644C642.755 227.066 642.625 227.481 642.454 227.882C642.287 228.287 642.085 228.672 641.846 229.041C641.601 229.4 641.326 229.743 641.019 230.049C640.712 230.361 640.369 230.637 640.005 230.876C639.647 231.11 639.262 231.318 638.862 231.489C638.456 231.65 638.04 231.775 637.614 231.858C637.188 231.952 636.756 231.994 636.32 231.994Z" fill="#FCD770"/>
<path d="M285.2 97.9741C283.438 97.9741 281.743 97.2775 280.49 96.0299C280.183 95.7232 279.908 95.3853 279.664 95.0214C279.424 94.6575 279.222 94.2676 279.05 93.8621C278.889 93.4619 278.764 93.046 278.681 92.6249C278.587 92.1987 278.546 91.762 278.546 91.3201C278.546 90.8835 278.587 90.4468 278.681 90.0153C278.764 89.5943 278.889 89.1784 279.05 88.7781C279.222 88.3726 279.424 87.988 279.664 87.6189C279.908 87.255 280.183 86.9171 280.49 86.6104C282.403 84.7234 285.252 84.1567 287.742 85.1704C288.142 85.342 288.527 85.5499 288.885 85.7838C289.249 86.023 289.592 86.2985 289.899 86.6104C290.206 86.9171 290.481 87.2602 290.726 87.6189C290.965 87.988 291.168 88.3726 291.334 88.7781C291.505 89.1784 291.635 89.5943 291.724 90.0153C291.807 90.4468 291.849 90.8835 291.854 91.3201C291.849 91.762 291.807 92.1987 291.724 92.6249C291.635 93.046 291.505 93.4619 291.334 93.8621C291.168 94.2676 290.965 94.6575 290.726 95.0214C290.481 95.3801 290.206 95.7232 289.899 96.0299C289.592 96.3418 289.249 96.6225 288.885 96.8564C288.527 97.0955 288.142 97.2983 287.742 97.4698C287.336 97.6362 286.92 97.7609 286.489 97.8441C286.068 97.9325 285.636 97.9793 285.2 97.9741Z" fill="#6DCC6D"/>
<path d="M662.613 324.099H543.227C532.206 324.099 523.265 315.157 523.265 304.137C523.265 293.111 532.206 284.175 543.227 284.175H662.613C673.634 284.175 682.575 293.111 682.575 304.137C682.575 315.157 673.634 324.099 662.613 324.099ZM543.227 297.483C539.552 297.483 536.573 300.462 536.573 304.137C536.573 307.812 539.552 310.791 543.227 310.791H662.613C666.288 310.791 669.267 307.812 669.267 304.137C669.267 300.462 666.288 297.483 662.613 297.483H543.227Z" fill="#231F20"/>
<path d="M636.32 297.483H569.515C565.84 297.483 562.861 294.504 562.861 290.829V278.691C562.877 267.031 572.328 257.58 583.988 257.564H621.832C633.497 257.58 642.948 267.031 642.963 278.691V290.829C642.963 294.499 639.99 297.478 636.32 297.483ZM576.169 284.175H629.666V278.691C629.661 274.376 626.162 270.878 621.842 270.872H583.998C579.683 270.878 576.185 274.376 576.18 278.691L576.169 284.175Z" fill="#231F20"/>
<path d="M552.537 93.0459C549.917 93.0459 547.537 91.502 546.466 89.1108L516.975 23.1848C516.055 21.1211 516.242 18.7298 517.474 16.8376C518.685 14.9142 520.812 13.7705 523.083 13.8121L610.603 14.2176C614.279 14.2332 617.247 17.2275 617.226 20.9027C617.221 22.5142 616.623 24.0685 615.557 25.2798L557.517 90.8002C556.259 92.2298 554.445 93.0459 552.537 93.0459ZM533.335 27.1668L554.398 74.2538L595.845 27.4631L533.335 27.1668Z" fill="#231F20"/>
<path d="M443.87 53.7046C443.127 53.7046 442.384 53.767 441.651 53.8865C441.697 54.6299 441.734 55.3785 441.734 56.1374V79.1039C441.734 79.8525 441.697 80.601 441.651 81.3392C449.23 82.5764 456.372 77.43 457.61 69.8508C458.847 62.2715 453.7 55.1237 446.121 53.8865C445.378 53.767 444.624 53.7098 443.87 53.7046Z" fill="#F9D0B4"/>
<path d="M375.08 79.1037V56.1321C375.08 55.3731 375.116 54.6245 375.163 53.8812C367.584 52.6076 360.405 57.7176 359.126 65.2968C357.852 72.8813 362.962 80.0602 370.547 81.3339C372.075 81.5938 373.635 81.5938 375.168 81.3339C375.116 80.6009 375.08 79.8523 375.08 79.1037Z" fill="#F9D0B4"/>
<path d="M408.412 159.887C404.752 159.897 401.768 156.939 401.758 153.274C401.758 153.259 401.758 153.243 401.758 153.233C401.753 151.465 402.449 149.771 403.702 148.523C406.343 146.043 410.455 146.043 413.096 148.523C414.354 149.765 415.066 151.46 415.066 153.233C415.056 155 414.343 156.695 413.096 157.948C412.477 158.556 411.744 159.05 410.944 159.382C410.138 159.715 409.28 159.882 408.412 159.887Z" fill="#231F20"/>
<path d="M408.412 184.527C406.65 184.522 404.96 183.825 403.702 182.588C403.396 182.276 403.12 181.938 402.876 181.58C402.637 181.216 402.434 180.831 402.262 180.431C402.106 180.025 401.982 179.609 401.893 179.178C401.794 178.752 401.753 178.315 401.758 177.873C401.753 177.437 401.789 177 401.867 176.574C401.961 176.147 402.091 175.726 402.262 175.321C402.434 174.921 402.637 174.536 402.876 174.177C403.115 173.808 403.39 173.47 403.702 173.163C406.359 170.699 410.465 170.699 413.122 173.163C413.428 173.481 413.704 173.818 413.948 174.177C414.177 174.541 414.385 174.926 414.562 175.321C414.728 175.726 414.848 176.147 414.936 176.574C415.108 177.431 415.108 178.32 414.936 179.178C414.848 179.609 414.718 180.031 414.536 180.431C414.38 180.831 414.182 181.216 413.948 181.58C413.683 181.923 413.418 182.271 413.122 182.588C411.864 183.825 410.174 184.517 408.412 184.527Z" fill="#231F20"/>
<path d="M408.412 209.173C407.975 209.178 407.539 209.131 407.107 209.038C406.681 208.954 406.26 208.824 405.86 208.663C405.454 208.502 405.07 208.299 404.711 208.05C404.352 207.806 404.014 207.53 403.702 207.223C403.401 206.911 403.12 206.574 402.876 206.215C402.392 205.487 402.054 204.676 401.893 203.818C401.717 202.955 401.717 202.072 401.893 201.214C401.982 200.788 402.106 200.367 402.262 199.961C402.434 199.561 402.637 199.176 402.876 198.812C403.115 198.459 403.39 198.126 403.702 197.83C405.267 196.244 407.534 195.553 409.717 195.995C410.133 196.078 410.543 196.208 410.944 196.369C411.339 196.541 411.723 196.743 412.087 196.983C412.456 197.222 412.794 197.502 413.096 197.83C413.418 198.126 413.704 198.454 413.948 198.812C414.177 199.181 414.385 199.566 414.562 199.961C414.723 200.367 414.848 200.788 414.936 201.214C415.014 201.64 415.061 202.077 415.066 202.519C415.061 204.286 414.349 205.981 413.096 207.229C412.789 207.54 412.451 207.816 412.087 208.055C411.729 208.299 411.344 208.507 410.944 208.663C410.549 208.83 410.138 208.954 409.717 209.038C409.291 209.136 408.854 209.178 408.412 209.173Z" fill="#231F20"/>
<path d="M408.412 233.823C407.975 233.834 407.539 233.792 407.107 233.693C406.681 233.605 406.26 233.48 405.86 233.314C405.454 233.158 405.07 232.95 404.711 232.706C404.342 232.477 404.004 232.196 403.702 231.879C401.114 229.275 401.114 225.064 403.702 222.455C404.009 222.148 404.347 221.872 404.711 221.633C405.07 221.389 405.454 221.181 405.86 221.02C406.26 220.859 406.681 220.734 407.107 220.646C407.97 220.49 408.854 220.49 409.717 220.646C410.133 220.734 410.543 220.859 410.944 221.02C411.344 221.181 411.729 221.389 412.087 221.633C412.451 221.878 412.8 222.153 413.122 222.455C413.418 222.777 413.683 223.12 413.948 223.468C414.187 223.843 414.39 224.232 414.562 224.638C414.728 225.033 414.848 225.444 414.936 225.865C415.014 226.296 415.061 226.733 415.066 227.17C415.061 227.606 415.014 228.043 414.936 228.474C414.848 228.901 414.728 229.316 414.562 229.722C414.385 230.117 414.182 230.502 413.948 230.866C413.694 231.219 413.418 231.557 413.122 231.879C412.81 232.191 412.462 232.472 412.087 232.706C411.729 232.95 411.344 233.158 410.944 233.314C410.543 233.48 410.133 233.605 409.717 233.693C409.291 233.787 408.854 233.834 408.412 233.823Z" fill="#231F20"/>
<path d="M416.906 140.559H399.793C394.486 140.554 389.594 137.674 387.016 133.032L382.108 124.2C380.518 121.341 381.245 117.749 383.819 115.732C384.359 115.316 384.676 114.671 384.676 113.985V107.679C384.676 104.004 387.655 101.025 391.33 101.025C392.536 101.025 393.721 101.353 394.761 101.977C403.157 106.931 413.574 106.952 421.99 102.029C425.146 100.147 429.232 101.176 431.113 104.332C431.727 105.361 432.054 106.541 432.054 107.742V113.699C432.049 114.396 432.377 115.056 432.938 115.472C435.568 117.473 436.327 121.096 434.726 123.987L429.71 133.021C427.126 137.674 422.224 140.559 416.906 140.559ZM395.931 121.694L398.639 126.57C398.873 126.986 399.315 127.246 399.793 127.251H416.906C417.39 127.246 417.826 126.986 418.06 126.57L420.852 121.549C420.124 120.311 419.573 118.975 419.214 117.582C412.134 119.573 404.638 119.573 397.553 117.582C397.215 119.027 396.669 120.41 395.931 121.694Z" fill="#231F20"/>
<path d="M443.87 88.1906C442.773 88.1855 441.671 88.0919 440.59 87.9099C437.19 87.3641 434.763 84.3179 435.002 80.8869C435.038 80.2943 435.069 79.7017 435.069 79.1039V56.1322C435.069 55.5188 435.038 54.921 435.002 54.3232C434.773 50.8922 437.196 47.8564 440.59 47.3105C451.803 45.5275 462.345 53.1743 464.128 64.3924C465.911 75.6105 458.27 86.1477 447.052 87.9307C446.002 88.1023 444.936 88.1855 443.87 88.1906ZM448.393 61.9388V73.3025C451.533 70.8124 452.058 66.2535 449.573 63.1136C449.225 62.677 448.83 62.2819 448.393 61.9388Z" fill="#231F20"/>
<path d="M372.944 88.1906C361.585 88.2062 352.358 79.0102 352.342 67.6465C352.327 56.2881 361.523 47.0661 372.881 47.0505C374.004 47.0505 375.122 47.1389 376.229 47.3209C379.629 47.8615 382.051 50.9077 381.817 54.3387C381.781 54.9365 381.75 55.5343 381.75 56.1373V79.109C381.75 79.712 381.781 80.3046 381.817 80.9024C382.046 84.3334 379.623 87.3692 376.229 87.9099C375.142 88.0918 374.04 88.1854 372.944 88.1906ZM368.416 61.9387C365.281 64.4235 364.751 68.9877 367.241 72.1276C367.589 72.5642 367.979 72.9541 368.416 73.3024V61.9387Z" fill="#231F20"/>
<path d="M408.407 119.085C386.34 119.059 368.452 101.176 368.426 79.1038V52.2957C368.426 47.6432 372.2 43.8692 376.853 43.864C377.44 43.864 378.017 43.9263 378.589 44.0459C384.271 45.2311 398.53 46.6867 408.188 34.5381C409.68 32.6614 411.9 31.5074 414.291 31.3618C416.677 31.2371 419.006 32.1104 420.727 33.7687C422.666 35.6765 428.473 40.1575 440.195 40.5058C444.692 40.6358 448.289 44.2746 448.377 48.766V79.1038C448.351 101.171 430.474 119.053 408.407 119.085ZM381.734 57.8944V79.1038C381.734 93.8309 393.68 105.777 408.407 105.777C423.139 105.777 435.08 93.8309 435.08 79.1038V53.4706C428.015 52.8364 421.221 50.4347 415.326 46.484C406.359 55.0561 394.07 59.2304 381.734 57.8944Z" fill="#231F20"/>
<path d="M453.524 64.2624C451.798 64.2624 450.139 63.597 448.902 62.4013C447.265 60.8366 444.998 60.1141 442.758 60.4519C439.124 61.0134 435.724 58.5233 435.163 54.8897C435.111 54.5518 435.085 54.2139 435.085 53.876V53.4705C428.02 52.8363 421.226 50.4347 415.336 46.4839C406.026 55.3367 393.202 59.4954 380.471 57.78C379 59.8022 376.52 60.8314 374.051 60.4416C372.044 60.1141 369.996 60.6651 368.416 61.9439C365.546 64.2416 361.361 63.7737 359.064 60.9042C358.118 59.7242 357.608 58.2582 357.608 56.7455V41.3427C357.634 18.6829 376 0.317007 398.66 0.291016H408.433C415.352 0.322207 421.969 3.13453 426.799 8.0886C429.284 7.29844 431.872 6.89817 434.482 6.89817C448.663 6.91376 460.152 18.4022 460.172 32.5834V57.6032C460.172 61.2785 457.194 64.2572 453.518 64.2572L453.524 64.2624ZM398.66 13.5989C383.345 13.6197 370.932 26.0282 370.916 41.3427V46.3123C371.108 46.12 371.316 45.9329 371.529 45.7561C373.505 44.1446 376.094 43.5156 378.589 44.0406C384.276 45.2311 398.53 46.6762 408.188 34.5328C409.675 32.651 411.895 31.4865 414.291 31.3358C416.677 31.2162 419.006 32.0895 420.727 33.7478C422.666 35.6504 428.473 40.1315 440.195 40.4797C442.862 40.5577 445.331 41.8989 446.849 44.0874V32.5834C446.844 25.7527 441.318 20.2112 434.482 20.2008C432.262 20.206 430.084 20.8142 428.181 21.9631C425.031 23.8553 420.94 22.8312 419.053 19.681C416.818 15.9382 412.794 13.6301 408.433 13.5989H398.66Z" fill="#231F20"/>
<path d="M283.781 267.774C271.783 267.764 262.062 258.027 262.072 246.029C262.077 244.179 262.311 242.338 262.784 240.545L275.359 192.871C278.302 181.689 284.415 171.599 292.961 163.817L331.798 128.416C340.547 120.426 351.973 115.997 363.826 116.007H380.512C381.001 116.007 381.479 116.064 381.952 116.168C383.153 116.439 384.338 115.685 384.609 114.484C384.64 114.323 384.661 114.162 384.661 114.001V107.69C384.661 104.015 387.639 101.036 391.315 101.036C392.526 101.036 393.711 101.369 394.746 101.992C403.141 106.946 413.558 106.962 421.975 102.044C425.135 100.163 429.216 101.192 431.098 104.347C431.716 105.377 432.039 106.557 432.039 107.757V113.699C432.039 114.931 433.037 115.924 434.264 115.929C434.446 115.929 434.622 115.908 434.799 115.862C435.319 115.732 435.86 115.664 436.395 115.664H458.426C468.11 115.685 477.369 119.683 484.017 126.721L527.237 172.649L561.988 140.627C571.163 132.294 585.355 132.975 593.693 142.15C601.865 151.148 601.387 165.018 592.617 173.434L549.928 213.82C536.854 225.88 516.554 225.319 504.166 212.562L466.104 173.585V251.004C466.104 254.679 463.125 257.658 459.45 257.658H357.244C353.569 257.658 350.59 254.679 350.59 251.004V174.234L320.424 202.55C319.265 203.636 318.418 205.014 317.965 206.542L304.553 252.184C301.835 261.396 293.398 267.733 283.791 267.769L283.781 267.774ZM363.831 129.305C355.295 129.3 347.066 132.486 340.765 138.241L301.928 173.642C295.269 179.703 290.513 187.558 288.225 196.265L275.661 243.94C274.548 248.192 276.908 252.584 281.072 254.009C285.449 255.49 290.206 253.146 291.693 248.764C291.729 248.654 291.765 248.545 291.797 248.436L305.203 202.784C306.321 198.984 308.437 195.548 311.322 192.834L347.757 158.634C351.614 155.011 357.676 155.198 361.304 159.055C362.978 160.833 363.903 163.183 363.903 165.626V244.35H452.801V164.103C452.801 158.884 457.033 154.657 462.252 154.657C464.82 154.657 467.284 155.707 469.062 157.563L513.685 203.267C521.04 210.852 533.09 211.205 540.872 204.068L583.457 163.765C587.143 160.323 587.346 154.543 583.904 150.857C580.463 147.172 574.682 146.974 570.997 150.415L531.411 186.898C528.729 189.367 524.554 189.216 522.059 186.56L474.328 135.839C470.195 131.467 464.445 128.982 458.431 128.972H437.097C429.076 130.459 421.268 125.484 419.22 117.582C412.134 119.573 404.638 119.573 397.553 117.582C395.66 125.525 387.941 130.656 379.889 129.315L363.831 129.305Z" fill="#231F20"/>
<path d="M283.781 267.774C271.783 267.764 262.062 258.027 262.072 246.029C262.077 244.179 262.311 242.338 262.784 240.545L266.527 226.348C267.463 222.792 271.102 220.671 274.658 221.612C274.699 221.623 274.736 221.633 274.777 221.644L304.086 229.961C307.621 230.964 309.674 234.639 308.671 238.18C308.665 238.195 308.66 238.216 308.655 238.237L304.553 252.189C301.835 261.401 293.398 267.738 283.791 267.774H283.781ZM277.662 236.298L275.645 243.939C274.538 248.192 276.898 252.584 281.057 254.009C285.439 255.49 290.196 253.146 291.677 248.763C291.719 248.654 291.75 248.545 291.781 248.436L293.99 240.93L277.662 236.298Z" fill="#231F20"/>
<path d="M577.048 185.655C575.228 185.655 573.482 184.912 572.229 183.586L550.333 160.557C547.802 157.896 547.906 153.685 550.572 151.153C550.598 151.127 550.624 151.107 550.645 151.081L561.993 140.622C571.168 132.288 585.36 132.969 593.698 142.145C601.87 151.143 601.392 165.012 592.622 173.429L581.627 183.83C580.39 185.005 578.753 185.655 577.048 185.655ZM564.629 156.289L577.297 169.597L583.468 163.739C587.159 160.297 587.356 154.522 583.915 150.831C580.473 147.145 574.693 146.948 571.007 150.389L564.629 156.289Z" fill="#231F20"/>
<path d="M512.785 432.995H447.941C442.638 432.989 438.344 428.69 438.339 423.393V412.747C438.344 397.048 451.06 384.322 466.759 384.301H493.967C509.661 384.322 522.376 397.043 522.387 412.736V423.383C522.387 428.685 518.093 432.989 512.785 432.995ZM451.647 419.687H509.079V412.736C509.068 404.393 502.305 397.63 493.967 397.625H466.759C458.42 397.63 451.657 404.393 451.647 412.736V419.687Z" fill="#231F20"/>
<path d="M410.866 515.784H346.031C340.734 515.779 336.435 511.485 336.43 506.182V495.536C336.446 479.847 349.161 467.132 364.85 467.111H392.058C407.752 467.132 420.462 479.847 420.483 495.536V506.182C420.472 511.49 416.173 515.784 410.866 515.784ZM349.727 502.476H407.164V495.531C407.154 487.182 400.396 480.424 392.047 480.414H364.85C356.506 480.424 349.743 487.182 349.738 495.531L349.727 502.476Z" fill="#231F20"/>
<path d="M357.239 481.807C353.564 481.807 350.585 478.829 350.585 475.153V251.009C350.585 247.334 353.564 244.355 357.239 244.355H470.127C490.344 244.376 506.724 260.756 506.745 280.968V391.865C506.75 395.54 503.771 398.524 500.096 398.524C499.457 398.524 498.817 398.436 498.209 398.254C496.831 397.843 495.402 397.635 493.967 397.63H466.759C465.033 397.635 463.323 397.942 461.701 398.534C458.244 399.777 454.433 397.983 453.191 394.526C452.926 393.804 452.796 393.04 452.796 392.27V298.294H412.337C408.022 298.299 404.529 301.798 404.524 306.112V474.571C404.524 478.246 401.54 481.225 397.87 481.225C397.262 481.225 396.659 481.142 396.076 480.976C394.766 480.601 393.41 480.409 392.048 480.404H364.85C363.046 480.409 361.263 480.742 359.578 481.386C358.835 481.667 358.04 481.807 357.239 481.807ZM363.893 257.663V467.106C364.21 467.106 364.532 467.091 364.85 467.091H391.221V306.112C391.237 294.447 400.687 284.996 412.347 284.986H459.46C463.135 284.986 466.114 287.965 466.114 291.64V384.322H493.442V280.968C493.421 268.102 482.999 257.679 470.133 257.663H363.893Z" fill="#231F20"/>
<path d="M357.239 481.807C353.564 481.807 350.585 478.829 350.585 475.153V452.031C350.585 448.356 353.564 445.377 357.239 445.377H397.875C401.55 445.377 404.529 448.356 404.529 452.031V474.571C404.529 478.246 401.55 481.225 397.875 481.225C397.267 481.225 396.669 481.142 396.081 480.976C394.771 480.601 393.42 480.409 392.058 480.404H364.85C363.046 480.409 361.263 480.742 359.578 481.386C358.835 481.667 358.04 481.807 357.239 481.807ZM363.893 458.685V467.111C364.21 467.111 364.532 467.096 364.85 467.096H391.221V458.685H363.893Z" fill="#231F20"/>
<path d="M459.455 398.914C455.78 398.914 452.801 395.94 452.801 392.26V369.252C452.801 365.577 455.78 362.598 459.455 362.598H500.091C503.766 362.598 506.745 365.577 506.745 369.252V391.875C506.75 395.55 503.771 398.529 500.096 398.534C499.457 398.534 498.817 398.441 498.209 398.264C496.831 397.853 495.402 397.64 493.967 397.64H466.759C465.033 397.645 463.323 397.952 461.701 398.54C460.983 398.794 460.219 398.924 459.455 398.914ZM466.109 375.906V384.322H493.437V375.911L466.109 375.906Z" fill="#231F20"/>
<path d="M559.264 158.842C556.639 158.842 554.263 157.303 553.192 154.907L495.994 27.0525C492.163 18.4595 496.02 8.39025 504.608 4.55384C504.941 4.40828 505.279 4.27312 505.617 4.14316C514.152 1.09691 523.587 5.17764 527.211 13.4795L583.203 138.641C584.705 141.994 583.203 145.929 579.85 147.432C579.002 147.806 578.082 148.009 577.157 148.009C574.88 148.014 572.686 148.866 571.007 150.405L563.776 157.059C562.549 158.197 560.938 158.837 559.264 158.842ZM511.392 16.4114C511.007 16.4114 510.623 16.4789 510.259 16.6141C508.33 17.3211 507.343 19.4524 508.044 21.3758C508.075 21.459 508.107 21.5422 508.143 21.6201L561.562 141.032L561.988 140.642C563.709 139.057 565.663 137.752 567.784 136.775L515.062 18.9118C514.428 17.4406 512.998 16.4685 511.392 16.4114Z" fill="#231F20"/>
<path d="M587.211 206.241C580.489 206.251 574.397 202.306 571.647 196.171L566.906 185.577C565.752 182.999 566.355 179.968 568.408 178.029L583.468 163.775C583.645 163.614 583.795 163.437 583.951 163.271C586.415 160.531 590.631 160.313 593.371 162.777C594.057 163.396 594.603 164.149 594.982 164.986L602.717 182.287C606.549 190.869 602.702 200.928 594.119 204.764C591.946 205.736 589.592 206.241 587.211 206.241ZM580.983 184.454L583.795 190.739C584.637 192.611 586.831 193.448 588.703 192.611C590.569 191.774 591.406 189.575 590.569 187.708L586.691 179.043L580.983 184.454Z" fill="#231F20"/>
<path d="M183.098 219.268C182.355 219.268 181.612 219.325 180.879 219.445C180.931 220.193 180.962 220.942 180.962 221.696V244.667C180.962 245.416 180.931 246.159 180.879 246.903C188.458 248.135 195.606 242.988 196.838 235.409C198.075 227.83 192.929 220.682 185.349 219.45C184.606 219.325 183.852 219.268 183.098 219.268Z" fill="#F9D0B4"/>
<path d="M114.308 244.667V221.696C114.308 220.942 114.345 220.193 114.397 219.445C106.812 218.171 99.6331 223.281 98.3595 230.865C97.0807 238.445 102.196 245.624 109.775 246.903C111.304 247.157 112.868 247.157 114.397 246.903C114.345 246.164 114.308 245.416 114.308 244.667Z" fill="#F9D0B4"/>
<path d="M147.635 325.434C143.96 325.44 140.976 322.466 140.97 318.791C140.97 317.018 141.672 315.324 142.925 314.071C143.247 313.78 143.59 313.509 143.939 313.244C144.303 313.016 144.687 312.808 145.082 312.631C145.488 312.47 145.904 312.345 146.335 312.257C147.193 312.075 148.082 312.075 148.94 312.257C149.371 312.345 149.787 312.47 150.192 312.631C150.587 312.808 150.967 313.016 151.336 313.244C151.69 313.499 152.027 313.775 152.35 314.071C154.949 316.665 154.954 320.881 152.36 323.48C151.107 324.738 149.407 325.44 147.635 325.434Z" fill="#231F20"/>
<path d="M147.635 350.08C147.198 350.09 146.762 350.044 146.335 349.95C145.909 349.862 145.488 349.737 145.082 349.576C144.682 349.409 144.298 349.201 143.939 348.962C143.575 348.718 143.237 348.443 142.925 348.141C142.618 347.829 142.343 347.491 142.099 347.127C141.854 346.769 141.652 346.384 141.49 345.978C141.324 345.578 141.199 345.157 141.116 344.731C141.033 344.299 140.986 343.863 140.981 343.426C140.986 342.995 141.033 342.568 141.116 342.152C141.199 341.721 141.324 341.3 141.49 340.894C141.652 340.494 141.854 340.11 142.099 339.751C142.343 339.387 142.618 339.049 142.925 338.742C143.237 338.436 143.575 338.16 143.939 337.916C144.298 337.666 144.682 337.453 145.082 337.276C145.488 337.115 145.904 336.99 146.335 336.902C147.193 336.741 148.077 336.741 148.94 336.902C149.371 336.985 149.787 337.11 150.192 337.276C150.593 337.453 150.977 337.666 151.336 337.916C151.705 338.155 152.043 338.43 152.35 338.742C152.657 339.049 152.932 339.387 153.171 339.751C153.415 340.11 153.623 340.494 153.785 340.894C153.951 341.3 154.07 341.721 154.159 342.152C154.242 342.568 154.284 342.995 154.289 343.426C154.289 343.863 154.242 344.299 154.159 344.731C154.076 345.157 153.951 345.578 153.785 345.978C153.623 346.384 153.415 346.769 153.171 347.127C152.932 347.491 152.657 347.829 152.35 348.141C151.097 349.383 149.402 350.085 147.635 350.08Z" fill="#231F20"/>
<path d="M147.635 374.721C147.198 374.721 146.762 374.689 146.335 374.611C145.904 374.518 145.488 374.383 145.082 374.216C144.682 374.05 144.298 373.842 143.939 373.603C143.575 373.359 143.237 373.083 142.925 372.776C142.618 372.47 142.343 372.132 142.099 371.768C141.865 371.399 141.662 371.019 141.49 370.619C141.324 370.219 141.199 369.798 141.116 369.366C141.033 368.945 140.986 368.519 140.981 368.093C140.986 367.656 141.033 367.219 141.116 366.788C141.199 366.362 141.324 365.94 141.49 365.54C141.652 365.135 141.854 364.75 142.099 364.391C142.343 364.027 142.618 363.69 142.925 363.378C143.237 363.071 143.575 362.801 143.939 362.556C144.298 362.312 144.682 362.109 145.082 361.943C145.488 361.777 145.904 361.641 146.335 361.548C147.193 361.382 148.077 361.382 148.94 361.548C149.797 361.73 150.608 362.073 151.336 362.556C151.7 362.801 152.038 363.076 152.35 363.383C152.657 363.69 152.932 364.027 153.171 364.391C153.415 364.75 153.623 365.135 153.785 365.54C153.951 365.946 154.076 366.362 154.159 366.793C154.258 367.219 154.299 367.656 154.289 368.098C154.299 368.524 154.252 368.95 154.159 369.371C154.07 369.798 153.951 370.219 153.785 370.624C153.623 371.025 153.415 371.409 153.171 371.768C152.932 372.132 152.657 372.47 152.35 372.782C152.038 373.088 151.7 373.359 151.336 373.603C150.977 373.847 150.593 374.05 150.192 374.216C149.792 374.388 149.371 374.523 148.94 374.617C148.508 374.689 148.072 374.726 147.635 374.721Z" fill="#231F20"/>
<path d="M147.635 399.402C143.96 399.408 140.976 396.434 140.97 392.759C140.97 390.986 141.672 389.286 142.925 388.034C145.576 385.544 149.699 385.544 152.35 388.034C152.662 388.34 152.937 388.683 153.171 389.047C153.415 389.406 153.623 389.791 153.784 390.191C153.951 390.596 154.07 391.012 154.159 391.444C154.242 391.87 154.289 392.307 154.289 392.748C154.284 393.185 154.242 393.622 154.159 394.053C154.07 394.469 153.951 394.88 153.784 395.275C153.623 395.675 153.415 396.06 153.171 396.419C152.927 396.788 152.651 397.136 152.35 397.458C152.038 397.76 151.695 398.04 151.336 398.285C150.967 398.513 150.587 398.721 150.192 398.893C149.787 399.059 149.371 399.184 148.94 399.272C148.513 399.35 148.071 399.397 147.635 399.402Z" fill="#231F20"/>
<path d="M156.134 306.117H139.021C133.714 306.112 128.827 303.232 126.243 298.595L121.336 289.758C119.751 286.899 120.473 283.312 123.046 281.295C123.592 280.879 123.904 280.23 123.904 279.549V273.238C123.904 269.562 126.883 266.584 130.558 266.584C131.764 266.584 132.955 266.916 133.989 267.54C142.384 272.489 152.802 272.51 161.218 267.587C164.374 265.705 168.46 266.74 170.341 269.895C170.96 270.924 171.282 272.104 171.282 273.305V279.263C171.282 279.959 171.605 280.614 172.171 281.03C174.796 283.031 175.555 286.655 173.959 289.545L168.927 298.601C166.344 303.243 161.447 306.117 156.134 306.117ZM135.159 287.258L137.867 292.134C138.101 292.55 138.543 292.81 139.021 292.81H156.139C156.618 292.81 157.059 292.55 157.293 292.134L160.085 287.112C159.352 285.87 158.806 284.534 158.447 283.146C151.367 285.137 143.866 285.137 136.786 283.146C136.443 284.586 135.892 285.969 135.159 287.258Z" fill="#231F20"/>
<path d="M183.098 253.749C182.001 253.744 180.899 253.65 179.818 253.468C176.424 252.928 174.001 249.892 174.23 246.461C174.266 245.863 174.297 245.27 174.297 244.667V221.696C174.297 221.087 174.266 220.49 174.23 219.887C174.001 216.456 176.424 213.42 179.818 212.879C191.031 211.065 201.589 218.686 203.403 229.899C205.217 241.112 197.597 251.67 186.384 253.484C185.297 253.66 184.2 253.744 183.103 253.744L183.098 253.749ZM187.626 227.497V238.861C190.761 236.376 191.291 231.812 188.801 228.672C188.453 228.235 188.063 227.845 187.626 227.497Z" fill="#231F20"/>
<path d="M112.172 253.749C100.808 253.764 91.5859 244.568 91.5703 233.21C91.5547 221.852 100.751 212.63 112.109 212.614C113.232 212.609 114.35 212.697 115.457 212.879C118.841 213.43 121.248 216.466 121.024 219.887C120.983 220.49 120.957 221.087 120.957 221.696V244.667C120.957 245.27 120.983 245.863 121.024 246.461C121.248 249.892 118.831 252.927 115.436 253.468C114.355 253.65 113.263 253.744 112.172 253.749ZM107.644 227.497C104.504 229.987 103.979 234.546 106.469 237.686C106.812 238.122 107.207 238.518 107.644 238.861V227.497Z" fill="#231F20"/>
<path d="M147.635 284.648C125.562 284.622 107.68 266.74 107.654 244.667V217.859C107.654 213.201 111.433 209.427 116.091 209.427C116.668 209.427 117.25 209.49 117.817 209.604C123.499 210.794 137.748 212.25 147.417 200.096C150.322 196.447 155.635 195.839 159.29 198.745C159.518 198.927 159.737 199.124 159.95 199.327C161.899 201.24 167.701 205.716 179.423 206.064C183.925 206.199 187.522 209.843 187.605 214.34V244.667C187.579 266.729 169.702 284.617 147.635 284.648ZM120.962 223.458V244.667C120.962 259.394 132.908 271.335 147.635 271.335C162.362 271.335 174.308 259.394 174.308 244.667V219.018C167.243 218.389 160.449 215.993 154.559 212.042C145.592 220.625 133.298 224.799 120.962 223.458Z" fill="#231F20"/>
<path d="M192.752 229.826C191.031 229.826 189.373 229.155 188.13 227.96C186.493 226.395 184.226 225.672 181.986 226.01C178.357 226.577 174.952 224.097 174.386 220.464C174.334 220.126 174.308 219.783 174.308 219.439V219.018C167.243 218.389 160.449 215.993 154.559 212.042C145.249 220.9 132.424 225.059 119.688 223.343C118.222 225.366 115.743 226.395 113.279 226.005C111.267 225.678 109.219 226.229 107.644 227.507C104.774 229.805 100.584 229.337 98.2866 226.468C97.3457 225.288 96.8311 223.822 96.8311 222.309V206.906C96.857 184.241 115.223 165.875 137.888 165.854H147.666C154.585 165.88 161.203 168.693 166.027 173.652C168.512 172.862 171.106 172.456 173.71 172.456C187.891 172.472 199.385 183.966 199.4 198.147V223.167C199.4 226.842 196.422 229.821 192.746 229.821L192.752 229.826ZM137.888 179.162C122.573 179.178 110.16 191.592 110.144 206.906V211.876C110.342 211.678 110.55 211.491 110.763 211.314C112.738 209.713 115.327 209.084 117.817 209.599C123.504 210.789 137.748 212.245 147.417 200.091C150.322 196.437 155.635 195.828 159.29 198.729C159.524 198.916 159.742 199.109 159.95 199.317C161.899 201.23 167.701 205.705 179.428 206.054C182.09 206.132 184.559 207.468 186.082 209.656V198.147C186.077 191.321 180.546 185.78 173.72 185.759C171.501 185.77 169.323 186.378 167.42 187.527C164.265 189.419 160.179 188.4 158.286 185.25C158.286 185.25 158.286 185.244 158.281 185.244C156.051 181.502 152.028 179.194 147.666 179.162H137.888Z" fill="#231F20"/>
<path d="M23.0088 433.338C11.0109 433.327 1.28991 423.591 1.3003 411.593C1.3055 409.742 1.53943 407.897 2.00728 406.108L15.7726 353.927C17.9403 345.693 22.4473 338.254 28.7426 332.52L75.5437 289.852C81.3919 284.513 89.0231 281.555 96.9402 281.56H119.746C120.229 281.56 120.712 281.617 121.186 281.721C122.386 281.986 123.572 281.233 123.837 280.037C123.873 279.876 123.889 279.715 123.889 279.554V273.243C123.889 269.568 126.867 266.589 130.543 266.589C131.754 266.589 132.939 266.922 133.974 267.545C142.369 272.499 152.792 272.515 161.203 267.597C164.358 265.71 168.444 266.745 170.326 269.895C170.939 270.924 171.267 272.104 171.267 273.31V279.268C171.267 280.495 172.265 281.493 173.492 281.493C173.674 281.493 173.856 281.472 174.027 281.425C174.552 281.295 175.088 281.233 175.628 281.233H196.094C206.496 281.217 216.643 284.419 225.148 290.397L259.073 314.175L281.79 275.286C287.549 265.378 300.098 261.786 310.225 267.145C320.58 272.64 324.609 285.423 319.275 295.861L293.195 346.535C293.143 346.628 293.091 346.727 293.034 346.826C282.731 364.599 259.967 370.655 242.194 360.347C241.731 360.077 241.268 359.796 240.816 359.505L205.337 336.819V416.578C205.337 420.253 202.358 423.232 198.683 423.232H96.4776C92.8023 423.232 89.8236 420.253 89.8236 416.578V339.793L57.8847 369.772L43.7763 417.748C41.0576 426.959 32.6206 433.296 23.0192 433.332L23.0088 433.338ZM96.9402 294.873C92.3397 294.868 87.9054 296.589 84.5109 299.692L37.715 342.35C33.312 346.363 30.1617 351.556 28.6438 357.316L14.8785 409.503C13.7712 413.755 16.1313 418.148 20.29 419.567C24.6722 421.054 29.4288 418.704 30.9103 414.322C30.9467 414.213 30.9831 414.103 31.0143 413.994L45.6217 364.282C45.9596 363.144 46.5886 362.12 47.4568 361.309L91.9186 319.571C94.5958 317.055 98.8064 317.19 101.322 319.872C102.482 321.104 103.126 322.731 103.126 324.421V409.914H192.024V329.666C192.024 324.447 196.25 320.215 201.469 320.215C203.694 320.215 205.846 321 207.546 322.43L247.979 348.287C259.088 355.398 273.857 352.154 280.968 341.04C281.124 340.791 281.28 340.536 281.436 340.281L307.433 289.763C309.492 285.802 307.943 280.926 303.976 278.867C300.15 276.882 295.435 278.254 293.268 281.986L269.677 322.383C269.61 322.492 269.547 322.601 269.475 322.705C265.825 328.226 258.397 329.739 252.876 326.084C252.788 326.022 252.699 325.965 252.606 325.902L217.506 301.288C211.237 296.88 203.757 294.52 196.094 294.53H176.325C168.304 296.017 160.496 291.047 158.448 283.146C151.362 285.132 143.866 285.132 136.781 283.146C134.888 291.089 127.174 296.214 119.117 294.878L96.9402 294.873Z" fill="#231F20"/>
<path d="M23.0088 433.337C11.0109 433.327 1.28991 423.59 1.3003 411.593C1.3055 409.742 1.53943 407.896 2.00728 406.108L5.75532 391.906C6.69103 388.356 10.3299 386.235 13.8856 387.171C13.9272 387.181 13.9636 387.191 14.0052 387.202L43.3033 395.519C46.8382 396.522 48.8915 400.203 47.8882 403.738C47.883 403.759 47.8778 403.779 47.8727 403.8L43.7711 417.747C41.0524 426.964 32.605 433.301 22.9984 433.332L23.0088 433.337ZM16.8955 401.866L14.8785 409.513C13.7712 413.765 16.1313 418.158 20.29 419.577C24.6774 421.064 29.4288 418.714 30.9155 414.327C30.9519 414.223 30.9831 414.114 31.0195 414.01L33.2236 406.498L16.8955 401.866Z" fill="#231F20"/>
<path d="M252.013 598.558H187.169C181.871 598.553 177.572 594.259 177.567 588.957V578.31C177.583 562.621 190.298 549.911 205.987 549.891H233.195C248.884 549.911 261.594 562.621 261.615 578.31V588.957C261.609 594.259 257.31 598.553 252.013 598.558ZM190.875 585.25H248.307V578.3C248.302 569.956 241.538 563.198 233.195 563.188H205.987C197.643 563.198 190.88 569.956 190.875 578.3V585.25Z" fill="#231F20"/>
<path d="M150.104 681.332H85.2594C79.957 681.327 75.6632 677.033 75.658 671.736V661.089C75.6684 645.395 88.3836 632.67 104.078 632.654H131.286C146.975 632.67 159.69 645.385 159.705 661.074V671.72C159.705 677.027 155.406 681.327 150.104 681.332ZM88.9658 668.024H146.398V661.079C146.392 652.735 139.629 645.972 131.286 645.962H104.078C95.7341 645.972 88.971 652.735 88.9658 661.079V668.024Z" fill="#231F20"/>
<path d="M96.4723 647.371C92.797 647.371 89.8184 644.392 89.8184 640.717V416.568C89.8184 412.892 92.797 409.914 96.4723 409.914H209.355C229.567 409.934 245.952 426.32 245.973 446.531V557.428C245.973 561.103 242.999 564.082 239.324 564.087C238.685 564.087 238.045 563.994 237.432 563.812C236.059 563.406 234.63 563.193 233.195 563.193H205.987C204.261 563.198 202.551 563.5 200.929 564.093C197.472 565.33 193.661 563.531 192.419 560.069C192.164 559.352 192.034 558.598 192.034 557.839V463.857H151.575C147.261 463.862 143.762 467.361 143.757 471.676V640.129C143.757 643.805 140.778 646.783 137.103 646.783C136.5 646.783 135.897 646.7 135.309 646.534C133.999 646.165 132.648 645.972 131.286 645.962H104.078C102.279 645.972 100.491 646.3 98.8116 646.944C98.063 647.225 97.2676 647.371 96.4723 647.371ZM103.126 423.221V632.67C103.443 632.659 103.76 632.654 104.078 632.654H130.449V471.67C130.465 460.01 139.915 450.56 151.575 450.544H198.688C202.363 450.544 205.342 453.523 205.342 457.198V549.88H232.665V446.531C232.649 433.665 222.221 423.237 209.355 423.221H103.126Z" fill="#231F20"/>
<path d="M96.4723 647.371C92.797 647.371 89.8184 644.392 89.8184 640.717V617.594C89.8184 613.919 92.797 610.94 96.4723 610.94H137.103C140.783 610.94 143.757 613.919 143.757 617.594V640.129C143.757 643.805 140.778 646.783 137.103 646.783C136.5 646.783 135.897 646.7 135.309 646.534C133.999 646.165 132.648 645.972 131.286 645.962H104.078C102.279 645.972 100.491 646.3 98.8116 646.944C98.063 647.225 97.2676 647.371 96.4723 647.371ZM103.126 624.248V632.67C103.443 632.659 103.76 632.654 104.078 632.654H130.449V624.248H103.126Z" fill="#231F20"/>
<path d="M198.688 564.493C195.013 564.493 192.034 561.514 192.034 557.839V534.826C192.034 531.15 195.013 528.172 198.688 528.172H239.319C242.994 528.172 245.973 531.15 245.973 534.826V557.449C245.973 561.124 242.999 564.103 239.324 564.108C238.685 564.108 238.045 564.015 237.432 563.838C236.06 563.427 234.63 563.214 233.195 563.214H205.987C204.261 563.219 202.551 563.521 200.929 564.113C200.206 564.368 199.453 564.498 198.688 564.493ZM205.342 541.479V549.896H232.665V541.485L205.342 541.479Z" fill="#231F20"/>
<path d="M305.151 315.417C304.013 315.417 302.9 315.126 301.913 314.575L275.339 299.786C272.131 297.992 270.977 293.943 272.765 290.735C272.786 290.694 272.807 290.652 272.828 290.616L281.785 275.275C287.544 265.367 300.098 261.78 310.225 267.135C320.575 272.635 324.604 285.417 319.275 295.851L311.062 311.804C309.923 314.019 307.636 315.412 305.146 315.412L305.151 315.417ZM287.747 291.463L302.386 299.609L307.439 289.758C309.456 285.818 307.932 280.983 304.018 278.909C300.192 276.887 295.451 278.244 293.273 281.981L287.747 291.463Z" fill="#231F20"/>
<path d="M659.655 681.332H543.081C539.406 681.332 536.427 678.353 536.427 674.678V317.445C536.427 313.769 539.406 310.791 543.081 310.791H659.655C663.331 310.791 666.309 313.769 666.309 317.445V674.678C666.309 678.353 663.331 681.332 659.655 681.332ZM549.735 668.024H653.001V324.099H549.735V668.024Z" fill="#231F20"/>
<path d="M543.076 681.332H426.497C422.822 681.332 419.843 678.353 419.843 674.678V426.34C419.843 422.665 422.822 419.687 426.497 419.687H543.076C546.751 419.687 549.73 422.665 549.73 426.34V674.678C549.73 678.353 546.751 681.332 543.076 681.332ZM433.151 668.024H536.422V432.994H433.151V668.024Z" fill="#231F20"/>
<path d="M426.492 681.332H309.918C306.243 681.332 303.264 678.353 303.264 674.678V509.13C303.264 505.455 306.243 502.476 309.918 502.476H426.492C430.167 502.476 433.146 505.455 433.146 509.13V674.678C433.146 678.353 430.167 681.332 426.492 681.332ZM316.572 668.024H419.838V515.784H316.572V668.024Z" fill="#231F20"/>
<path d="M309.913 681.332H193.334C189.659 681.332 186.68 678.353 186.68 674.678V591.904C186.68 588.229 189.659 585.25 193.334 585.25H309.913C313.588 585.25 316.567 588.229 316.567 591.904V674.678C316.567 678.353 313.588 681.332 309.913 681.332ZM199.988 668.024H303.259V598.558H199.988V668.024Z" fill="#231F20"/>
<path d="M193.324 681.332H85.2648C81.5895 681.332 78.6108 678.353 78.6108 674.678C78.6108 671.003 81.5895 668.024 85.2648 668.024H193.324C196.999 668.024 199.978 671.003 199.978 674.678C199.978 678.353 196.999 681.332 193.324 681.332Z" fill="#231F20"/>
<path d="M55.7638 681.332H32.2567C28.5815 681.332 25.6028 678.353 25.6028 674.678C25.6028 671.003 28.5815 668.024 32.2567 668.024H55.7638C59.4391 668.024 62.4178 671.003 62.4178 674.678C62.4178 678.353 59.4391 681.332 55.7638 681.332Z" fill="#231F20"/>
</g>
<defs>
<clipPath id="clip0_1901_5854">
<rect width="681.333" height="681.333" fill="white"/>
</clipPath>
</defs>
</svg>
