<svg width="40" height="39" viewBox="0 0 40 39" fill="none" xmlns="http://www.w3.org/2000/svg">
<path d="M38.4609 37.5781H1.05469V0.710938" stroke="#052F38" stroke-linecap="round" stroke-linejoin="round"/>
<path d="M37.2109 36.5234L38.2734 37.5781L37.2109 38.6406H38.1094L39.1719 37.5781L38.1094 36.5234H37.2109Z" fill="#052F38"/>
<path d="M2.11719 1.96094L1.05469 0.898438L0 1.96094V1.0625L1.05469 0L2.11719 1.0625V1.96094Z" fill="#052F38"/>
<path d="M2.85938 20.0234H19.0625V35.8203H2.85938V20.0234Z" fill="#FF7D7D" stroke="#052F38" stroke-miterlimit="10" stroke-linecap="round" stroke-linejoin="round"/>
<path d="M2.85938 2.58594H19.0625V18.3828H2.85938V2.58594Z" fill="#60B7FE" stroke="#052F38" stroke-miterlimit="10" stroke-linecap="round" stroke-linejoin="round"/>
<path d="M20.5781 2.58594H36.375V18.3828H20.5781V2.58594Z" fill="#10CDB7" stroke="#052F38" stroke-miterlimit="10" stroke-linecap="round" stroke-linejoin="round"/>
<path d="M20.5781 20.0234H36.375V35.8203H20.5781V20.0234Z" fill="#FFF281" stroke="#052F38" stroke-miterlimit="10" stroke-linecap="round" stroke-linejoin="round"/>
<path d="M12.2578 8.96094C12.1953 7.875 11.4297 7.32813 10.2656 7.32813C9.14062 7.32813 8.47656 7.82031 8.47656 8.67969C8.47656 9.61719 9.27344 9.78906 10.4062 10.0391C11.9844 10.3828 13.1406 10.6797 13.1406 12.1094C13.1406 13.6562 11.7734 14.2109 10.4453 14.2109C8.66406 14.2109 7.58594 13.2891 7.58594 11.7578V11.6953H8.24219C8.24219 13.0234 9.125 13.6562 10.4922 13.6562C11.7266 13.6562 12.4844 13.1016 12.4844 12.1797C12.4844 11.2109 11.7266 10.9922 10.0625 10.6016C8.96875 10.3516 7.82031 10.1016 7.82031 8.71875C7.82031 7.50781 8.77344 6.75781 10.3125 6.75781C11.8203 6.75781 12.8516 7.48437 12.9219 8.96094H12.2578Z" fill="#052F38"/>
<path d="M31.0312 14.0625H30.2969L28.8359 9.02344C28.6953 8.53125 28.5547 8.04687 28.4766 7.54687C28.3281 8.03125 28.2266 8.52344 28.0859 9.00781L26.6562 14.0625H25.9141L23.9297 6.89844H24.6406L25.9766 11.8672C26.1094 12.3594 26.2109 12.8516 26.3047 13.3438C26.3984 12.8438 26.5234 12.3516 26.6641 11.8672L28.0859 6.89844H28.8594L30.3047 11.9375C30.4219 12.3516 30.5859 12.9219 30.6484 13.3438C30.7578 12.8828 30.8516 12.4062 30.9688 11.9453L32.3203 6.89844H33.0078L31.0312 14.0625Z" fill="#052F38"/>
<path d="M14.3359 28.2657C14.3359 30.5 12.9687 32 10.9453 32C8.92969 32 7.58594 30.4922 7.58594 28.25C7.58594 26.0157 8.94531 24.5 10.9531 24.5C12.9609 24.4922 14.3359 26.0235 14.3359 28.2657ZM8.27344 28.2266C8.27344 30.1485 9.34375 31.4063 10.9609 31.4063C12.5781 31.4063 13.6563 30.1485 13.6563 28.2578C13.6563 26.3672 12.5703 25.086 10.9531 25.086C9.35156 25.086 8.27344 26.3516 8.27344 28.2266Z" fill="#052F38"/>
<path d="M31.3281 25.6719H28.8125V32.25H28.125V25.6719H25.6094V25.0859H31.3203V25.6719H31.3281Z" fill="#052F38"/>
</svg>
