<svg width="40" height="40" viewBox="0 0 40 40" fill="none" xmlns="http://www.w3.org/2000/svg">
<path fill-rule="evenodd" clip-rule="evenodd" d="M12.0945 17.8203H27.8687C27.8687 13.9906 28.4734 11.1508 24.2585 10.7859C24.057 10.7664 23.8898 10.6508 23.8039 10.4664C23.7179 10.282 23.7375 10.0805 23.8554 9.91484L24.5546 8.91953C24.6773 8.74609 24.6921 8.53359 24.5953 8.34687C24.4968 8.15781 24.314 8.04688 24.1015 8.04688H19.0281C15.4429 8.04688 12.0945 10.3383 12.0945 14.1867V17.8203Z" fill="#333333"/>
<path fill-rule="evenodd" clip-rule="evenodd" d="M13.4781 16.4368H26.4851C27.2468 16.4368 27.8687 17.0586 27.8687 17.8204V19.5836C27.8687 20.3454 27.2468 20.9672 26.4851 20.9672H13.4781C12.7164 20.9672 12.0945 20.3454 12.0945 19.5836V17.8204C12.0945 17.0586 12.7164 16.4368 13.4781 16.4368Z" fill="#CB9968"/>
<path fill-rule="evenodd" clip-rule="evenodd" d="M16.8803 23.2351H23.1186V25.6656C23.1186 26.8585 23.7686 27.882 24.8522 28.3859C27.7764 29.7484 31.8842 30.0679 31.8842 33.8562V37.8054C31.8842 38.1101 31.635 38.3585 31.3311 38.3585H8.6686C8.36392 38.3585 8.11548 38.1093 8.11548 37.8054V33.8562C8.11548 30.0679 12.2241 29.7476 15.1475 28.3859C16.2288 27.882 16.8811 26.8585 16.8811 25.6656V23.2351H16.8803Z" fill="#FFD400"/>
<path fill-rule="evenodd" clip-rule="evenodd" d="M16.8804 23.2351H23.1187V25.6656C23.1187 26.5453 23.4702 27.3304 24.0882 27.8835C23.5093 29.5867 21.8913 30.8187 19.9991 30.8187C18.1069 30.8187 16.4897 29.5875 15.9077 27.8835C16.5257 27.3304 16.8796 26.5453 16.8796 25.6656V23.2351H16.8804Z" fill="#FBBD80"/>
<path fill-rule="evenodd" clip-rule="evenodd" d="M16.8802 23.2351H23.1185V25.6656C23.1185 25.9382 23.1529 26.2 23.2169 26.4507C22.2833 26.9289 21.2279 27.2015 20.113 27.2015H19.8513C18.7466 27.2015 17.7021 26.9359 16.7771 26.4656C16.8435 26.2101 16.8802 25.9421 16.8802 25.6656V23.2351Z" fill="#E2AA73"/>
<path fill-rule="evenodd" clip-rule="evenodd" d="M21.2974 14.0406L22.0654 14.5515C22.4708 14.8242 22.8912 14.9523 23.3802 14.9523H23.8287C24.7701 14.9523 25.5388 15.7203 25.5388 16.6625V20.3781C25.5388 23.3601 23.0974 25.8015 20.113 25.8015H19.8513C16.8669 25.8015 14.4255 23.3601 14.4255 20.3781V16.6625C14.4255 15.721 15.1935 14.9523 16.1357 14.9523H16.5841C17.0732 14.9523 17.4935 14.8234 17.899 14.5515L18.6646 14.0406C19.4802 13.4953 20.4849 13.4953 21.2974 14.0406Z" fill="#FBBD80"/>
<path fill-rule="evenodd" clip-rule="evenodd" d="M20.6781 25.7734C20.4937 25.793 20.3046 25.8016 20.114 25.8016H19.8523C16.8679 25.8016 14.4265 23.3602 14.4265 20.3781V16.6625C14.4265 16.1477 14.6539 15.6844 15.0164 15.3711V20.3484C15.0164 23.3328 17.4578 25.7742 20.4421 25.7742H20.6781V25.7734Z" fill="#E2AA73"/>
<path d="M36.5937 28.7273V19.4656C36.5937 19.3133 36.7179 19.1867 36.8726 19.1867H39.0953C39.2109 19.1867 39.3078 19.1227 39.3531 19.0148C39.3961 18.9094 39.3742 18.7937 39.2929 18.7125L34.9383 14.3594C34.8312 14.25 34.6531 14.25 34.5453 14.3594L30.1906 18.7125C30.1094 18.7937 30.0875 18.9102 30.1304 19.0148C30.1758 19.1219 30.2719 19.1867 30.3883 19.1867H32.6109C32.7656 19.1867 32.8898 19.3133 32.8898 19.4656V28.7266C32.8898 28.9109 33.0398 29.0633 33.2265 29.0633H36.2578C36.4414 29.0641 36.5937 28.9117 36.5937 28.7273Z" fill="#70DA40"/>
<path d="M7.11086 28.7273V19.4656C7.11086 19.3133 7.23508 19.1867 7.38743 19.1867H9.61243C9.72649 19.1867 9.82493 19.1227 9.87024 19.0148C9.91321 18.9094 9.88977 18.7937 9.80774 18.7125L5.45461 14.3594C5.34524 14.25 5.16946 14.25 5.06165 14.3594L0.706959 18.7133C0.625709 18.7945 0.603834 18.9109 0.646802 19.0156C0.692115 19.1227 0.788209 19.1875 0.904615 19.1875H3.12727C3.27961 19.1875 3.40618 19.3141 3.40618 19.4664V28.7273C3.40618 28.9117 3.55618 29.0641 3.7429 29.0641H6.77415C6.95852 29.0641 7.11086 28.9117 7.11086 28.7273Z" fill="#70DA40"/>
<path d="M5.79836 14.7015L5.4554 14.3601C5.34602 14.2507 5.17024 14.2507 5.06243 14.3601L0.706959 18.7132C0.625709 18.7945 0.603834 18.9109 0.646802 19.0156C0.692115 19.1226 0.788209 19.1875 0.904615 19.1875H1.98118C1.86711 19.1875 1.76868 19.1234 1.72571 19.0156C1.6804 18.9101 1.70461 18.7945 1.78586 18.7132L5.79836 14.7015ZM3.12727 19.1875C3.27961 19.1875 3.40618 19.314 3.40618 19.4664V28.7273C3.40618 28.9117 3.55618 29.064 3.7429 29.064H4.81946C4.63508 29.064 4.48274 28.9117 4.48274 28.7273V19.4656C4.48274 19.3132 4.35852 19.1867 4.20618 19.1867H3.12727V19.1875Z" fill="#65C43A"/>
<path d="M35.2812 14.7015L34.9383 14.3601C34.8312 14.2507 34.6531 14.2507 34.5453 14.3601L30.1906 18.7132C30.1094 18.7945 30.0875 18.9109 30.1304 19.0156C30.1758 19.1226 30.2719 19.1875 30.3883 19.1875H31.4672C31.3515 19.1875 31.2523 19.1234 31.2101 19.0156C31.1648 18.9101 31.189 18.7945 31.2703 18.7132L35.2812 14.7015ZM32.6101 19.1875C32.7648 19.1875 32.889 19.314 32.889 19.4664V28.7273C32.889 28.9117 33.039 29.064 33.2258 29.064H34.3047C34.1179 29.064 33.9656 28.9117 33.9656 28.7273V19.4656C33.9656 19.3132 33.8414 19.1867 33.689 19.1867H32.6101V19.1875Z" fill="#65C43A"/>
<path d="M27.1906 28.6524C26.4859 28.4047 25.7577 28.1485 25.1163 27.85C24.2562 27.4493 23.7429 26.643 23.7429 25.6946V25.243C24.9023 24.3711 25.739 23.093 26.0406 21.6219H26.4843C27.5921 21.6219 28.4929 20.7211 28.4929 19.6133V17.8485C28.4929 17.4118 28.5007 16.9868 28.5085 16.575C28.5398 14.9227 28.5663 13.4954 28.0617 12.3672C27.4859 11.0813 26.332 10.3922 24.4343 10.204L25.0679 9.30708C25.3242 8.93911 25.3546 8.48286 25.1499 8.08755C24.9468 7.69536 24.546 7.45083 24.1038 7.45083H19.0281C17.0609 7.45083 15.2124 8.07896 13.8218 9.2188C12.3054 10.4618 11.4702 12.2368 11.4702 14.2165V19.6133C11.4702 20.7211 12.371 21.6219 13.4788 21.6219H13.9249C14.2288 23.1071 15.0796 24.3954 16.2562 25.268V25.6946C16.2562 26.643 15.7437 27.4493 14.8851 27.85C14.2429 28.1493 13.5148 28.4047 12.8101 28.6524C10.3163 29.529 7.49056 30.5219 7.49056 33.886V37.8344C7.49056 38.4844 8.01868 39.0125 8.66868 39.0125H31.3327C31.9827 39.0125 32.5109 38.4844 32.5109 37.8344V33.886C32.5101 30.5219 29.6843 29.529 27.1906 28.6524ZM27.2445 19.6133C27.2445 20.0321 26.9038 20.3727 26.4851 20.3727H26.164V17.0907H26.4843C26.9031 17.0907 27.2437 17.4305 27.2437 17.8477V19.6133H27.2445ZM19.0281 8.70005H23.9679L23.3437 9.58442C23.0968 9.93442 23.0577 10.3743 23.2382 10.7594C23.4179 11.1469 23.7788 11.4 24.2046 11.4375C27.0632 11.6852 27.3046 12.9571 27.2687 16.0016C27.0273 15.8993 26.7624 15.8422 26.4843 15.8422H26.0031C25.6632 14.9735 24.8171 14.3563 23.8288 14.3563H23.3812C23.0132 14.3563 22.714 14.2657 22.4117 14.0633L21.6452 13.5493L21.6445 13.5485C20.6195 12.8641 19.3452 12.8641 18.3187 13.5493L17.5531 14.0625C17.2499 14.2657 16.9499 14.3555 16.5827 14.3555H16.1351C15.1468 14.3555 14.3015 14.9727 13.9609 15.8415H13.4773C13.2085 15.8415 12.9523 15.8946 12.7179 15.9907V14.2157C12.7187 10.5954 15.8929 8.70005 19.0281 8.70005ZM12.7187 19.6133V17.8485C12.7187 17.4305 13.0593 17.0915 13.4781 17.0915H13.8015V20.3735H13.4781C13.0593 20.3735 12.7187 20.0321 12.7187 19.6133ZM15.0507 20.4063V16.6899C15.0507 16.0915 15.5374 15.6047 16.1359 15.6047H16.5835C17.1968 15.6047 17.7413 15.4399 18.2492 15.1L19.014 14.5868C19.6202 14.1821 20.3445 14.1821 20.9507 14.5868L21.7171 15.1008C22.2242 15.4399 22.7687 15.6047 23.382 15.6047H23.8296C24.4281 15.6047 24.9148 16.0915 24.9148 16.6899V20.4063C24.9148 22.0493 24.0851 23.5016 22.8226 24.3672C22.7906 24.3844 22.7609 24.4047 22.7327 24.4266C21.9788 24.9196 21.0796 25.2071 20.1132 25.2071H19.8523C18.8976 25.2071 18.007 24.9258 17.2585 24.443C17.2304 24.4219 17.2007 24.4024 17.1695 24.386C15.8921 23.5227 15.0507 22.061 15.0507 20.4063ZM19.8523 26.4563H20.1132C20.9617 26.4563 21.7695 26.2797 22.5031 25.9633C22.5577 26.7657 22.8585 27.4899 23.3585 28.0649C22.7593 29.3711 21.4538 30.2258 20.0007 30.2258C18.5468 30.2258 17.2413 29.3711 16.6421 28.0641C17.1382 27.493 17.4374 26.7743 17.4945 25.9782C18.2187 26.286 19.0156 26.4563 19.8523 26.4563ZM31.2617 37.7641H26.757V35.8438C26.757 35.4985 26.4773 35.2196 26.1327 35.2196C25.7882 35.2196 25.5085 35.4993 25.5085 35.8438V37.7641H14.4929V35.8438C14.4929 35.4985 14.2132 35.2196 13.8687 35.2196C13.5242 35.2196 13.2445 35.4993 13.2445 35.8438V37.7641H8.73978V33.8868C8.73978 31.4071 10.8179 30.6774 13.2242 29.8313C13.957 29.5735 14.7148 29.3079 15.4124 28.9829C15.4921 28.9454 15.5695 28.9063 15.6452 28.8649C16.4976 30.454 18.1601 31.4758 20.0007 31.4758C21.8413 31.4758 23.5038 30.454 24.3562 28.8649C24.432 28.9063 24.5101 28.9461 24.5898 28.9836C25.2874 29.3086 26.0452 29.5743 26.7773 29.8321C29.1835 30.6774 31.2617 31.4079 31.2617 33.8876V37.7641ZM39.7413 18.3079C39.739 18.3055 39.7374 18.304 39.7351 18.3016L35.3812 13.9477C35.2109 13.7774 34.9843 13.6836 34.7421 13.6836C34.5007 13.6836 34.2742 13.7774 34.1031 13.9477L29.7492 18.3016C29.4898 18.561 29.4132 18.9477 29.5546 19.2868C29.6952 19.6235 30.0218 19.8415 30.3882 19.8415H32.264V28.7579C32.264 29.2875 32.6952 29.7188 33.2249 29.7188H36.257C36.7866 29.7188 37.2179 29.2875 37.2179 28.7579V19.8415H39.096C39.4617 19.8415 39.789 19.6235 39.9296 19.2868C40.0687 18.9532 39.9952 18.5688 39.7413 18.3079ZM36.8734 18.593C36.3749 18.593 35.9695 18.9985 35.9695 19.4961V28.4696H33.5132V19.4961C33.5132 18.9977 33.1085 18.593 32.6116 18.593H31.2249L34.7421 15.0758L38.2593 18.593H36.8734ZM7.73587 19.8415H9.61165C9.97728 19.8415 10.3046 19.6235 10.4452 19.2868C10.5867 18.9477 10.5101 18.561 10.2507 18.3016L5.89681 13.9477C5.54447 13.5954 4.97181 13.5954 4.61947 13.9477L0.26556 18.3016C0.00618491 18.561 -0.0703776 18.9477 0.0710286 19.2868C0.211654 19.6235 0.538216 19.8415 0.904622 19.8415H2.7804V28.7579C2.7804 29.2875 3.21243 29.7188 3.74368 29.7188H6.77337C7.30462 29.7188 7.73665 29.2875 7.73665 28.7579V19.8415H7.73587ZM7.38822 18.593C6.89134 18.593 6.48665 18.9985 6.48665 19.4961V28.4696H4.02884V19.4961C4.02884 18.9977 3.62415 18.593 3.12728 18.593H1.74056L5.25775 15.0758L8.77493 18.593H7.38822ZM19.3757 4.93286V1.61177C19.3757 1.26645 19.6554 0.987549 19.9999 0.987549C20.3452 0.987549 20.6242 1.26724 20.6242 1.61177V4.93364C20.6242 5.27896 20.3445 5.55786 19.9999 5.55786C19.6554 5.55786 19.3757 5.27817 19.3757 4.93286ZM23.5867 5.32583L24.446 2.11489C24.5351 1.78208 24.8773 1.58442 25.2109 1.67271C25.5437 1.76177 25.7421 2.10396 25.6531 2.43755L24.7937 5.64849C24.7187 5.92739 24.4663 6.11177 24.1906 6.11177C24.1374 6.11177 24.0827 6.10474 24.0288 6.09067C23.6952 6.00083 23.4976 5.65864 23.5867 5.32583ZM27.5538 6.79146L29.2148 3.91255C29.3874 3.61411 29.7687 3.51099 30.0679 3.68364C30.3663 3.8563 30.4695 4.23755 30.2968 4.53677L28.6359 7.41567C28.5202 7.61646 28.3101 7.72817 28.0945 7.72817C27.9882 7.72817 27.8812 7.70083 27.7827 7.64458C27.4835 7.47192 27.3812 7.08989 27.5538 6.79146ZM31.0062 10.1188C30.7624 9.87505 30.7617 9.47974 31.0054 9.2352L33.3554 6.88364C33.5992 6.63989 33.9945 6.63911 34.239 6.88286C34.4827 7.12661 34.4835 7.52192 34.2398 7.76646L31.8898 10.118C31.7679 10.2399 31.6077 10.3008 31.4476 10.3008C31.2874 10.3016 31.1281 10.2407 31.0062 10.1188ZM14.346 2.43755C14.257 2.10474 14.4546 1.76177 14.7874 1.67271C15.1202 1.58286 15.4632 1.7813 15.5523 2.11411L16.414 5.32505C16.5031 5.65786 16.3054 6.00083 15.9726 6.08989C15.9187 6.10474 15.864 6.11099 15.8101 6.11099C15.5343 6.11099 15.282 5.92739 15.207 5.64849L14.346 2.43755ZM9.70228 4.53677C9.52962 4.23833 9.63196 3.8563 9.9304 3.68364C10.2288 3.51099 10.6109 3.61333 10.7835 3.91177L12.4468 6.79067C12.6195 7.08911 12.5171 7.47114 12.2187 7.6438C12.1202 7.70083 12.0132 7.72739 11.907 7.72739C11.6913 7.72739 11.4812 7.61567 11.3656 7.41489L9.70228 4.53677ZM5.76165 7.76646C5.5179 7.52271 5.5179 7.12739 5.76243 6.88286C6.00618 6.63911 6.4015 6.63911 6.64603 6.88364L8.99603 9.2352C9.23978 9.47896 9.23978 9.87427 8.99525 10.1188C8.87337 10.2407 8.71321 10.3016 8.55384 10.3016C8.39368 10.3016 8.23431 10.2407 8.11165 10.1188L5.76165 7.76646Z" fill="black"/>
</svg>
