<?xml version="1.0" encoding="UTF-8"?>
<svg version="1.1" xmlns="http://www.w3.org/2000/svg" width="48" height="40">
<path d="M0 0 C15.84 0 31.68 0 48 0 C48 13.2 48 26.4 48 40 C32.16 40 16.32 40 0 40 C0 26.8 0 13.6 0 0 Z " fill="#D2EAFB" transform="translate(0,0)"/>
<path d="M0 0 C3.65946242 1.37697563 6.40764156 3.29299154 8.9375 6.3125 C10.76426564 10.93314249 10.5152411 14.54015021 8.875 19.1875 C6.57359317 22.63961024 4.7301296 24.1701251 1 26 C-3.42356087 26.86528735 -6.28862322 26.36239949 -10.3125 24.3125 C-14.39923213 20.79600956 -15.74806711 18.53679066 -16.625 13.1875 C-16.48079093 8.4466268 -13.87775816 5.87970045 -10.7265625 2.56640625 C-7.29943659 -0.54281884 -4.53927713 -0.3720719 0 0 Z " fill="#CEE7F8" transform="translate(27,7)"/>
<path d="M0 0 C3.65946242 1.37697563 6.40764156 3.29299154 8.9375 6.3125 C10.76426564 10.93314249 10.5152411 14.54015021 8.875 19.1875 C6.57359317 22.63961024 4.7301296 24.1701251 1 26 C-3.42356087 26.86528735 -6.28862322 26.36239949 -10.3125 24.3125 C-14.39923213 20.79600956 -15.74806711 18.53679066 -16.625 13.1875 C-16.48079093 8.4466268 -13.87775816 5.87970045 -10.7265625 2.56640625 C-7.29943659 -0.54281884 -4.53927713 -0.3720719 0 0 Z M-13 7 C-14.61429923 10.22859847 -14.59570657 13.50993653 -14 17 C-12.26397895 20.02508145 -10.16419863 22.41790069 -7 24 C-1.87629602 24.60728845 -1.87629602 24.60728845 2.82421875 22.953125 C6.62752744 19.82207185 7.88663367 18.13366332 8.375 13.25 C8.35058775 9.89941932 7.75601354 8.15105468 5.625 5.5625 C2.0951414 2.11668565 0.0716348 1.60444164 -4.89453125 1.640625 C-8.61593453 2.27581814 -10.40312849 4.33979016 -13 7 Z " fill="#295C6C" transform="translate(27,7)"/>
<path d="M0 0 C0 0.66 0 1.32 0 2 C-1.134375 2.12375 -2.26875 2.2475 -3.4375 2.375 C-5.2009375 2.684375 -5.2009375 2.684375 -7 3 C-7.33 3.66 -7.66 4.32 -8 5 C-5.36 5 -2.72 5 0 5 C0 5.66 0 6.32 0 7 C-2.64 7 -5.28 7 -8 7 C-7.67 7.66 -7.34 8.32 -7 9 C-4.67843403 9.40729228 -2.3431213 9.74438677 0 10 C0 10.66 0 11.32 0 12 C-6.3782235 12.36103152 -6.3782235 12.36103152 -8.9375 10.875 C-10.52225401 8.07837528 -10.45947423 6.1506804 -10 3 C-7.05843777 -0.39411027 -4.30855278 -0.29376496 0 0 Z " fill="#1F5464" transform="translate(28,14)"/>
</svg>
