<svg width="24" height="24" viewBox="0 0 24 24" fill="none" xmlns="http://www.w3.org/2000/svg">
<path d="M12 22.8C6.04465 22.8 1.19995 17.9553 1.19995 12C1.19995 6.0447 6.04465 1.2 12 1.2C17.9553 1.2 22.8 6.0447 22.8 12C22.8 17.9553 17.9553 22.8 12 22.8ZM12 2.1C6.54145 2.1 2.09995 6.5415 2.09995 12C2.09995 17.4585 6.54145 21.9 12 21.9C17.4585 21.9 21.9 17.4585 21.9 12C21.9 6.5415 17.4585 2.1 12 2.1Z" fill="#D6EEFF"/>
<path d="M12.0001 18C11.8611 18 11.7291 17.942 11.6351 17.841L6.51813 12.358C5.16713 10.91 5.16713 8.55301 6.51813 7.10601C7.84713 5.68101 10.1821 5.67901 11.5131 7.10601L12.0001 7.62701L12.4871 7.10601C13.8171 5.67801 16.1521 5.68001 17.4821 7.10601C18.8331 8.55301 18.8331 10.91 17.4831 12.358L12.3651 17.841C12.2711 17.942 12.1391 18 12.0001 18ZM9.01613 7.00001C8.35013 7.00001 7.72313 7.27901 7.24813 7.78701C6.24913 8.85901 6.24913 10.603 7.24913 11.676L12.0001 16.768L16.7521 11.676C17.7511 10.604 17.7511 8.86001 16.7521 7.78701C15.8041 6.77201 14.1681 6.77001 13.2181 7.78701L12.3651 8.70101C12.1771 8.90401 11.8221 8.90401 11.6351 8.70101L10.7821 7.78701C10.3081 7.27901 9.68113 7.00001 9.01613 7.00001Z" fill="#D6EEFF"/>
</svg>
