<svg width="26" height="24" viewBox="0 0 26 24" fill="none" xmlns="http://www.w3.org/2000/svg">
<path d="M3.35645 2.60474C5.32348 1.13293 8.13072 0.87438 10.6426 1.76782C10.9285 1.86976 11.0773 2.18487 10.9756 2.47095C10.8736 2.75677 10.5593 2.90556 10.2734 2.80396C7.87308 1.95042 5.29313 2.33124 3.69629 3.74438C3.13534 4.24082 2.5617 4.97674 2.23047 6.0481C1.89916 7.11982 1.80692 8.53644 2.22266 10.3967C3.6683 16.8648 9.32614 19.7883 11.8223 21.5325L11.9463 21.6057C12.065 21.6609 12.1669 21.666 12.25 21.6487C12.3644 21.6248 12.4653 21.5529 12.5391 21.4563C12.5964 21.3811 12.6521 21.2626 12.6562 21.137C12.6601 21.0195 12.6195 20.884 12.4648 20.7551H12.4639V20.7542L12.4619 20.7532C12.4602 20.7517 12.4575 20.7491 12.4541 20.7463C12.4471 20.7405 12.4365 20.7313 12.4229 20.72C12.3956 20.6973 12.3554 20.6646 12.3047 20.6223C12.203 20.5377 12.0572 20.4159 11.8828 20.2708C11.5341 19.9805 11.0694 19.5932 10.6045 19.2063C9.67302 18.431 8.74611 17.6605 8.74609 17.6604L8.73828 17.6536C8.61125 17.5386 8.54704 17.3979 8.54102 17.2551C8.53512 17.1149 8.58539 16.9827 8.66895 16.8821C8.83899 16.6774 9.15613 16.593 9.44043 16.8079L9.44727 16.8127H9.44629C9.44629 16.8127 9.50447 16.8607 9.60645 16.9456C9.70832 17.0303 9.85383 17.1519 10.0283 17.2971L12.5869 19.426C12.7611 19.571 12.9061 19.692 13.0078 19.7766C13.0584 19.8187 13.0987 19.8516 13.126 19.8743C13.1396 19.8856 13.1502 19.8948 13.1572 19.9006C13.1607 19.9035 13.1633 19.906 13.165 19.9075L13.167 19.9084L13.168 19.9094C13.9434 20.5547 13.8816 21.4968 13.417 22.1125C13.1847 22.4203 12.8475 22.6546 12.4551 22.7336C12.0598 22.8132 11.6202 22.7336 11.1924 22.4348C10.8936 22.2261 10.5344 21.9909 10.1514 21.7405C7.31757 19.8884 2.51713 16.7561 1.14941 10.636C0.283917 6.76277 1.37993 4.08386 3.35645 2.60474Z" fill="#543434" stroke="#543434" stroke-width="0.3"/>
<path d="M10.6918 14.9456C10.8163 14.9091 10.9646 14.9145 11.1156 15.0002L11.181 15.0422L11.1879 15.0471L11.0922 15.1633L11.1879 15.0481C11.2645 15.1108 12.3829 15.995 13.5004 16.8801C14.059 17.3226 14.6169 17.7643 15.0424 18.1028C15.255 18.272 15.4345 18.4161 15.5648 18.5208C15.6847 18.617 15.7697 18.6863 15.7953 18.7092H15.7963C16.6403 19.4588 16.5438 20.8011 15.6039 21.5344C15.3644 21.7212 15.0183 21.6791 14.8314 21.4397C14.6446 21.2002 14.6877 20.854 14.9271 20.6672L15.0043 20.5999C15.1736 20.4345 15.2729 20.2112 15.2738 20.0032L15.2621 19.8752C15.2369 19.7508 15.172 19.6363 15.0638 19.5305C15.0631 19.5299 15.0617 19.5292 15.0609 19.5286C15.0523 19.5217 15.0393 19.5114 15.0228 19.4983C14.9894 19.4717 14.9406 19.4325 14.8783 19.3831C14.7534 19.2838 14.5749 19.142 14.3607 18.9719C13.9323 18.6316 13.3607 18.1777 12.7894 17.7239C11.6591 16.8259 10.5334 15.9321 10.5062 15.9104L10.4974 15.9036C10.3363 15.7634 10.2843 15.5974 10.2924 15.4495C10.3 15.3104 10.3598 15.1947 10.4095 15.1321C10.4592 15.0696 10.5581 14.9848 10.6918 14.9456Z" fill="#543434" stroke="#543434" stroke-width="0.3"/>
<path d="M17.385 11.8873C17.6336 11.7135 17.9764 11.7737 18.1506 12.0221L20.9036 15.9498C21.9889 17.4988 20.3779 19.4043 18.7913 18.8492C18.702 19.2708 18.4694 19.6682 18.1311 19.9615C17.9025 20.1596 17.5554 20.1367 17.3557 19.9069C17.1567 19.6773 17.181 19.3295 17.4104 19.1305C17.6167 18.9516 17.7338 18.7009 17.7327 18.4664C17.7315 18.2491 17.6334 18.0463 17.4163 17.8619H17.4153V17.861C17.4147 17.8605 17.4134 17.8599 17.4124 17.859C17.41 17.857 17.4062 17.8541 17.4016 17.8502C17.3925 17.8425 17.3791 17.8309 17.3616 17.816C17.3263 17.7862 17.275 17.7419 17.2092 17.6862C17.0777 17.5746 16.8897 17.4154 16.6643 17.2242C16.2135 16.8418 15.6122 16.3318 15.011 15.8219C13.8223 14.8136 12.6292 13.8014 12.6028 13.7789C12.5085 13.696 12.4502 13.6038 12.4221 13.5084C12.3943 13.4137 12.3987 13.3243 12.4153 13.2506C12.4475 13.1081 12.5277 13.0106 12.5344 13.0026L12.5999 12.9401C12.6382 12.9087 12.6926 12.8724 12.76 12.8453C12.9061 12.7867 13.1044 12.7786 13.3098 12.9371L13.3157 12.942C13.3157 12.942 13.5619 13.1508 13.9583 13.486C14.3543 13.8208 14.9 14.2816 15.4963 14.7858C16.6888 15.7941 18.0865 16.9754 18.9075 17.6696C19.2348 17.9464 19.6304 17.8697 19.8938 17.6139C20.157 17.358 20.2597 16.948 20.0022 16.5807L17.2502 12.6539C17.0759 12.4052 17.1363 12.0617 17.385 11.8873Z" fill="#543434" stroke="#543434" stroke-width="0.3"/>
<path d="M12.6649 3.36389C14.565 1.70336 17.0941 1.0022 19.3788 1.30725C21.6665 1.61273 23.7182 2.93047 24.6366 5.31311C25.8338 8.41975 24.7851 12.5168 23.0594 15.3317C22.9003 15.5913 22.5609 15.6717 22.3026 15.5133C22.0437 15.3545 21.9623 15.0154 22.121 14.7565C22.9452 13.4121 23.5359 11.9089 23.828 10.4108C24.5012 6.95735 23.6211 4.39019 21.4139 3.11877C19.0492 1.75674 15.6698 2.19949 13.3885 4.19299L9.44128 7.63635L9.3407 7.74866C8.86945 8.32684 8.86493 9.1647 9.34363 9.72034C9.8189 10.2717 10.6217 10.4093 11.2518 10.0485L14.7518 8.04456C14.9985 7.90329 15.3122 7.97313 15.4755 8.20569L16.6044 9.81702C17.8177 10.0192 18.7555 9.7909 19.4218 9.16663C19.6434 8.95926 19.9914 8.97041 20.1991 9.19202C20.4066 9.41362 20.3952 9.7617 20.1737 9.96936C19.1918 10.8895 17.8008 11.1857 16.1757 10.8571C16.0374 10.8291 15.9148 10.7489 15.8339 10.6334L14.8622 9.24866L11.7987 11.0035C10.7116 11.6261 9.32913 11.3879 8.51062 10.4381C7.61958 9.4039 7.6934 7.82857 8.67175 6.85022C8.67677 6.84526 8.68713 6.83543 8.69031 6.83264C8.69808 6.82584 8.70977 6.81621 8.72449 6.80334C8.75399 6.77756 8.79681 6.73972 8.85144 6.69202C8.96089 6.59644 9.11757 6.46071 9.30457 6.29749C9.67861 5.971 10.1768 5.5357 10.6747 5.1012C11.1724 4.66685 11.6697 4.23246 12.0428 3.90686C12.2294 3.74405 12.3852 3.60828 12.494 3.51331C12.5484 3.46582 12.5918 3.42839 12.621 3.40295C12.6353 3.39041 12.6467 3.38115 12.6542 3.37463C12.6578 3.37151 12.6601 3.36849 12.662 3.36682C12.6629 3.36599 12.6644 3.36529 12.6649 3.36487V3.36389Z" fill="#543434" stroke="#543434" stroke-width="0.3"/>
</svg>
