<svg width="24" height="24" viewBox="0 0 24 24" fill="none" xmlns="http://www.w3.org/2000/svg">
<path d="M16.7943 12.6361C17.0398 12.6362 17.2809 12.701 17.4935 12.8236L19.8822 14.2025C20.0949 14.3253 20.2711 14.5025 20.3939 14.7152C20.5168 14.928 20.5824 15.1697 20.5824 15.4154V18.1732C20.5821 18.4186 20.5167 18.66 20.3939 18.8724C20.2711 19.0848 20.0947 19.2615 19.8822 19.3842L17.4945 20.764H17.4935C17.2809 20.8867 17.0398 20.9515 16.7943 20.9515C16.5486 20.9515 16.3069 20.8869 16.0941 20.764L13.7064 19.3851C13.4936 19.2623 13.3166 19.0853 13.1937 18.8724C13.071 18.6598 13.0063 18.4187 13.0062 18.1732V15.4154C13.0065 15.17 13.071 14.9286 13.1937 14.7162C13.2858 14.5569 13.4081 14.4174 13.5531 14.306L13.7064 14.2035L16.0941 12.8236C16.3069 12.7008 16.5487 12.6361 16.7943 12.6361ZM7.19958 13.0004C8.20736 13.0004 9.17446 13.4001 9.88708 14.1127C10.5997 14.8253 11.0004 15.7923 11.0004 16.8002C11.0003 17.8078 10.5996 18.7741 9.88708 19.4867C9.17445 20.1993 8.20741 20.6 7.19958 20.6C6.1919 20.5999 5.22561 20.1992 4.51306 19.4867C3.80053 18.7741 3.39983 17.8079 3.39978 16.8002C3.39978 15.7923 3.80042 14.8253 4.51306 14.1127C5.22559 13.4002 6.192 13.0005 7.19958 13.0004ZM14.6058 15.5306V18.0551L16.7933 19.3197L18.9818 18.057V15.5316L16.7933 14.267L14.6058 15.5306ZM7.19958 14.6C6.61625 14.6001 6.05641 14.832 5.64392 15.2445C5.23152 15.6571 5.00037 16.2168 5.00037 16.8002C5.00042 17.3835 5.23145 17.9433 5.64392 18.3558C6.05641 18.7683 6.61625 19.0003 7.19958 19.0004C7.78292 19.0004 8.3427 18.7682 8.75525 18.3558C9.16778 17.9433 9.39973 17.3836 9.39978 16.8002C9.39978 16.2167 9.16783 15.6571 8.75525 15.2445C8.34268 14.832 7.78301 14.6 7.19958 14.6ZM7.19958 3.40076C7.50787 3.40076 7.81056 3.48646 8.07263 3.6488C8.33427 3.8109 8.54471 4.04329 8.68201 4.31873H8.68298L10.8187 8.56189C11.3799 9.67602 10.5802 11.0001 9.3363 11.0004H5.06677C3.82253 11.0004 3.02397 9.67645 3.58044 8.56287L3.58142 8.56189L5.71716 4.31873C5.85446 4.04315 6.06578 3.81096 6.32751 3.6488C6.58944 3.48658 6.8915 3.40083 7.19958 3.40076ZM18.6 3.39978C19.1304 3.39978 19.639 3.61071 20.014 3.98572C20.3891 4.36074 20.5999 4.86942 20.6 5.39978V9.00037C20.5999 9.53066 20.389 10.0394 20.014 10.4144C19.639 10.7894 19.1303 11.0004 18.6 11.0004H15.0004C14.4699 11.0004 13.9604 10.7895 13.5853 10.4144C13.2104 10.0395 13.0005 9.53061 13.0004 9.00037V5.39978C13.0004 4.86951 13.2104 4.36073 13.5853 3.98572C13.9604 3.61064 14.4699 3.39978 15.0004 3.39978H18.6ZM15.0004 5.00037C14.8943 5.00037 14.7922 5.04254 14.7172 5.11755C14.6423 5.1925 14.6 5.29386 14.6 5.39978V9.00037C14.6001 9.10627 14.6423 9.20768 14.7172 9.28259C14.7922 9.35761 14.8943 9.39978 15.0004 9.39978H18.6C18.7061 9.39978 18.8082 9.35761 18.8832 9.28259C18.9579 9.2077 19.0003 9.10618 19.0004 9.00037V5.39978C19.0003 5.29395 18.9579 5.19248 18.8832 5.11755C18.8082 5.04254 18.7061 5.00037 18.6 5.00037H15.0004ZM7.17029 5.01013C7.16119 5.01589 7.1534 5.02481 7.1488 5.03455L7.14685 5.03845L5.01013 9.28162L5.0072 9.28748C5.00104 9.29877 4.99736 9.31172 4.99744 9.32458C4.99756 9.33747 5.00085 9.35048 5.0072 9.36169C5.01363 9.37295 5.02345 9.38234 5.03455 9.38904C5.04554 9.39563 5.05787 9.39931 5.07068 9.39978H9.32751C9.34047 9.39933 9.35353 9.39574 9.36462 9.38904C9.37566 9.38235 9.38459 9.3729 9.39099 9.36169C9.39742 9.35043 9.40161 9.33755 9.40173 9.32458C9.40181 9.31172 9.39813 9.29877 9.39197 9.28748L9.38904 9.28162L7.25427 5.03845L7.25232 5.03455C7.24772 5.02481 7.23993 5.01589 7.23083 5.01013C7.2218 5.00447 7.21123 5.00134 7.20056 5.00134C7.18989 5.00135 7.17932 5.00447 7.17029 5.01013Z" fill="#543434" stroke="#543434" stroke-width="0.4"/>
</svg>
