<svg width="24" height="24" viewBox="0 0 24 24" fill="none" xmlns="http://www.w3.org/2000/svg">
<g clip-path="url(#clip0_234_6478)">
<path d="M11.4 2.10054L2.20648 11.293C2.01901 11.4806 1.9137 11.7349 1.9137 12C1.9137 12.2652 2.01901 12.5195 2.20648 12.707L11.4 21.9C11.4928 21.9929 11.6031 22.0666 11.7245 22.1169C11.8458 22.1672 11.9759 22.1931 12.1072 22.1931C12.2386 22.1931 12.3687 22.1672 12.49 22.1169C12.6114 22.0666 12.7216 21.9929 12.8145 21.9L22.0065 12.7075C22.194 12.52 22.2993 12.2657 22.2993 12.0005C22.2993 11.7354 22.194 11.4811 22.0065 11.2935L12.814 2.10004C12.7211 2.00714 12.6109 1.93345 12.4895 1.88317C12.3682 1.83289 12.2381 1.80701 12.1067 1.80701C11.9754 1.80701 11.8453 1.83289 11.724 1.88317C11.6026 1.93345 11.4923 2.00714 11.3995 2.10004L11.4 2.10054Z" stroke="#3C5434" stroke-width="2" stroke-linejoin="round"/>
<path d="M12 16C13.0609 16 14.0783 15.5786 14.8284 14.8284C15.5786 14.0783 16 13.0609 16 12C16 10.9391 15.5786 9.92172 14.8284 9.17157C14.0783 8.42143 13.0609 8 12 8C10.9391 8 9.92172 8.42143 9.17157 9.17157C8.42143 9.92172 8 10.9391 8 12C8 13.0609 8.42143 14.0783 9.17157 14.8284C9.92172 15.5786 10.9391 16 12 16Z" stroke="#3C5434" stroke-width="2" stroke-linejoin="round"/>
</g>
<defs>
<clipPath id="clip0_234_6478">
<rect width="24" height="24" fill="white"/>
</clipPath>
</defs>
</svg>
