<svg width="24" height="24" viewBox="0 0 24 24" fill="none" xmlns="http://www.w3.org/2000/svg">
<g clip-path="url(#clip0_857_5631)">
<path d="M0.704142 5.79806L0.458413 6.37246C0.423074 6.45504 -0.397975 8.41501 0.381691 10.0873C0.939067 11.2825 2.15636 11.9453 2.84008 12.2364C2.87047 12.8097 2.94481 13.3796 3.06127 13.9428C1.86064 13.6533 0.720438 13.912 0.656168 13.9271L0.0614388 14.0666L0.11692 14.675C0.12516 14.7648 0.334999 16.885 1.85625 17.9503C2.77654 18.5946 4.01781 18.7288 5.12799 18.5935C5.53815 19.1372 6.01367 19.6253 6.48792 20.047C5.32739 20.4975 4.53033 21.3734 4.48602 21.4231L4.06634 21.8918L4.48602 22.3606C4.54589 22.4276 5.97522 23.9999 7.82038 23.9999C9.06276 23.9999 10.116 23.2874 10.6902 22.8011C12.1677 23.5943 11.5788 23.2836 12.0366 23.5345C12.9662 23.0256 11.5296 23.7954 13.3844 22.8011C13.9586 23.2874 15.0117 23.9999 16.2543 23.9999C18.0994 23.9999 19.5286 22.4276 19.5886 22.3606L20.0083 21.8918L19.5886 21.4231C19.5441 21.3734 18.7472 20.4975 17.5867 20.047C18.0606 19.6257 18.5358 19.1379 18.9457 18.5944C20.0499 18.7303 21.2629 18.5866 22.1715 17.9503C23.6845 16.8908 23.9442 14.7811 23.9546 14.6917L24.0264 14.0701L23.4172 13.9271C23.3529 13.9119 22.2134 13.6533 21.0134 13.9426C21.1298 13.3794 21.204 12.8096 21.2346 12.2363C21.9183 11.9451 23.1356 11.2823 23.6928 10.0871C24.4726 8.41483 23.6516 6.45504 23.6162 6.37228L23.3705 5.79787L22.7712 5.97476C22.7012 5.99545 21.3755 6.39718 20.4419 7.40152C20.3291 7.06094 20.193 6.73684 20.0165 6.42849C20.5067 5.87295 21.1732 4.89681 21.1732 3.6916C21.1732 1.83857 19.5912 0.453371 19.5238 0.395326L19.0651 0L18.6063 0.395509C18.5389 0.453554 16.957 1.83875 16.957 3.69179C16.957 4.98012 17.7334 6.19723 18.7315 7.01993C19.1547 7.69412 19.3275 8.63108 19.5104 9.49223C19.4088 10.539 19.7087 11.5025 19.842 11.8678C19.8179 12.8863 19.6381 13.8954 19.3066 14.8715C18.4303 15.7438 18.108 16.9663 18.0047 17.4945C17.3278 18.4915 16.3348 19.3129 15.5674 19.8551C14.5506 20.0633 13.5467 20.7338 12.8642 21.4853C12.568 21.645 12.275 21.7999 12.0368 21.9281C11.8075 21.8043 11.4942 21.6382 11.2102 21.4851C10.5285 20.7342 9.52437 20.0633 8.50758 19.8553C7.74 19.3128 6.74683 18.4913 6.06989 17.4945C5.9668 16.9663 5.64453 15.7438 4.768 14.8715C4.43658 13.895 4.25677 12.8861 4.2326 11.8677C4.36608 11.5024 4.66601 10.5389 4.5642 9.49186C4.76415 8.54648 4.91742 7.67233 5.33197 7.0289C6.33649 6.20126 7.1178 4.98818 7.1178 3.69179C7.1178 1.83875 5.53576 0.453554 5.46838 0.395509L5.00952 0L4.55065 0.395509C4.48327 0.453554 2.90142 1.83875 2.90142 3.69179C2.90142 4.89388 3.56426 5.86819 4.05425 6.42446C3.87371 6.73281 3.7373 7.05563 3.62597 7.39438C2.69267 6.39535 1.37321 5.99545 1.30326 5.97494L0.704142 5.79806ZM22.3989 15.2139C22.2382 15.7263 21.9302 16.4036 21.3655 16.7991C20.801 17.1942 20.0594 17.2548 19.5218 17.2329C19.6855 16.7198 19.9966 16.0417 20.5593 15.6477C21.1241 15.2524 21.8644 15.1921 22.3989 15.2139ZM22.5233 7.59305C22.639 8.11984 22.7109 8.86747 22.4191 9.49332C22.1243 10.1256 21.4847 10.5517 20.9934 10.8002C20.8773 10.2741 20.8054 9.52775 21.0983 8.89933C21.3931 8.26743 22.0324 7.84134 22.5233 7.59305ZM19.0649 1.96015C19.3901 2.37397 19.7677 3.00294 19.7677 3.69179C19.7677 4.37953 19.3877 4.98763 19.0651 5.38003C18.7423 4.98763 18.3624 4.37953 18.3624 3.69179C18.3624 3.00276 18.7403 2.37361 19.0649 1.96015ZM16.2543 21.1892C16.9435 21.1892 17.586 21.5653 18.0135 21.8913C17.5851 22.2176 16.9411 22.5948 16.2543 22.5948C15.5652 22.5948 14.9229 22.2188 14.4952 21.8925C14.9234 21.5662 15.5672 21.1892 16.2543 21.1892ZM2.66228 16.7991C2.09813 16.4041 1.80443 15.7242 1.65648 15.2148C2.19353 15.1905 2.94408 15.2478 3.51519 15.6477C4.07989 16.0432 4.39044 16.7196 4.55377 17.2323C4.00152 17.2567 3.23394 17.1993 2.66228 16.7991ZM7.82038 22.5948C7.13117 22.5948 6.48865 22.2187 6.0611 21.8925C6.48956 21.5662 7.13355 21.1892 7.82038 21.1892C8.50941 21.1892 9.15175 21.5651 9.57948 21.8914C9.15101 22.2177 8.50721 22.5948 7.82038 22.5948ZM5.00952 1.96015C5.33453 2.37397 5.71228 3.00294 5.71228 3.69179C5.71228 4.37953 5.33233 4.98763 5.00952 5.38003C4.6867 4.98763 4.30676 4.37953 4.30676 3.69179C4.30676 3.00276 4.68469 2.37361 5.00952 1.96015ZM1.55046 7.5925C2.04155 7.84079 2.68132 8.26706 2.97612 8.89933C3.26909 9.52775 3.19732 10.2739 3.08123 10.8002C2.58995 10.5519 1.95036 10.1256 1.65556 9.49332C1.36241 8.8649 1.43437 8.11838 1.55046 7.5925Z" fill="#006378"/>
<path d="M14.8474 8.49354C14.8474 6.94373 13.5866 5.68286 12.0366 5.68286C10.4868 5.68286 9.22571 6.94373 9.22571 8.49354C9.22571 10.0435 10.4868 11.3044 12.0366 11.3044C13.5866 11.3044 14.8474 10.0435 14.8474 8.49354ZM12.0366 9.89906C11.2617 9.89906 10.6312 9.26863 10.6312 8.49354C10.6312 7.71864 11.2617 7.0882 12.0366 7.0882C12.8115 7.0882 13.4421 7.71864 13.4421 8.49354C13.4421 9.26863 12.8115 9.89906 12.0366 9.89906Z" fill="#006378"/>
<path d="M7.82043 15.5208V16.9262H16.2528V15.5208C16.2528 13.1959 14.3615 11.3044 12.0366 11.3044C9.71174 11.3044 7.82043 13.1959 7.82043 15.5208ZM12.0366 12.71C13.5866 12.71 14.8475 13.9708 14.8475 15.5208H9.22577C9.22577 13.9708 10.4868 12.71 12.0366 12.71Z" fill="#006378"/>
</g>
<defs>
<clipPath id="clip0_857_5631">
<rect width="24" height="24" fill="white"/>
</clipPath>
</defs>
</svg>
