<svg width="21" height="18" viewBox="0 0 21 18" fill="none" xmlns="http://www.w3.org/2000/svg">
<path d="M7.503 2.997C7.503 2.20215 7.81875 1.43985 8.3808 0.877801C8.94285 0.315754 9.70515 0 10.5 0C11.2949 0 12.0572 0.315754 12.6192 0.877801C13.1812 1.43985 13.497 2.20215 13.497 2.997C13.497 3.79185 13.1812 4.55415 12.6192 5.1162C12.0572 5.67825 11.2949 5.994 10.5 5.994C9.70515 5.994 8.94285 5.67825 8.3808 5.1162C7.81875 4.55415 7.503 3.79185 7.503 2.997ZM10.5 1.5C10.3034 1.5 10.1087 1.53872 9.92712 1.61395C9.7455 1.68918 9.58047 1.79945 9.44146 1.93846C9.30245 2.07747 9.19218 2.2425 9.11695 2.42412C9.04172 2.60575 9.003 2.80041 9.003 2.997C9.003 3.19359 9.04172 3.38825 9.11695 3.56988C9.19218 3.7515 9.30245 3.91653 9.44146 4.05554C9.58047 4.19455 9.7455 4.30482 9.92712 4.38005C10.1087 4.45528 10.3034 4.494 10.5 4.494C10.897 4.494 11.2778 4.33628 11.5585 4.05554C11.8393 3.7748 11.997 3.39403 11.997 2.997C11.997 2.59997 11.8393 2.2192 11.5585 1.93846C11.2778 1.65772 10.897 1.5 10.5 1.5ZM15 3.747C15 3.45153 15.0582 3.15894 15.1713 2.88596C15.2843 2.61298 15.4501 2.36494 15.659 2.15601C15.8679 1.94708 16.116 1.78134 16.389 1.66827C16.6619 1.5552 16.9545 1.497 17.25 1.497C17.5455 1.497 17.8381 1.5552 18.111 1.66827C18.384 1.78134 18.6321 1.94708 18.841 2.15601C19.0499 2.36494 19.2157 2.61298 19.3287 2.88596C19.4418 3.15894 19.5 3.45153 19.5 3.747C19.5 4.34374 19.2629 4.91603 18.841 5.33799C18.419 5.75995 17.8467 5.997 17.25 5.997C16.6533 5.997 16.081 5.75995 15.659 5.33799C15.2371 4.91603 15 4.34374 15 3.747ZM17.25 2.997C17.0511 2.997 16.8603 3.07602 16.7197 3.21667C16.579 3.35732 16.5 3.54809 16.5 3.747C16.5 3.94591 16.579 4.13668 16.7197 4.27733C16.8603 4.41798 17.0511 4.497 17.25 4.497C17.4489 4.497 17.6397 4.41798 17.7803 4.27733C17.921 4.13668 18 3.94591 18 3.747C18 3.54809 17.921 3.35732 17.7803 3.21667C17.6397 3.07602 17.4489 2.997 17.25 2.997ZM3.75 1.497C3.15326 1.497 2.58097 1.73405 2.15901 2.15601C1.73705 2.57797 1.5 3.15026 1.5 3.747C1.5 4.34374 1.73705 4.91603 2.15901 5.33799C2.58097 5.75995 3.15326 5.997 3.75 5.997C4.34674 5.997 4.91903 5.75995 5.34099 5.33799C5.76295 4.91603 6 4.34374 6 3.747C6 3.15026 5.76295 2.57797 5.34099 2.15601C4.91903 1.73405 4.34674 1.497 3.75 1.497ZM3 3.747C3 3.54809 3.07902 3.35732 3.21967 3.21667C3.36032 3.07602 3.55109 2.997 3.75 2.997C3.94891 2.997 4.13968 3.07602 4.28033 3.21667C4.42098 3.35732 4.5 3.54809 4.5 3.747C4.5 3.94591 4.42098 4.13668 4.28033 4.27733C4.13968 4.41798 3.94891 4.497 3.75 4.497C3.55109 4.497 3.36032 4.41798 3.21967 4.27733C3.07902 4.13668 3 3.94591 3 3.747ZM4.902 7.497C4.63867 7.95305 4.50002 8.47038 4.5 8.997H1.5V12.747C1.49988 13.1201 1.59254 13.4874 1.76965 13.8158C1.94676 14.1442 2.20275 14.4234 2.51458 14.6282C2.82641 14.8331 3.1843 14.9572 3.55601 14.9894C3.92773 15.0215 4.30161 14.9607 4.644 14.8125C4.755 15.309 4.929 15.783 5.154 16.2255C4.5847 16.4554 3.96766 16.5419 3.35708 16.4776C2.74651 16.4133 2.16106 16.2 1.65216 15.8566C1.14326 15.5131 0.726479 15.0499 0.438409 14.5078C0.150339 13.9656 -0.000204072 13.361 2.0762e-07 12.747V8.997C2.0762e-07 8.59918 0.158035 8.21765 0.43934 7.93634C0.720645 7.65504 1.10218 7.497 1.5 7.497H4.902ZM15.846 16.2255C16.4153 16.4554 17.0323 16.5419 17.6429 16.4776C18.2535 16.4133 18.8389 16.2 19.3478 15.8566C19.8567 15.5131 20.2735 15.0499 20.5616 14.5078C20.8497 13.9656 21.0002 13.361 21 12.747V8.997C21 8.59918 20.842 8.21765 20.5607 7.93634C20.2794 7.65504 19.8978 7.497 19.5 7.497H16.098C16.353 7.938 16.5 8.4495 16.5 8.997H19.5V12.747C19.5001 13.1201 19.4075 13.4874 19.2304 13.8158C19.0532 14.1442 18.7973 14.4234 18.4854 14.6282C18.1736 14.8331 17.8157 14.9572 17.444 14.9894C17.0723 15.0215 16.6984 14.9607 16.356 14.8125C16.242 15.3105 16.072 15.7815 15.846 16.2255ZM7.5 7.4955C7.10218 7.4955 6.72064 7.65354 6.43934 7.93484C6.15804 8.21614 6 8.59768 6 8.9955V13.497C6 14.6905 6.47411 15.8351 7.31802 16.679C8.16193 17.5229 9.30653 17.997 10.5 17.997C11.6935 17.997 12.8381 17.5229 13.682 16.679C14.5259 15.8351 15 14.6905 15 13.497V8.997C15 8.59918 14.842 8.21765 14.5607 7.93634C14.2794 7.65504 13.8978 7.497 13.5 7.497L7.5 7.4955ZM7.5 8.9955H13.5V13.497C13.5 14.2927 13.1839 15.0557 12.6213 15.6183C12.0587 16.1809 11.2956 16.497 10.5 16.497C9.70435 16.497 8.94129 16.1809 8.37868 15.6183C7.81607 15.0557 7.5 14.2927 7.5 13.497V8.9955Z" fill="#543434"/>
</svg>
